SplineFontDB: 3.0
FontName: VerovioText
FullName: VerovioText
FamilyName: VerovioText
Weight: Regular
Copyright: 
UComments: "Version 1.0.2 - Adding accidentals+AAoA-Version 1.0.3 - Adding figured bass figures+AAoA-Version 1.0.4 - Fixing overlaps+AAoA-Version 1.0.5 - Adding accidentals+AAoA-Version 1.0.6 - Adding dynamics"
Version: 1.0.6
ItalicAngle: 0
UnderlinePosition: -102
UnderlineWidth: 102
Ascent: 1638
Descent: 410
InvalidEm: 0
LayerCount: 2
Layer: 0 0 "Back" 1
Layer: 1 0 "Fore" 0
XUID: [1021 638 1292611596 2672637]
FSType: 8
OS2Version: 3
OS2_WeightWidthSlopeOnly: 0
OS2_UseTypoMetrics: 1
CreationTime: 1413579002
ModificationTime: 1570605607
PfmFamily: 81
TTFWeight: 400
TTFWidth: 5
LineGap: 410
VLineGap: 0
Panose: 5 6 0 0 0 0 0 0 0 0
OS2TypoAscent: 1638
OS2TypoAOffset: 0
OS2TypoDescent: -410
OS2TypoDOffset: 0
OS2TypoLinegap: 410
OS2WinAscent: 2315
OS2WinAOffset: 0
OS2WinDescent: 676
OS2WinDOffset: 0
HheadAscent: 1638
HheadAOffset: 0
HheadDescent: -410
HheadDOffset: 0
OS2SubXSize: 1331
OS2SubYSize: 1434
OS2SubXOff: 0
OS2SubYOff: 287
OS2SupXSize: 1331
OS2SupYSize: 1434
OS2SupXOff: 0
OS2SupYOff: 983
OS2StrikeYSize: 100
OS2StrikeYPos: 528
OS2Vendor: 'PfEd'
OS2CodePages: 00000001.00000000
OS2UnicodeRanges: 00000000.10000000.00000000.00000000
MarkAttachClasses: 1
DEI: 91125
LangName: 1033 "" "" "" "FontForge 2.0 : VerovioText : 17-10-2014" "" "Version 1.0"
Encoding: UnicodeBmp
UnicodeInterp: none
NameList: Adobe Glyph List
DisplaySize: -72
AntiAlias: 1
FitToEm: 1
WinInfo: 59964 19 9
BeginPrivate: 3
BlueScale 8 0.039625
BlueShift 2 27
ExpansionFactor 4 0.06
EndPrivate
TeXData: 1 0 0 346030 173015 115343 0 -1048576 115343 783286 444596 497025 792723 393216 433062 380633 303038 157286 324010 404750 52429 2506097 1059062 262144
BeginChars: 65536 84

StartChar: uniE1D0
Encoding: 57808 57808 1
Width: 1342
GlyphClass: 2
Flags: HW
LayerCount: 2
Fore
SplineSet
68.75 167.75 m 6
 68.75 160.25 61.25 155.25 48.75 155.25 c 6
 20 155.25 l 6
 7.5 155.25 0 160.25 0 167.75 c 6
 0 830.25 l 6
 0 837.75 7.5 846.5 20 846.5 c 6
 48.75 846.5 l 6
 61.25 846.5 68.75 837.75 68.75 830.25 c 6
 68.75 167.75 l 6
200 167.75 m 6
 200 160.25 188.75 155.25 178.75 155.25 c 6
 148.75 155.25 l 6
 138.75 155.25 127.5 160.25 127.5 167.75 c 6
 127.5 830.25 l 6
 127.5 837.75 138.75 846.5 148.75 846.5 c 6
 178.75 846.5 l 6
 188.75 846.5 200 837.75 200 830.25 c 6
 200 167.75 l 6
681.25 779 m 4
 888.75 779 1138.75 659 1138.75 500.25 c 4
 1138.75 346.5 1021.25 219 657.5 219 c 4
 327.5 219 200 354 200 500.25 c 4
 200 654 383.75 779 681.25 779 c 4
445 639 m 4
 442.5 624 440 605.25 440 587.75 c 4
 440 516.5 476.25 441.5 517.5 387.75 c 4
 530 370.25 548.75 351.5 563.75 339 c 4
 595 310.25 630 290.25 671.25 277.75 c 4
 691.25 272.75 710 270.25 730 270.25 c 4
 752.5 270.25 773.75 272.75 793.75 277.75 c 4
 850 292.75 883.75 331.5 893.75 387.75 c 4
 896.25 400.25 896.25 414 896.25 429 c 4
 896.25 565.25 773.75 725.25 622.5 725.25 c 4
 553.75 725.25 470 715.25 445 639 c 4
1213.75 167.75 m 6
 1213.75 160.25 1202.5 155.25 1192.5 155.25 c 6
 1162.5 155.25 l 6
 1152.5 155.25 1141.25 160.25 1141.25 167.75 c 6
 1141.25 830.25 l 6
 1141.25 837.75 1152.5 846.5 1162.5 846.5 c 6
 1192.5 846.5 l 6
 1202.5 846.5 1213.75 837.75 1213.75 830.25 c 6
 1213.75 167.75 l 6
1341.25 167.75 m 6
 1341.25 160.25 1331.25 155.25 1318.75 155.25 c 6
 1290 155.25 l 6
 1280 155.25 1267.5 160.25 1267.5 167.75 c 6
 1267.5 830.25 l 6
 1267.5 837.75 1280 846.5 1290 846.5 c 6
 1318.75 846.5 l 6
 1331.25 846.5 1341.25 837.75 1341.25 830.25 c 6
 1341.25 167.75 l 6
EndSplineSet
EndChar

StartChar: uniE1D1
Encoding: 57809 57809 2
Width: 1088
GlyphClass: 2
Flags: HW
LayerCount: 2
Fore
SplineSet
1060 1036.25 m 0
 1077.5 1036.25 1090 1020 1090 1002.5 c 2
 1090 45 l 2
 1090 27.5 1077.5 12.5 1060 12.5 c 0
 1040 12.5 1026.25 27.5 1026.25 45 c 2
 1026.25 130 l 1
 1026.25 130 998.75 181.25 965 181.25 c 2
 120 181.25 l 2
 97.5 181.25 66.25 151.25 66.25 120 c 2
 66.25 45 l 2
 66.25 27.5 51.25 12.5 33.75 12.5 c 0
 16.25 12.5 0 27.5 0 45 c 2
 0 1002.5 l 2
 0 1020 16.25 1036.25 33.75 1036.25 c 0
 51.25 1036.25 66.25 1020 66.25 1002.5 c 2
 66.25 905 l 1
 66.25 905 95 843.75 112.5 843.75 c 2
 965 843.75 l 2
 993.75 843.75 1026.25 863.75 1026.25 910 c 2
 1026.25 1002.5 l 2
 1026.25 1020 1040 1036.25 1060 1036.25 c 0
66.25 550 m 2
 66.25 470 l 2
 66.25 421.25 120 386.25 212.5 386.25 c 2
 886.25 386.25 l 2
 971.25 386.25 1026.25 411.25 1026.25 470 c 2
 1026.25 565 l 2
 1026.25 608.75 971.25 638.75 886.25 638.75 c 2
 202.5 638.75 l 2
 105 638.75 66.25 611.25 66.25 550 c 2
EndSplineSet
EndChar

StartChar: uniE1D2
Encoding: 57810 57810 3
Width: 940
GlyphClass: 2
Flags: HW
LayerCount: 2
Fore
SplineSet
481.25 826.25 m 0
 688.75 826.25 940 708.75 940 550 c 0
 940 396.25 825 267.5 458.75 267.5 c 0
 128.75 267.5 0 401.25 0 550 c 4
 0 703.75 183.75 826.25 481.25 826.25 c 0
248.75 687.5 m 0
 241.25 670 241.25 651.25 241.25 631.25 c 0
 241.25 562.5 273.75 488.75 317.5 437.5 c 0
 332.5 417.5 348.75 401.25 363.75 386.25 c 0
 395 361.25 432.5 340 468.75 327.5 c 0
 488.75 322.5 507.5 318.75 527.5 318.75 c 0
 550 318.75 573.75 322.5 596.25 327.5 c 0
 650 342.5 683.75 381.25 693.75 437.5 c 0
 696.25 447.5 698.75 462.5 698.75 477.5 c 0
 698.75 610 576.25 775 425 775 c 0
 353.75 775 271.25 763.75 248.75 687.5 c 0
EndSplineSet
EndChar

StartChar: uniE1D3
Encoding: 57811 57811 4
Width: 699
GlyphClass: 2
Flags: HW
LayerCount: 2
Fore
SplineSet
230 227.5 m 0
 100 227.5 0 298.75 0 423.75 c 4
 0 546.25 110 821.25 466.25 821.25 c 0
 537.5 821.25 596.25 801.25 637.5 765 c 1
 637.5 2413.75 l 1
 698.75 2413.75 l 1
 698.75 621.25 l 2
 698.75 542.5 618.75 227.5 230 227.5 c 0
283.75 631.25 m 0
 120 536.25 68.75 470 68.75 418.75 c 0
 68.75 403.75 77.5 385 85 372.5 c 0
 100 343.75 127.5 318.75 178.75 318.75 c 0
 230 318.75 302.5 345 410 416.25 c 0
 576.25 523.75 625 580 625 628.75 c 0
 625 643.75 618.75 660 608.75 672.5 c 1
 593.75 703.75 568.75 723.75 525 723.75 c 0
 476.25 723.75 401.25 697.5 283.75 631.25 c 0
EndSplineSet
EndChar

StartChar: uniE1D5
Encoding: 57813 57813 6
Width: 682
GlyphClass: 2
Flags: HW
LayerCount: 2
Fore
SplineSet
620 760 m 1
 620 2413.75 l 1
 681.25 2413.75 l 1
 681.25 621.25 l 2
 681.25 426.25 427.5 235 222.5 235 c 0
 97.5 235 0 306.25 0 426.25 c 0
 0 626.25 202.5 813.75 456.25 813.75 c 0
 522.5 813.75 578.75 796.25 620 760 c 1
EndSplineSet
EndChar

StartChar: uniE1D7
Encoding: 57815 57815 8
Width: 1132
GlyphClass: 2
Flags: HW
LayerCount: 2
Fore
SplineSet
696.25 2465 m 0
 732.5 2301.25 811.25 2157.5 908.75 2021.25 c 0
 1031.25 1850 1123.75 1645 1131.25 1427.5 c 1
 1131.25 1412.5 l 2
 1131.25 1300 1090 1146.25 1082.5 1128.75 c 0
 1070 1103.75 1057.5 1092.5 1042.5 1092.5 c 0
 1040 1092.5 1031.25 1092.5 1028.75 1095 c 0
 1016.25 1102.5 998.75 1118.75 998.75 1143.75 c 0
 998.75 1153.75 998.75 1161.25 1003.75 1171.25 c 0
 1037.5 1247.5 1050 1331.25 1050 1410 c 0
 1050 1512.5 1026.25 1607.5 1003.75 1668.75 c 0
 916.25 1912.5 768.75 1971.25 681.25 1988.75 c 1
 681.25 626.25 l 2
 681.25 431.25 427.5 242.5 222.5 242.5 c 0
 97.5 242.5 0 315 0 435 c 4
 0 632.5 202.5 818.75 456.25 818.75 c 0
 522.5 818.75 578.75 801.25 620 765 c 1
 620 2482.5 l 2
 620 2502.5 627.5 2502.5 640 2502.5 c 2
 652.5 2502.5 l 2
 670 2502.5 688.75 2498.75 696.25 2465 c 0
EndSplineSet
EndChar

StartChar: uniE1D9
Encoding: 57817 57817 10
Width: 1163
GlyphClass: 2
Flags: HW
LayerCount: 2
Fore
SplineSet
1101.25 1453.75 m 0
 1101.25 1446.25 1103.75 1440 1103.75 1435 c 0
 1140 1363.75 1162.5 1285 1162.5 1202.5 c 2
 1162.5 1161.25 l 2
 1162.5 1066.25 1155 956.25 1147.5 946.25 c 0
 1135 921.25 1121.25 912.5 1108.75 912.5 c 0
 1101.25 912.5 1097.5 916.25 1090 918.75 c 0
 1080 921.25 1065 938.75 1065 963.75 c 0
 1065 968.75 1065 975 1067.5 980 c 0
 1077.5 1041.25 1082.5 1097.5 1082.5 1153.75 c 0
 1082.5 1256.25 1065 1350 1018.75 1442.5 c 0
 906.25 1675 786.25 1715 678.75 1722.5 c 1
 678.75 626.25 l 2
 678.75 431.25 425 242.5 222.5 242.5 c 0
 97.5 242.5 0 315 0 435 c 4
 0 632.5 202.5 818.75 456.25 818.75 c 0
 520 818.75 578.75 801.25 620 765 c 1
 620 2495 l 1
 650 2495 l 2
 662.5 2495 686.25 2492.5 691.25 2472.5 c 0
 722.5 2265 832.5 2233.75 937.5 2121.25 c 0
 1078.75 1970 1127.5 1916.25 1147.5 1783.75 c 0
 1152.5 1761.25 1152.5 1737.5 1152.5 1715 c 0
 1152.5 1595 1111.25 1478.75 1103.75 1466.25 c 0
 1101.25 1461.25 1101.25 1458.75 1101.25 1453.75 c 0
1077.5 1655 m 0
 1080 1667.5 1080 1681.25 1080 1693.75 c 0
 1080 1757.5 1060 1816.25 1026.25 1867.5 c 0
 962.5 1962.5 857.5 2070 740 2070 c 2
 722.5 2070 l 2
 710 2070 696.25 2060 696.25 2052.5 c 0
 696.25 2050 696.25 2047.5 698.75 2045 c 0
 740 1886.25 826.25 1840 918.75 1735 c 0
 960 1688.75 992.5 1650 1023.75 1601.25 c 0
 1028.75 1593.75 1031.25 1593.75 1038.75 1593.75 c 0
 1048.75 1593.75 1060 1598.75 1062.5 1603.75 c 0
 1072.5 1618.75 1072.5 1640 1077.5 1655 c 0
EndSplineSet
EndChar

StartChar: uniE1DB
Encoding: 57819 57819 12
Width: 1153
GlyphClass: 2
Flags: HW
LayerCount: 2
Fore
SplineSet
1152.5 1210 m 1
 1152.5 1153.75 l 2
 1152.5 1063.75 1143.75 968.75 1138.75 958.75 c 0
 1123.75 936.25 1111.25 926.25 1098.75 926.25 c 0
 1093.75 926.25 1090 928.75 1085 928.75 c 0
 1070 936.25 1060 955 1060 980 c 2
 1060 992.5 l 1
 1070 1051.25 1077.5 1110 1077.5 1166.25 c 0
 1077.5 1266.25 1060 1358.75 1013.75 1448.75 c 0
 901.25 1676.25 783.75 1712.5 678.75 1720 c 1
 678.75 626.25 l 2
 678.75 431.25 425 242.5 222.5 242.5 c 0
 97.5 242.5 0 315 0 435 c 0
 0 632.5 202.5 818.75 456.25 818.75 c 0
 520 818.75 578.75 801.25 620 765 c 1
 620 2868.75 l 1
 620 2868.75 630 2895 642.5 2895 c 0
 655 2895 681.25 2873.75 683.75 2853.75 c 0
 720 2648.75 828.75 2617.5 931.25 2505 c 0
 1070 2356.25 1116.25 2300 1138.75 2177.5 c 0
 1141.25 2157.5 1141.25 2138.75 1141.25 2118.75 c 0
 1141.25 2040 1121.25 1955 1101.25 1901.25 c 1
 1118.75 1867.5 1131.25 1830 1138.75 1783.75 c 0
 1141.25 1758.75 1143.75 1736.25 1143.75 1711.25 c 0
 1143.75 1593.75 1101.25 1481.25 1098.75 1468.75 c 0
 1096.25 1463.75 1096.25 1461.25 1096.25 1456.25 c 0
 1096.25 1451.25 1096.25 1445 1098.75 1440 c 0
 1130 1368.75 1147.5 1288.75 1152.5 1210 c 1
1067.5 1655 m 0
 1070 1670 1070 1686.25 1070 1703.75 c 0
 1070 1762.5 1052.5 1818.75 1018.75 1867.5 c 0
 957.5 1962.5 852.5 2065 722.5 2065 c 0
 712.5 2065 696.25 2042.5 696.25 2040 c 0
 737.5 1881.25 826.25 1840 916.25 1735 c 1
 926.25 1725 l 1
 960 1683.75 987.5 1647.5 1018.75 1603.75 c 0
 1021.25 1596.25 1028.75 1593.75 1033.75 1593.75 c 0
 1043.75 1593.75 1055 1602.5 1057.5 1607.5 c 0
 1062.5 1622.5 1062.5 1637.5 1067.5 1655 c 0
1070 2075 m 1
 1070 2090 1075 2103.75 1075 2118.75 c 0
 1075 2147.5 1067.5 2177.5 1045 2218.75 c 0
 932.5 2408.75 811.25 2456.25 698.75 2456.25 c 1
 732.5 2258.75 831.25 2223.75 931.25 2113.75 c 0
 977.5 2062.5 1016.25 2025 1045 1986.25 c 1
 1055 2022.5 1065 2055 1070 2075 c 1
EndSplineSet
EndChar

StartChar: uniE1DD
Encoding: 57821 57821 14
Width: 1153
GlyphClass: 2
Flags: HW
LayerCount: 2
Fore
SplineSet
1098.75 1442.5 m 0
 1130 1368.75 1147.5 1291.25 1152.5 1212.5 c 1
 1152.5 1153.75 l 2
 1152.5 1066.25 1143.75 971.25 1138.75 958.75 c 1
 1123.75 938.75 1111.25 928.75 1098.75 928.75 c 0
 1093.75 928.75 1090 928.75 1085 931.25 c 0
 1070 938.75 1060 957.5 1060 980 c 2
 1060 995 l 1
 1070 1053.75 1077.5 1112.5 1077.5 1168.75 c 0
 1077.5 1266.25 1060 1358.75 1013.75 1451.25 c 0
 901.25 1678.75 783.75 1715 678.75 1722.5 c 1
 678.75 626.25 l 2
 678.75 431.25 425 242.5 222.5 242.5 c 0
 97.5 242.5 0 315 0 435 c 0
 0 632.5 202.5 818.75 456.25 818.75 c 0
 520 818.75 578.75 801.25 620 765 c 1
 620 3276.25 l 1
 620 3276.25 630 3301.25 642.5 3301.25 c 0
 655 3301.25 681.25 3281.25 683.75 3263.75 c 0
 720 3058.75 828.75 3025 931.25 2915 c 0
 1070 2763.75 1116.25 2710 1138.75 2585 c 0
 1141.25 2567.5 1141.25 2546.25 1141.25 2528.75 c 0
 1141.25 2443.75 1116.25 2352.5 1098.75 2301.25 c 1
 1118.75 2265 1131.25 2226.25 1138.75 2177.5 c 0
 1141.25 2160 1141.25 2141.25 1141.25 2121.25 c 0
 1141.25 2042.5 1121.25 1957.5 1101.25 1903.75 c 1
 1118.75 1870 1131.25 1832.5 1138.75 1786.25 c 0
 1141.25 1761.25 1143.75 1737.5 1143.75 1715 c 0
 1143.75 1597.5 1101.25 1483.75 1098.75 1471.25 c 0
 1096.25 1466.25 1096.25 1461.25 1096.25 1458.75 c 0
 1096.25 1451.25 1096.25 1447.5 1098.75 1442.5 c 0
1067.5 1655 m 1
 1070 1672.5 1070 1688.75 1070 1706.25 c 0
 1070 1765 1052.5 1818.75 1018.75 1870 c 0
 957.5 1962.5 852.5 2067.5 722.5 2067.5 c 1
 712.5 2065 696.25 2045 696.25 2042.5 c 0
 737.5 1883.75 826.25 1840 916.25 1737.5 c 1
 926.25 1727.5 l 1
 960 1686.25 987.5 1650 1018.75 1603.75 c 0
 1021.25 1598.75 1028.75 1596.25 1033.75 1596.25 c 0
 1043.75 1596.25 1055 1605 1057.5 1610 c 0
 1062.5 1625 1062.5 1640 1067.5 1655 c 1
1070 2077.5 m 1
 1070 2092.5 1075 2106.25 1075 2121.25 c 0
 1075 2146.25 1067.5 2177.5 1045 2218.75 c 0
 932.5 2411.25 811.25 2458.75 698.75 2458.75 c 1
 732.5 2258.75 831.25 2226.25 931.25 2116.25 c 0
 977.5 2065 1016.25 2025 1045 1988.75 c 1
 1055 2025 1065 2057.5 1070 2077.5 c 1
1070 2485 m 1
 1070 2497.5 1075 2511.25 1075 2526.25 c 0
 1075 2555 1067.5 2585 1045 2626.25 c 0
 932.5 2813.75 813.75 2863.75 698.75 2863.75 c 1
 701.25 2863.75 701.25 2858.75 701.25 2856.25 c 0
 735 2651.25 828.75 2617.5 931.25 2507.5 c 0
 977.5 2456.25 1013.75 2418.75 1042.5 2382.5 c 1
 1070 2485 l 1
EndSplineSet
EndChar

StartChar: uniE1DF
Encoding: 57823 57823 15
Width: 1153
GlyphClass: 2
Flags: HW
LayerCount: 2
Fore
SplineSet
1098.75 1442.5 m 0
 1130 1368.75 1147.5 1291.25 1152.5 1212.5 c 1
 1152.5 1153.75 l 2
 1152.5 1066.25 1143.75 971.25 1138.75 958.75 c 1
 1123.75 938.75 1111.25 928.75 1098.75 928.75 c 0
 1093.75 928.75 1090 928.75 1085 931.25 c 0
 1070 938.75 1060 957.5 1060 980 c 2
 1060 995 l 1
 1070 1053.75 1077.5 1112.5 1077.5 1168.75 c 0
 1077.5 1266.25 1060 1358.75 1013.75 1451.25 c 0
 901.25 1676.25 786.25 1715 681.25 1722.5 c 1
 681.25 626.25 l 2
 681.25 431.25 427.5 242.5 222.5 242.5 c 0
 97.5 242.5 0 315 0 435 c 0
 0 632.5 202.5 818.75 456.25 818.75 c 0
 522.5 818.75 578.75 801.25 620 765 c 1
 620 3657.5 l 1
 620 3657.5 630 3682.5 642.5 3682.5 c 0
 655 3682.5 681.25 3662.5 683.75 3642.5 c 0
 720 3437.5 828.75 3406.25 931.25 3293.75 c 0
 1070 3145 1116.25 3088.75 1138.75 2966.25 c 0
 1141.25 2946.25 1141.25 2925 1141.25 2905 c 0
 1141.25 2828.75 1121.25 2748.75 1103.75 2697.5 c 1
 1121.25 2661.25 1131.25 2628.75 1138.75 2585 c 0
 1141.25 2567.5 1141.25 2546.25 1141.25 2528.75 c 0
 1141.25 2443.75 1116.25 2352.5 1098.75 2301.25 c 1
 1118.75 2265 1131.25 2226.25 1138.75 2177.5 c 0
 1141.25 2160 1141.25 2141.25 1141.25 2121.25 c 0
 1141.25 2042.5 1121.25 1957.5 1101.25 1903.75 c 1
 1118.75 1870 1131.25 1832.5 1138.75 1786.25 c 0
 1141.25 1761.25 1143.75 1737.5 1143.75 1715 c 0
 1143.75 1597.5 1101.25 1483.75 1098.75 1471.25 c 0
 1096.25 1466.25 1096.25 1461.25 1096.25 1458.75 c 0
 1096.25 1451.25 1096.25 1447.5 1098.75 1442.5 c 0
1067.5 1655 m 1
 1070 1672.5 1070 1688.75 1070 1706.25 c 0
 1070 1765 1052.5 1818.75 1018.75 1870 c 0
 957.5 1962.5 852.5 2067.5 722.5 2067.5 c 1
 712.5 2065 696.25 2045 696.25 2042.5 c 0
 737.5 1883.75 826.25 1840 916.25 1737.5 c 1
 926.25 1727.5 l 1
 960 1686.25 987.5 1650 1018.75 1603.75 c 0
 1021.25 1598.75 1028.75 1596.25 1033.75 1596.25 c 0
 1043.75 1596.25 1055 1605 1057.5 1610 c 0
 1062.5 1625 1062.5 1640 1067.5 1655 c 1
1070 2077.5 m 1
 1070 2092.5 1075 2106.25 1075 2121.25 c 0
 1075 2146.25 1067.5 2177.5 1045 2218.75 c 0
 932.5 2411.25 811.25 2458.75 698.75 2458.75 c 1
 732.5 2258.75 831.25 2226.25 931.25 2116.25 c 0
 977.5 2065 1016.25 2025 1045 1988.75 c 1
 1055 2025 1065 2057.5 1070 2077.5 c 1
1070 2485 m 1
 1070 2497.5 1075 2511.25 1075 2526.25 c 0
 1075 2555 1067.5 2585 1045 2626.25 c 0
 932.5 2813.75 813.75 2863.75 696.25 2863.75 c 1
 698.75 2863.75 698.75 2858.75 698.75 2856.25 c 0
 732.5 2651.25 828.75 2617.5 931.25 2507.5 c 0
 977.5 2456.25 1013.75 2418.75 1042.5 2382.5 c 1
 1070 2485 l 1
1070 2863.75 m 1
 1070 2878.75 1075 2892.5 1075 2907.5 c 0
 1075 2936.25 1067.5 2966.25 1045 3007.5 c 0
 932.5 3197.5 808.75 3245 696.25 3245 c 1
 732.5 3055 833.75 3022.5 931.25 2915 c 0
 980 2861.25 1018.75 2821.25 1047.5 2782.5 c 1
 1057.5 2816.25 1065 2846.25 1070 2863.75 c 1
EndSplineSet
EndChar

StartChar: uniE1E1
Encoding: 57825 57825 17
Width: 1180
GlyphClass: 2
Flags: HW
LayerCount: 2
Fore
SplineSet
1152.5 2136.25 m 0
 1157.5 2116.25 1160 2092.5 1160 2070 c 0
 1160 1993.75 1141.25 1916.25 1123.75 1860 c 1
 1131.25 1837.5 1138.75 1810 1141.25 1778.75 c 1
 1146.25 1756.25 1150 1728.75 1150 1706.25 c 0
 1150 1586.25 1106.25 1473.75 1101.25 1461.25 c 1
 1101.25 1451.25 l 1
 1101.25 1432.5 l 1
 1135 1358.75 1152.5 1278.75 1157.5 1202.5 c 0
 1157.5 1185 1160 1163.75 1160 1143.75 c 0
 1160 1053.75 1151.25 956.25 1141.25 946.25 c 1
 1131.25 921.25 1118.75 910 1103.75 910 c 0
 1098.75 910 1090 913.75 1087.5 916.25 c 0
 1072.5 918.75 1060 938.75 1060 961.25 c 0
 1060 968.75 1060 972.5 1062.5 980 c 0
 1072.5 1041.25 1080 1097.5 1080 1153.75 c 0
 1080 1253.75 1060 1347.5 1018.75 1437.5 c 0
 906.25 1672.5 786.25 1710 681.25 1717.5 c 1
 681.25 626.25 l 2
 681.25 431.25 427.5 242.5 222.5 242.5 c 0
 97.5 242.5 0 315 0 435 c 0
 0 632.5 202.5 818.75 456.25 818.75 c 0
 522.5 818.75 578.75 801.25 620 765 c 1
 620 3997.5 l 2
 620 4010 647.5 4016.25 650 4016.25 c 0
 665 4016.25 681.25 4016.25 681.25 3980 c 1
 717.5 3780 830 3723.75 937.5 3611.25 c 2
 972.5 3572.5 l 2
 1082.5 3452.5 1135 3393.75 1152.5 3283.75 c 0
 1157.5 3263.75 1157.5 3242.5 1157.5 3222.5 c 0
 1157.5 3140 1138.75 3058.75 1121.25 3002.5 c 1
 1136.25 2971.25 1147.5 2938.75 1152.5 2902.5 c 0
 1157.5 2882.5 1157.5 2861.25 1157.5 2838.75 c 0
 1157.5 2762.5 1138.75 2673.75 1121.25 2617.5 c 1
 1136.25 2586.25 1147.5 2557.5 1152.5 2518.75 c 0
 1157.5 2498.75 1157.5 2476.25 1157.5 2453.75 c 0
 1157.5 2377.5 1138.75 2290 1121.25 2236.25 c 1
 1136.25 2205 1147.5 2172.5 1152.5 2136.25 c 0
1070 1652.5 m 0
 1072.5 1665 1075 1681.25 1075 1696.25 c 0
 1075 1755 1055 1811.25 1018.75 1865 c 0
 960 1957.5 855 2065 735 2065 c 2
 722.5 2065 l 2
 707.5 2065 698.75 2050 698.75 2037.5 c 1
 735 1881.25 823.75 1835 918.75 1727.5 c 0
 957.5 1686.25 987.5 1645 1018.75 1593.75 c 0
 1023.75 1588.75 1028.75 1586.25 1036.25 1586.25 c 0
 1046.25 1586.25 1057.5 1593.75 1060 1601.25 c 0
 1067.5 1616.25 1067.5 1635 1070 1652.5 c 0
1070 2035 m 1
 1075 2047.5 1077.5 2062.5 1077.5 2077.5 c 0
 1077.5 2106.25 1070 2133.75 1047.5 2175 c 0
 937.5 2362.5 808.75 2413.75 698.75 2416.25 c 1
 740 2252.5 837.5 2218.75 937.5 2116.25 c 1
 988.75 2060 1026.25 2016.25 1055 1977.5 c 1
 1062.5 2000 1067.5 2020 1070 2035 c 1
1070 2416.25 m 1
 1075 2431.25 1077.5 2445 1077.5 2462.5 c 0
 1077.5 2487.5 1070 2517.5 1047.5 2558.75 c 0
 935 2751.25 811.25 2800 698.75 2800 c 1
 740 2626.25 837.5 2575 937.5 2465 c 2
 1050 2338.75 l 1
 1057.5 2367.5 1067.5 2398.75 1070 2416.25 c 1
1070 2800 m 1
 1075 2812.5 1077.5 2828.75 1077.5 2843.75 c 0
 1077.5 2872.5 1070 2898.75 1047.5 2937.5 c 0
 935 3132.5 811.25 3181.25 698.75 3181.25 c 1
 740 3007.5 837.5 2956.25 937.5 2846.25 c 2
 1050 2720 l 1
 1057.5 2751.25 1067.5 2782.5 1070 2800 c 1
1070 3181.25 m 1
 1075 3196.25 1077.5 3212.5 1077.5 3227.5 c 0
 1077.5 3252.5 1070 3283.75 1047.5 3322.5 c 0
 935 3517.5 811.25 3565 698.75 3565 c 1
 740 3391.25 837.5 3340 937.5 3230 c 2
 1050 3105 l 1
 1057.5 3133.75 1067.5 3163.75 1070 3181.25 c 1
EndSplineSet
EndChar

StartChar: uniE1E3
Encoding: 57827 57827 19
Width: 1163
GlyphClass: 2
Flags: HW
LayerCount: 2
Fore
SplineSet
1106.25 1415 m 0
 1140 1338.75 1157.5 1261.25 1162.5 1185 c 1
 1162.5 1125 l 2
 1162.5 1035 1155 938.75 1147.5 928.75 c 0
 1135 903.75 1121.25 892.5 1108.75 892.5 c 0
 1101.25 892.5 1095 895 1090 897.5 c 0
 1077.5 900 1065 918.75 1065 943.75 c 0
 1065 948.75 1065 953.75 1067.5 958.75 c 0
 1077.5 1020 1082.5 1080 1082.5 1136.25 c 0
 1082.5 1236.25 1065 1327.5 1018.75 1420 c 0
 906.25 1655 786.25 1691.25 681.25 1698.75 c 1
 681.25 626.25 l 2
 681.25 431.25 427.5 242.5 222.5 242.5 c 0
 97.5 242.5 0 315 0 435 c 0
 0 632.5 202.5 818.75 456.25 818.75 c 0
 522.5 818.75 578.75 801.25 620 765 c 1
 620 4361.25 l 2
 620 4373.75 650 4378.75 650 4378.75 c 1
 667.5 4378.75 681.25 4380 683.75 4343.75 c 1
 720 4143.75 835 4092.5 937.5 3977.5 c 1
 970 3941.25 l 2
 1085 3818.75 1140 3760 1157.5 3647.5 c 0
 1160 3630 1162.5 3611.25 1162.5 3591.25 c 0
 1162.5 3508.75 1141.25 3423.75 1123.75 3365 c 1
 1138.75 3333.75 1150 3305 1157.5 3263.75 c 0
 1160 3246.25 1162.5 3227.5 1162.5 3207.5 c 0
 1162.5 3128.75 1141.25 3040 1123.75 2983.75 c 1
 1138.75 2952.5 1150 2920 1157.5 2881.25 c 0
 1160 2863.75 1162.5 2842.5 1162.5 2822.5 c 0
 1162.5 2743.75 1141.25 2658.75 1123.75 2600 c 1
 1138.75 2568.75 1150 2536.25 1157.5 2500 c 0
 1160 2482.5 1162.5 2463.75 1162.5 2443.75 c 0
 1162.5 2361.25 1141.25 2275 1123.75 2218.75 c 1
 1138.75 2187.5 1150 2155 1157.5 2116.25 c 0
 1160 2098.75 1162.5 2077.5 1162.5 2057.5 c 0
 1162.5 1983.75 1141.25 1901.25 1126.25 1842.5 c 1
 1133.75 1820 1142.5 1791.25 1147.5 1760 c 0
 1152.5 1737.5 1152.5 1711.25 1152.5 1686.25 c 0
 1152.5 1568.75 1111.25 1455 1106.25 1440 c 0
 1103.75 1440 1103.75 1435 1103.75 1430 c 0
 1103.75 1425 1106.25 1417.5 1106.25 1415 c 0
1075 1635 m 0
 1077.5 1647.5 1080 1663.75 1080 1676.25 c 0
 1080 1737.5 1060 1793.75 1023.75 1845 c 0
 962.5 1940 855 2045 737.5 2045 c 2
 725 2045 l 2
 710 2045 701.25 2031.25 701.25 2018.75 c 1
 737.5 1860 826.25 1813.75 921.25 1708.75 c 0
 960 1665 992.5 1627.5 1023.75 1576.25 c 0
 1028.75 1571.25 1033.75 1568.75 1038.75 1568.75 c 0
 1048.75 1568.75 1060 1576.25 1062.5 1583.75 c 0
 1070 1598.75 1070 1615 1075 1635 c 0
1075 2013.75 m 2
 1080 2028.75 1080 2045 1080 2060 c 0
 1080 2085 1072.5 2116.25 1050 2157.5 c 0
 937.5 2341.25 808.75 2395 701.25 2397.5 c 1
 740 2233.75 840 2201.25 937.5 2096.25 c 0
 988.75 2042.5 1028.75 1998.75 1060 1960 c 1
 1075 2013.75 l 2
1075 2397.5 m 0
 1080 2412.5 1080 2426.25 1080 2443.75 c 0
 1080 2468.75 1075 2497.5 1050 2538.75 c 0
 937.5 2731.25 811.25 2782.5 701.25 2782.5 c 1
 742.5 2608.75 842.5 2556.25 937.5 2443.75 c 1
 983.75 2395 1021.25 2355 1050 2321.25 c 1
 1060 2350 1070 2380 1075 2397.5 c 0
1075 2782.5 m 0
 1080 2795 1080 2810 1080 2825 c 0
 1080 2850 1075 2878.75 1050 2920 c 0
 937.5 3112.5 811.25 3163.75 701.25 3163.75 c 1
 742.5 2990 842.5 2937.5 937.5 2827.5 c 1
 983.75 2778.75 1021.25 2738.75 1050 2702.5 c 1
 1060 2731.25 1070 2762.5 1075 2782.5 c 0
1075 3163.75 m 0
 1080 3178.75 1080 3192.5 1080 3210 c 0
 1080 3232.5 1075 3262.5 1050 3303.75 c 0
 937.5 3496.25 811.25 3547.5 701.25 3547.5 c 1
 742.5 3373.75 842.5 3322.5 937.5 3212.5 c 0
 983.75 3161.25 1021.25 3120 1050 3086.25 c 1
 1060 3115 1070 3146.25 1075 3163.75 c 0
1075 3547.5 m 0
 1080 3560 1080 3573.75 1080 3591.25 c 0
 1080 3613.75 1072.5 3643.75 1050 3685 c 0
 937.5 3877.5 811.25 3928.75 701.25 3928.75 c 1
 742.5 3755 842.5 3703.75 937.5 3593.75 c 1
 983.75 3545 1021.25 3503.75 1050 3467.5 c 1
 1060 3498.75 1070 3530 1075 3547.5 c 0
EndSplineSet
EndChar

StartChar: uniE1E5
Encoding: 57829 57829 21
Width: 1163
GlyphClass: 2
Flags: HW
LayerCount: 2
Fore
SplineSet
1160 1080 m 0
 1160 1062.5 1162.5 1041.25 1162.5 1021.25 c 0
 1162.5 931.25 1151.25 833.75 1143.75 823.75 c 0
 1131.25 798.75 1121.25 787.5 1106.25 787.5 c 0
 1101.25 787.5 1092.5 790 1090 792.5 c 0
 1075 795 1062.5 816.25 1062.5 838.75 c 0
 1062.5 846.25 1062.5 848.75 1065 856.25 c 0
 1075 915 1080 975 1080 1031.25 c 0
 1080 1131.25 1062.5 1225 1018.75 1315 c 0
 903.75 1550 783.75 1586.25 681.25 1593.75 c 1
 681.25 652.5 l 2
 681.25 457.5 427.5 267.5 222.5 267.5 c 0
 97.5 267.5 0 340 0 460 c 0
 0 660 202.5 846.25 456.25 846.25 c 0
 522.5 846.25 578.75 826.25 620 792.5 c 1
 620 4642.5 l 2
 620 4655 650 4661.25 650 4661.25 c 1
 667.5 4661.25 681.25 4661.25 683.75 4625 c 1
 720 4422.5 835 4371.25 937.5 4256.25 c 1
 967.5 4223.75 l 2
 1082.5 4098.75 1137.5 4041.25 1155 3928.75 c 0
 1157.5 3908.75 1160 3890 1160 3870 c 0
 1160 3791.25 1138.75 3703.75 1121.25 3645 c 1
 1138.75 3613.75 1150 3581.25 1155 3542.5 c 0
 1157.5 3525 1160 3506.25 1160 3486.25 c 0
 1160 3407.5 1138.75 3320 1121.25 3263.75 c 1
 1138.75 3232.5 1150 3200 1155 3161.25 c 0
 1157.5 3141.25 1160 3122.5 1160 3102.5 c 0
 1160 3023.75 1138.75 2935 1121.25 2878.75 c 1
 1138.75 2847.5 1150 2815 1155 2776.25 c 0
 1157.5 2758.75 1160 2740 1160 2720 c 0
 1160 2637.5 1138.75 2553.75 1121.25 2495 c 1
 1138.75 2463.75 1150 2433.75 1155 2395 c 0
 1157.5 2377.5 1160 2358.75 1160 2338.75 c 0
 1160 2260 1138.75 2170 1121.25 2113.75 c 1
 1138.75 2082.5 1150 2050 1155 2013.75 c 0
 1157.5 1993.75 1160 1972.5 1160 1952.5 c 0
 1160 1878.75 1141.25 1796.25 1123.75 1737.5 c 1
 1131.25 1715 1141.25 1686.25 1143.75 1655 c 1
 1148.75 1632.5 1152.5 1606.25 1152.5 1583.75 c 0
 1152.5 1463.75 1108.75 1350 1103.75 1337.5 c 0
 1101.25 1335 1101.25 1330 1101.25 1327.5 c 0
 1101.25 1320 1103.75 1312.5 1103.75 1310 c 0
 1137.5 1236.25 1155 1156.25 1160 1080 c 0
1072.5 1530 m 0
 1075 1542.5 1077.5 1558.75 1077.5 1573.75 c 0
 1077.5 1632.5 1057.5 1688.75 1021.25 1740 c 0
 960 1835 855 1942.5 735 1942.5 c 2
 722.5 1942.5 l 2
 712.5 1942.5 701.25 1931.25 701.25 1913.75 c 1
 735 1757.5 823.75 1711.25 918.75 1603.75 c 0
 957.5 1562.5 990 1522.5 1021.25 1471.25 c 0
 1026.25 1466.25 1031.25 1463.75 1038.75 1463.75 c 0
 1048.75 1463.75 1060 1471.25 1060 1478.75 c 1
 1070 1493.75 1070 1512.5 1072.5 1530 c 0
1072.5 1911.25 m 2
 1077.5 1923.75 1080 1940 1080 1955 c 0
 1080 1983.75 1072.5 2011.25 1050 2052.5 c 0
 937.5 2240 808.75 2290 698.75 2292.5 c 1
 737.5 2128.75 840 2096.25 937.5 1993.75 c 0
 988.75 1937.5 1026.25 1893.75 1057.5 1855 c 1
 1072.5 1911.25 l 2
1072.5 2292.5 m 0
 1077.5 2307.5 1080 2321.25 1080 2338.75 c 0
 1080 2363.75 1072.5 2392.5 1050 2433.75 c 0
 935 2628.75 808.75 2677.5 698.75 2677.5 c 1
 740 2503.75 840 2451.25 937.5 2341.25 c 0
 983.75 2290 1018.75 2250 1050 2216.25 c 1
 1060 2245 1067.5 2275 1072.5 2292.5 c 0
1072.5 2677.5 m 2
 1077.5 2690 1080 2705 1080 2720 c 0
 1080 2748.75 1072.5 2776.25 1050 2817.5 c 0
 935 3010 808.75 3058.75 698.75 3058.75 c 1
 740 2885 840 2832.5 937.5 2725 c 2
 1050 2597.5 l 1
 1072.5 2677.5 l 2
1072.5 3058.75 m 0
 1077.5 3073.75 1080 3090 1080 3105 c 0
 1080 3130 1072.5 3157.5 1050 3198.75 c 0
 935 3391.25 808.75 3442.5 698.75 3442.5 c 1
 740 3268.75 840 3217.5 937.5 3110 c 0
 983.75 3058.75 1018.75 3017.5 1050 2981.25 c 1
 1060 3010 1067.5 3041.25 1072.5 3058.75 c 0
1072.5 3442.5 m 2
 1077.5 3457.5 1080 3471.25 1080 3488.75 c 0
 1080 3511.25 1072.5 3540 1050 3581.25 c 0
 935 3776.25 808.75 3826.25 698.75 3826.25 c 1
 740 3652.5 840 3601.25 937.5 3491.25 c 2
 1050 3365 l 1
 1072.5 3442.5 l 2
1072.5 3826.25 m 0
 1077.5 3838.75 1080 3855 1080 3870 c 0
 1080 3898.75 1070 3926.25 1047.5 3967.5 c 0
 935 4160 808.75 4207.5 698.75 4207.5 c 1
 740 4033.75 840 3982.5 937.5 3872.5 c 0
 981.25 3823.75 1018.75 3783.75 1050 3747.5 c 1
 1060 3776.25 1067.5 3806.25 1072.5 3826.25 c 0
EndSplineSet
EndChar

StartChar: uniE1E7
Encoding: 57831 57831 23
Width: 417
GlyphClass: 2
Flags: HW
LayerCount: 2
Fore
SplineSet
125 518.75 m 0
 125 597.5 192.5 667.5 271.25 667.5 c 0
 350 667.5 416.25 597.5 416.25 518.75 c 0
 416.25 442.5 350 372.5 271.25 372.5 c 0
 192.5 372.5 125 442.5 125 518.75 c 0
EndSplineSet
EndChar

StartChar: uniE550
Encoding: 58704 58704 24
Width: 480
GlyphClass: 2
Flags: HW
LayerCount: 2
Fore
SplineSet
605 -100 m 1
 552 -256 406 -350 230 -350 c 0
 50 -350 -78 -258 -125 -100 c 1
 -102 -100 l 1
 -53 -200 115 -252 234 -252 c 0
 355 -252 525 -200 582 -100 c 1
 605 -100 l 1
EndSplineSet
EndChar

StartChar: uniE551
Encoding: 58705 58705 25
Width: 774
GlyphClass: 2
Flags: HW
LayerCount: 2
Fore
SplineSet
899 -100 m 1
 846 -256 588 -350 379 -350 c 0
 176 -350 -78 -258 -125 -100 c 1
 -103 -100 l 1
 -54 -200 231 -252 381 -252 c 0
 547 -252 819 -200 876 -100 c 1
 899 -100 l 1
EndSplineSet
EndChar

StartChar: uniE552
Encoding: 58706 58706 26
Width: 1102
GlyphClass: 2
Flags: HW
LayerCount: 2
Fore
SplineSet
1227 -100 m 1
 1174 -256 858 -350 543 -350 c 0
 248 -350 -78 -258 -125 -100 c 1
 -103 -100 l 1
 -54 -200 316 -252 545 -252 c 0
 770 -252 1147 -200 1204 -100 c 1
 1227 -100 l 1
EndSplineSet
EndChar

StartChar: uniE260
Encoding: 57952 57952 29
Width: 611
Flags: HW
LayerCount: 2
Fore
SplineSet
112.5 837.5 m 1
 192.5 877.5 247.5 905 345 905 c 0
 410 905 432.5 897.5 480 872.5 c 0
 512.5 855 540 822.5 547.5 777.5 c 2
 557.5 715 l 1
 557.5 645 517.5 572.5 445 492.5 c 0
 387.5 430 347.5 382.5 282.5 322.5 c 2
 62.5 125 l 1
 62.5 1735 l 1
 112.5 1735 l 1
 112.5 837.5 l 1
287.5 827.5 m 1
 207.5 827.5 167.5 802.5 112.5 755 c 1
 112.5 270 l 1
 190 347.5 247.5 417.5 290 480 c 0
 342.5 560 370 627.5 370 690 c 0
 370 712.5 372.5 730 372.5 740 c 0
 372.5 775 365 792.5 345 815 c 1
 325 822.5 l 1
 287.5 827.5 l 1
EndSplineSet
EndChar

StartChar: uniE261
Encoding: 57953 57953 30
Width: 507
Flags: HW
LayerCount: 2
Fore
SplineSet
62.5 92.5 m 1
 62.5 1440 l 1
 107.5 1440 l 1
 107.5 962.5 l 1
 455 1017.5 l 1
 455 572.5 455 130 455 -315 c 1
 412.5 -315 l 1
 412.5 150 l 1
 62.5 92.5 l 1
107.5 312.5 m 1
 412.5 355 l 1
 412.5 795 l 1
 107.5 747.5 l 1
 107.5 312.5 l 1
EndSplineSet
EndChar

StartChar: uniE262
Encoding: 57954 57954 31
Width: 612
Flags: HW
LayerCount: 2
Fore
SplineSet
402.5 1027.5 m 1
 402.5 1450 l 1
 445 1450 l 1
 445 1040 l 1
 555 1075 l 1
 555 847.5 l 1
 445 812.5 l 1
 445 400 l 1
 555 430 l 1
 555 202.5 l 1
 445 170 l 1
 445 -217.5 l 1
 402.5 -217.5 l 1
 402.5 157.5 l 1
 212.5 102.5 l 1
 212.5 -285 l 1
 170 -285 l 1
 170 87.5 l 1
 62.5 55 l 1
 62.5 280 l 1
 170 315 l 1
 170 732.5 l 1
 62.5 697.5 l 1
 62.5 927.5 l 1
 170 960 l 1
 170 1382.5 l 1
 212.5 1382.5 l 1
 212.5 975 l 1
 402.5 1027.5 l 1
212.5 745 m 1
 212.5 327.5 l 1
 402.5 382.5 l 1
 402.5 802.5 l 1
 212.5 745 l 1
EndSplineSet
EndChar

StartChar: uniEA5C
Encoding: 59996 59996 32
Width: 1024
Flags: HW
LayerCount: 2
Fore
SplineSet
733 614 m 0
 686.333333333 728.666666667 607 786 495 786 c 0
 391.666666667 786 323 755.333333333 289 694 c 0
 269 658 259 598 259 514 c 0
 259 405.333333333 282.166666667 299 328.5 195 c 0
 374.833333333 91 448 39 548 39 c 0
 627.333333333 39 685 72.8333333333 721 140.5 c 0
 757 208.166666667 775 287.333333333 775 378 c 0
 775 466.666666667 761 545.333333333 733 614 c 0
840.5 125 m 0
 762.166666667 27 660.333333333 -22 535 -22 c 0
 417.666666667 -22 310.833333333 33 214.5 143 c 0
 118.166666667 253 70 399.333333333 70 582 c 0
 70 798.108930898 148.707354227 986.108092426 306.122062681 1145.99748459 c 1
 70 1238 l 1
 68 1374 l 1
 415.007034691 1238.79230405 l 1
 564.956140818 1346.26410135 730.620462587 1400 912 1400 c 1
 917 1367 l 1
 833.666666667 1351.66666667 761.833333333 1330.83333333 701.5 1304.5 c 0
 641.166666667 1278.16666667 587.333333333 1241.33333333 540 1194 c 0
 539.056026345 1193.06895749 538.113181388 1192.13302396 537.17146513 1191.1921994 c 2
 956 1028 l 1
 958 892 l 1
 452.424194192 1088.99237479 l 1
 435.524936127 1064.83453209 419.05020473 1038.83707383 403 1011 c 0
 360.333333333 937 331 863.666666667 315 791 c 1
 356.333333333 816.333333333 392 835 422 847 c 0
 475.333333333 868.333333333 529 879 583 879 c 0
 689 879 778 842.333333333 850 769 c 0
 922 695.666666667 958 591 958 455 c 0
 958 333 918.833333333 223 840.5 125 c 0
EndSplineSet
EndChar

StartChar: uniEA50
Encoding: 59984 59984 33
Width: 1024
Flags: HW
LayerCount: 2
Fore
SplineSet
723 198 m 128
 759.666992188 305.333007812 778 460.666992188 778 664 c 0
 778 826 767 955.333007812 745 1052 c 0
 703.666992188 1232 626.333007812 1322 513 1322 c 128
 399.666992188 1322 322 1229.33300781 280 1044 c 0
 258 945.333007812 247 815.333007812 247 654 c 0
 247 502.666992188 258.333007812 381.666992188 281 291 c 0
 323.666992188 121.666992188 403.666992188 37 521 37 c 0
 619 37 686.333007812 90.6669921875 723 198 c 128
875 1135 m 0
 942.333007812 1005 976 855.666992188 976 687 c 0
 976 554.333007812 955.333007812 429.333007812 914 312 c 0
 836 91.3330078125 701 -19 509 -19 c 0
 377.666992188 -19 269.666992188 40.6669921875 185 160 c 0
 94.3330078125 287.333007812 49 460.333007812 49 679 c 0
 49 851 79.3330078125 999 140 1123 c 0
 222 1291.66699219 348 1376 518 1376 c 0
 671.333007812 1376 790.333007812 1295.66699219 875 1135 c 0
EndSplineSet
EndChar

StartChar: uniEA51
Encoding: 59985 59985 34
Width: 1024
Flags: HW
LayerCount: 2
Fore
SplineSet
610.5 1366.5 m 128
 610.833333333 1364.83333333 611 1361 611 1355 c 2
 611 151 l 2
 611 99.6666666667 624.666666667 67 652 53 c 128
 679.333333333 39 730.333333333 30.6666666667 805 28 c 1
 805 0 l 1
 241 0 l 1
 241 30 l 1
 321.666666667 34 374.333333333 45 399 63 c 128
 423.666666667 81 436 120 436 180 c 2
 436 1106 l 2
 436 1138 432 1162.33333333 424 1179 c 128
 416 1195.66666667 398.666666667 1204 372 1204 c 0
 354.666666667 1204 332.166666667 1199.16666667 304.5 1189.5 c 128
 276.833333333 1179.83333333 251 1169.66666667 227 1159 c 1
 227 1187 l 1
 594 1374 l 1
 606 1374 l 1
 608.666666667 1370.66666667 610.166666667 1368.16666667 610.5 1366.5 c 128
EndSplineSet
EndChar

StartChar: uniEA52
Encoding: 59986 59986 35
Width: 1024
Flags: HW
LayerCount: 2
Fore
SplineSet
61 23 m 1
 305 276.333333333 470.666666667 462.333333333 558 581 c 128
 645.333333333 699.666666667 689 815.333333333 689 928 c 0
 689 1026.66666667 662.333333333 1101.83333333 609 1153.5 c 128
 555.666666667 1205.16666667 492 1231 418 1231 c 0
 326.666666667 1231 252.666666667 1197.66666667 196 1131 c 0
 164.666666667 1094.33333333 134.666666667 1038 106 962 c 1
 63 971 l 1
 96.3333333333 1124.33333333 152.833333333 1230.83333333 232.5 1290.5 c 128
 312.166666667 1350.16666667 397.666666667 1380 489 1380 c 0
 601.666666667 1380 692.833333333 1344.5 762.5 1273.5 c 128
 832.166666667 1202.5 867 1115.66666667 867 1013 c 0
 867 903.666666667 829.333333333 798.333333333 754 697 c 128
 678.666666667 595.666666667 515 415.333333333 263 156 c 1
 722 156 l 2
 786 156 831 163.666666667 857 179 c 128
 883 194.333333333 912.333333333 231.666666667 945 291 c 1
 971 279 l 1
 860 0 l 1
 61 0 l 1
 61 23 l 1
EndSplineSet
EndChar

StartChar: uniEA53
Encoding: 59987 59987 36
Width: 1024
Flags: HW
LayerCount: 2
Fore
SplineSet
61 23 m 1
 305 276.333333333 470.666666667 462.333333333 558 581 c 0
 645.333333333 699.666666667 689 815.333333333 689 928 c 0
 689 1026.66666667 662.333333333 1101.83333333 609 1153.5 c 0
 555.666666667 1205.16666667 492 1231 418 1231 c 0
 326.666666667 1231 252.666666667 1197.66666667 196 1131 c 0
 164.666666667 1094.33333333 134.666666667 1038 106 962 c 1
 63 971 l 1
 96.3333333333 1124.33333333 152.833333333 1230.83333333 232.5 1290.5 c 0
 312.166666667 1350.16666667 397.666666667 1380 489 1380 c 0
 601.666666667 1380 692.833333333 1344.5 762.5 1273.5 c 0
 832.166666667 1202.5 867 1115.66666667 867 1013 c 0
 867 903.666666667 829.333333333 798.333333333 754 697 c 0
 678.666666667 595.666666667 515 415.333333333 263 156 c 1
 699 156 l 1
 699 489 l 1
 821 489 l 1
 821 165.289772244 l 1
 835.52387737 168.841441505 847.52387737 173.411517424 857 179 c 0
 883 194.333333333 912.333333333 231.666666667 945 291 c 1
 971 279 l 1
 860 0 l 1
 821 2.84217094304e-14 l 1
 821 -276 l 1
 699 -276 l 1
 699 0 l 1
 61 0 l 1
 61 23 l 1
EndSplineSet
EndChar

StartChar: uniEA54
Encoding: 59988 59988 37
Width: 1024
Flags: HW
LayerCount: 2
Fore
SplineSet
304.5 117 m 128
 364.833333333 79 416 60 458 60 c 0
 551.333333333 60 620.666666667 91.5 666 154.5 c 128
 711.333333333 217.5 734 286 734 360 c 0
 734 431.333333333 715.666666667 494 679 548 c 0
 617 639.333333333 512.333333333 685 365 685 c 0
 356.333333333 685 348 684.833333333 340 684.5 c 128
 332 684.166666667 322.666666667 683.333333333 312 682 c 1
 310 708 l 1
 416.666666667 746.666666667 500.666666667 791 562 841 c 128
 623.333333333 891 654 957 654 1039 c 0
 654 1111.66666667 629.833333333 1167 581.5 1205 c 128
 533.166666667 1243 478 1262 416 1262 c 0
 342.666666667 1262 278 1235 222 1181 c 0
 191.333333333 1151.66666667 158.333333333 1106.33333333 123 1045 c 1
 92 1052 l 1
 118.666666667 1153.33333333 168.333333333 1234.33333333 241 1295 c 128
 313.666666667 1355.66666667 397.666666667 1386 493 1386 c 0
 595 1386 673.833333333 1358 729.5 1302 c 128
 785.166666667 1246 813 1181.33333333 813 1108 c 0
 813 1043.33333333 790 984 744 930 c 0
 718 899.333333333 677.666666667 865 623 827 c 1
 687 799.666666667 738.333333333 767.666666667 777 731 c 0
 849.666666667 661 886 572.333333333 886 465 c 0
 886 338.333333333 836.166666667 226.666666667 736.5 130 c 128
 636.833333333 33.3333333333 495 -15 311 -15 c 0
 229 -15 171.5 -2.83333333333 138.5 21.5 c 128
 105.5 45.8333333333 89 72 89 100 c 0
 89 117.333333333 94.5 134 105.5 150 c 128
 116.5 166 134.333333333 174 159 174 c 0
 195.666666667 174 244.166666667 155 304.5 117 c 128
EndSplineSet
EndChar

StartChar: uniEA55
Encoding: 59989 59989 38
Width: 1024
Flags: HW
LayerCount: 2
Fore
SplineSet
597 1168 m 1
 106 474 l 1
 597 474 l 1
 597 1168 l 1
663 1374 m 1
 758 1374 l 1
 758 474 l 1
 967 474 l 1
 967 341 l 1
 758 341 l 1
 758 0 l 1
 599 0 l 1
 599 341 l 1
 23 341 l 1
 23 474 l 1
 663 1374 l 1
EndSplineSet
EndChar

StartChar: uniEA56
Encoding: 59990 59990 39
Width: 1168
Flags: HW
LayerCount: 2
Fore
SplineSet
663 1374 m 1
 758 1374 l 1
 758 474 l 1
 928 474 l 1
 928 730 l 1
 1049 730 l 1
 1049 474 l 1
 1144 474 l 1
 1144 341 l 1
 1049 341 l 1
 1049 82 l 1
 928 82 l 1
 928 341 l 1
 758 341 l 1
 758 0 l 1
 599 0 l 1
 599 341 l 1
 23 341 l 1
 23 474 l 1
 663 1374 l 1
597 1168 m 1
 106 474 l 1
 597 474 l 1
 597 1168 l 1
EndSplineSet
EndChar

StartChar: uniEA57
Encoding: 59991 59991 40
Width: 1024
Flags: HW
LayerCount: 2
Fore
SplineSet
302.5 118.5 m 128
 364.166666667 75.5 411.666666667 54 445 54 c 0
 521.666666667 54 588.666666667 87.8333333333 646 155.5 c 128
 703.333333333 223.166666667 732 306.333333333 732 405 c 0
 732 577.666666667 640 702 456 778 c 0
 354 820 259 841 171 841 c 0
 156.333333333 841 147.166666667 841.5 143.5 842.5 c 128
 139.833333333 843.5 135.333333333 847 130 853 c 1
 131.333333333 858.333333333 132.5 862.833333333 133.5 866.5 c 128
 134.5 870.166666667 135.666666667 873.666666667 137 877 c 2
 355 1355 l 1
 784 1355 l 2
 805.333333333 1355 821.833333333 1358.66666667 833.5 1366 c 128
 845.166666667 1373.33333333 860.333333333 1387 879 1407 c 1
 895 1393 l 1
 817 1208 l 2
 814.333333333 1202 807 1198.16666667 795 1196.5 c 128
 783 1194.83333333 770 1194 756 1194 c 2
 369 1194 l 1
 284 1019 l 1
 393.333333333 1000.33333333 473.333333333 982.666666667 524 966 c 0
 607.333333333 938 677 896.666666667 733 842 c 0
 781 794.666666667 817.333333333 741.5 842 682.5 c 128
 866.666666667 623.5 879 561 879 495 c 0
 879 347.666666667 826.5 224.666666667 721.5 126 c 128
 616.5 27.3333333333 483.666666667 -22 323 -22 c 0
 257.666666667 -22 205 -15.6666666667 165 -3 c 0
 98.3333333333 17.6666666667 65 54.6666666667 65 108 c 0
 65 128 72.1666666667 145.5 86.5 160.5 c 128
 100.833333333 175.5 123 183 153 183 c 0
 191 183 240.833333333 161.5 302.5 118.5 c 128
EndSplineSet
EndChar

StartChar: uniEA58
Encoding: 59992 59992 41
Width: 1024
Flags: HW
LayerCount: 2
Fore
SplineSet
302.5 118.5 m 0
 364.166666667 75.5 411.666666667 54 445 54 c 0
 521.666666667 54 588.666666667 87.8333333333 646 155.5 c 0
 703.333333333 223.166666667 732 306.333333333 732 405 c 0
 732 577.666666667 640 702 456 778 c 0
 354 820 259 841 171 841 c 0
 156.333333333 841 147.166666667 841.5 143.5 842.5 c 0
 139.833333333 843.5 135.333333333 847 130 853 c 1
 131.333333333 858.333333333 132.5 862.833333333 133.5 866.5 c 0
 134.5 870.166666667 135.666666667 873.666666667 137 877 c 2
 355 1355 l 1
 617 1355 l 1
 617 1544 l 1
 738 1544 l 1
 738 1355 l 1
 784 1355 l 2
 805.333333333 1355 821.833333333 1358.66666667 833.5 1366 c 0
 845.166666667 1373.33333333 860.333333333 1387 879 1407 c 1
 895 1393 l 1
 817 1208 l 2
 814.333333333 1202 807 1198.16666667 795 1196.5 c 0
 783 1194.83333333 770 1194 756 1194 c 2
 738 1194 l 1
 738 996 l 1
 617 996 l 1
 617 1194 l 1
 369 1194 l 1
 284 1019 l 1
 393.333333333 1000.33333333 473.333333333 982.666666667 524 966 c 0
 607.333333333 938 677 896.666666667 733 842 c 0
 781 794.666666667 817.333333333 741.5 842 682.5 c 0
 866.666666667 623.5 879 561 879 495 c 0
 879 347.666666667 826.5 224.666666667 721.5 126 c 0
 616.5 27.3333333333 483.666666667 -22 323 -22 c 0
 257.666666667 -22 205 -15.6666666667 165 -3 c 0
 98.3333333333 17.6666666667 65 54.6666666667 65 108 c 0
 65 128 72.1666666667 145.5 86.5 160.5 c 0
 100.833333333 175.5 123 183 153 183 c 0
 191 183 240.833333333 161.5 302.5 118.5 c 0
EndSplineSet
EndChar

StartChar: uniEA59
Encoding: 59993 59993 42
Width: 1024
Flags: HW
LayerCount: 2
Fore
SplineSet
302.5 118.5 m 0
 364.166666667 75.5 411.666666667 54 445 54 c 0
 521.666666667 54 588.666666667 87.8333333333 646 155.5 c 0
 703.333333333 223.166666667 732 306.333333333 732 405 c 0
 732 577.666666667 640 702 456 778 c 0
 354 820 259 841 171 841 c 0
 156.333333333 841 147.166666667 841.5 143.5 842.5 c 0
 139.833333333 843.5 135.333333333 847 130 853 c 1
 131.333333333 858.333333333 132.5 862.833333333 133.5 866.5 c 0
 134.5 870.166666667 135.666666667 873.666666667 137 877 c 2
 266.688308675 1161.36243829 l 1
 70 1238 l 1
 68 1374 l 1
 319.052755395 1276.17989486 l 1
 355 1355 l 1
 784 1355 l 2
 805.333333333 1355 821.833333333 1358.66666667 833.5 1366 c 0
 845.166666667 1373.33333333 860.333333333 1387 879 1407 c 1
 895 1393 l 1
 817 1208 l 2
 814.333333333 1202 807 1198.16666667 795 1196.5 c 0
 783 1194.83333333 770 1194 756 1194 c 2
 529.965317919 1194 l 1
 956 1028 l 1
 958 892 l 1
 339.388669444 1133.03549591 l 1
 284 1019 l 1
 393.333333333 1000.33333333 473.333333333 982.666666667 524 966 c 0
 607.333333333 938 677 896.666666667 733 842 c 0
 781 794.666666667 817.333333333 741.5 842 682.5 c 0
 866.666666667 623.5 879 561 879 495 c 0
 879 347.666666667 826.5 224.666666667 721.5 126 c 0
 616.5 27.3333333333 483.666666667 -22 323 -22 c 0
 257.666666667 -22 205 -15.6666666667 165 -3 c 0
 98.3333333333 17.6666666667 65 54.6666666667 65 108 c 0
 65 128 72.1666666667 145.5 86.5 160.5 c 0
 100.833333333 175.5 123 183 153 183 c 0
 191 183 240.833333333 161.5 302.5 118.5 c 0
EndSplineSet
EndChar

StartChar: uniEA5A
Encoding: 59994 59994 43
Width: 1024
Flags: HW
LayerCount: 2
Fore
SplineSet
304.448419226 117.145258681 m 1
 365.168059815 75.0484195603 412.018586739 54 445 54 c 0
 521.666666667 54 588.666666667 87.8333333333 646 155.5 c 0
 703.333333333 223.166666667 732 306.333333333 732 405 c 0
 732 543.82582036 672.528168356 651.407381341 553.584505069 727.744682944 c 1
 304.448419226 117.145258681 l 1
810.474617928 1357.34819654 m 1
 819.54856471 1359.17095767 827.223692067 1362.05489216 833.5 1366 c 0
 845.166666667 1373.33333333 860.333333333 1387 879 1407 c 1
 895 1393 l 1
 817 1208 l 2
 814.333333333 1202 807 1198.16666667 795 1196.5 c 0
 783 1194.83333333 770 1194 756 1194 c 2
 743.825471698 1194 l 1
 631.341173443 918.315939536 l 1
 669.142200481 896.696562798 703.028476 871.257916287 733 842 c 0
 781 794.666666667 817.333333333 741.5 842 682.5 c 0
 866.666666667 623.5 879 561 879 495 c 0
 879 347.666666667 826.5 224.666666667 721.5 126 c 0
 616.5 27.3333333333 483.666666667 -22 323 -22 c 0
 296.194212753 -22 271.52073304 -20.9338462332 248.979560861 -18.8015386996 c 1
 193 -156 l 1
 67 -156 l 1
 134.238075968 8.79158503143 l 1
 88.079358656 30.5521709462 65 63.6216426024 65 108 c 0
 65 128 72.1666666667 145.5 86.5 160.5 c 0
 100.833333333 175.5 123 183 153 183 c 0
 167.45699053 183 183.626737851 179.888089774 201.509241964 173.664269322 c 1
 449.218106759 780.765764543 l 1
 349.786045011 820.921921514 257.046676091 841 171 841 c 0
 156.333333333 841 147.166666667 841.5 143.5 842.5 c 0
 139.833333333 843.5 135.333333333 847 130 853 c 1
 131.333333333 858.333333333 132.5 862.833333333 133.5 866.5 c 0
 134.5 870.166666667 135.666666667 873.666666667 137 877 c 2
 355 1355 l 1
 683.516509434 1355 l 1
 759 1540 l 1
 885 1540 l 1
 810.474617928 1357.34819654 l 1
617.825471698 1194 m 1
 369 1194 l 1
 284 1019 l 1
 393.333333333 1000.33333333 473.333333333 982.666666667 524 966 c 0
 524.233743132 965.921462308 524.467378741 965.842819714 524.700906826 965.76407222 c 2
 617.825471698 1194 l 1
EndSplineSet
EndChar

StartChar: uniEA5B
Encoding: 59995 59995 44
Width: 1024
Flags: HW
LayerCount: 2
Fore
SplineSet
840.5 125 m 128
 762.166666667 27 660.333333333 -22 535 -22 c 0
 417.666666667 -22 310.833333333 33 214.5 143 c 128
 118.166666667 253 70 399.333333333 70 582 c 0
 70 817.333333333 163.333333333 1019.33333333 350 1188 c 1
 516.666666667 1329.33333333 704 1400 912 1400 c 1
 917 1367 l 1
 833.666666667 1351.66666667 761.833333333 1330.83333333 701.5 1304.5 c 128
 641.166666667 1278.16666667 587.333333333 1241.33333333 540 1194 c 0
 491.333333333 1146 445.666666667 1085 403 1011 c 128
 360.333333333 937 331 863.666666667 315 791 c 1
 356.333333333 816.333333333 392 835 422 847 c 0
 475.333333333 868.333333333 529 879 583 879 c 0
 689 879 778 842.333333333 850 769 c 128
 922 695.666666667 958 591 958 455 c 0
 958 333 918.833333333 223 840.5 125 c 128
733 614 m 0
 686.333333333 728.666666667 607 786 495 786 c 0
 391.666666667 786 323 755.333333333 289 694 c 0
 269 658 259 598 259 514 c 0
 259 405.333333333 282.166666667 299 328.5 195 c 128
 374.833333333 91 448 39 548 39 c 0
 627.333333333 39 685 72.8333333333 721 140.5 c 128
 757 208.166666667 775 287.333333333 775 378 c 0
 775 466.666666667 761 545.333333333 733 614 c 0
EndSplineSet
EndChar

StartChar: uniEA5D
Encoding: 59997 59997 45
Width: 1024
Flags: HW
LayerCount: 2
Fore
SplineSet
919 1355 m 1
 919 1322 l 1
 485 -19 l 1
 353 -19 l 1
 758 1204 l 1
 322 1204 l 2
 257.333333333 1204 210.833333333 1193.33333333 182.5 1172 c 128
 154.166666667 1150.66666667 118.333333333 1106 75 1038 c 1
 40 1054 l 1
 83.3333333333 1160.66666667 110.166666667 1226.5 120.5 1251.5 c 128
 130.833333333 1276.5 144.333333333 1311 161 1355 c 1
 919 1355 l 1
EndSplineSet
EndChar

StartChar: uniEA5E
Encoding: 59998 59998 46
Width: 1024
Flags: HW
LayerCount: 2
Fore
SplineSet
919 1355 m 1
 919 1322 l 1
 485 -19 l 1
 353 -19 l 1
 758 1204 l 1
 405 1204 l 1
 405 924 l 1
 284 924 l 1
 284 1202.61509447 l 1
 238.772359596 1199.10029832 204.939026262 1188.89526683 182.5 1172 c 0
 154.166666667 1150.66666667 118.333333333 1106 75 1038 c 1
 40 1054 l 1
 83.3333333333 1160.66666667 110.166666667 1226.5 120.5 1251.5 c 0
 130.833333333 1276.5 144.333333333 1311 161 1355 c 1
 284 1355 l 1
 284 1572 l 1
 405 1572 l 1
 405 1355 l 1
 919 1355 l 1
EndSplineSet
EndChar

StartChar: uniEA5F
Encoding: 59999 59999 47
Width: 1024
Flags: HW
LayerCount: 2
Fore
SplineSet
919 1355 m 1
 919 1322 l 1
 700.0946499 645.612731602 l 1
 948 548 l 1
 950 412 l 1
 661.280766591 525.683198155 l 1
 485 -19 l 1
 353 -19 l 1
 548.127624946 570.237247677 l 1
 310 664 l 1
 308 800 l 1
 587.738692104 689.852889984 l 1
 758 1204 l 1
 322 1204 l 2
 257.333333333 1204 210.833333333 1193.33333333 182.5 1172 c 0
 154.166666667 1150.66666667 118.333333333 1106 75 1038 c 1
 40 1054 l 1
 83.3333333333 1160.66666667 110.166666667 1226.5 120.5 1251.5 c 0
 130.833333333 1276.5 144.333333333 1311 161 1355 c 1
 919 1355 l 1
EndSplineSet
EndChar

StartChar: uniEA60
Encoding: 60000 60000 48
Width: 1024
Flags: HW
LayerCount: 2
Fore
SplineSet
697 98 m 132
 736.333007812 140.666992188 756 194 756 258 c 4
 756 330.666992188 735.166992188 389.5 693.5 434.5 c 132
 651.833007812 479.5 566.333007812 547.666992188 437 639 c 5
 379.666992188 603 338 556.333007812 312 499 c 132
 286 441.666992188 273 386.333007812 273 333 c 4
 273 241.666992188 296.5 169 343.5 115 c 132
 390.5 61 450.333007812 34 523 34 c 4
 599.666992188 34 657.666992188 55.3330078125 697 98 c 132
666 909 m 4
 707.333007812 960.333007812 728 1022.33300781 728 1095 c 4
 728 1158.33300781 708.5 1212.16699219 669.5 1256.5 c 132
 630.5 1300.83300781 571.333007812 1323 492 1323 c 4
 430.666992188 1323 380 1303.66699219 340 1265 c 132
 300 1226.33300781 280 1179.33300781 280 1124 c 4
 280 1061.33300781 303.5 1003.16699219 350.5 949.5 c 132
 397.5 895.833007812 459.333007812 845.333007812 536 798 c 5
 598.666992188 842 642 879 666 909 c 4
202 851 m 4
 152.666992188 915 128 985.666992188 128 1063 c 4
 128 1151 164.5 1225.66699219 237.5 1287 c 132
 310.5 1348.33300781 405.333007812 1379 522 1379 c 4
 629.333007812 1379 714.666992188 1350 778 1292 c 132
 841.333007812 1234 873 1166.66699219 873 1090 c 4
 873 1012 840.666992188 942 776 880 c 4
 738.666992188 844.666992188 678.333007812 804 595 758 c 5
 708.333007812 674 789.5 600.833007812 838.5 538.5 c 132
 887.5 476.166992188 912 402.666992188 912 318 c 4
 912 222 875.833007812 141.333007812 803.5 76 c 132
 731.166992188 10.6669921875 634.333007812 -22 513 -22 c 4
 404.333007812 -22 311.166992188 8.1669921875 233.5 68.5 c 132
 155.833007812 128.833007812 117 208.333007812 117 307 c 4
 117 391.666992188 144 466.333007812 198 531 c 4
 233.333007812 573 294.666992188 623.333007812 382 682 c 5
 294 752.666992188 234 809 202 851 c 4
EndSplineSet
EndChar

StartChar: uniEA61
Encoding: 60001 60001 49
Width: 1024
Flags: HW
LayerCount: 2
Fore
SplineSet
651.5 611 m 128
 699.833333333 636.333333333 727.333333333 657.666666667 734 675 c 0
 736.666666667 681.666666667 739 706.5 741 749.5 c 128
 743 792.5 744 827.333333333 744 854 c 0
 744 992.666666667 720.666666667 1105.33333333 674 1192 c 128
 627.333333333 1278.66666667 559 1322 469 1322 c 0
 403.666666667 1322 350.833333333 1292.33333333 310.5 1233 c 128
 270.166666667 1173.66666667 250 1085 250 967 c 0
 250 869.666666667 268.833333333 779.666666667 306.5 697 c 128
 344.166666667 614.333333333 412.333333333 573 511 573 c 0
 556.333333333 573 603.166666667 585.666666667 651.5 611 c 128
823 1203.5 m 128
 903 1086.5 943 956 943 812 c 0
 943 710.666666667 924 607.666666667 886 503 c 128
 848 398.333333333 792.666666667 305 720 223 c 0
 635.333333333 128.333333333 528 58 398 12 c 0
 325.333333333 -14 233.666666667 -34 123 -48 c 1
 113 -8 l 1
 182.333333333 8 240 25 286 43 c 0
 368.666666667 75.6666666667 435 115.666666667 485 163 c 0
 555.666666667 230.333333333 612.166666667 305.5 654.5 388.5 c 128
 696.833333333 471.5 723.333333333 541 734 597 c 1
 699 571 l 2
 649.666666667 533.666666667 591.666666667 508 525 494 c 0
 490.333333333 486 458.666666667 482 430 482 c 0
 316.666666667 482 226.833333333 522.166666667 160.5 602.5 c 128
 94.1666666667 682.833333333 61 778.666666667 61 890 c 0
 61 1032 100.5 1149 179.5 1241 c 128
 258.5 1333 359.666666667 1379 483 1379 c 0
 629.666666667 1379 743 1320.5 823 1203.5 c 128
EndSplineSet
EndChar

StartChar: uniEA62
Encoding: 60002 60002 50
Width: 1024
Flags: HW
LayerCount: 2
Fore
SplineSet
651.5 611 m 0
 699.833333333 636.333333333 727.333333333 657.666666667 734 675 c 0
 736.666666667 681.666666667 739 706.5 741 749.5 c 0
 743 792.5 744 827.333333333 744 854 c 0
 744 992.666666667 720.666666667 1105.33333333 674 1192 c 0
 627.333333333 1278.66666667 559 1322 469 1322 c 0
 403.666666667 1322 350.833333333 1292.33333333 310.5 1233 c 0
 270.166666667 1173.66666667 250 1085 250 967 c 0
 250 869.666666667 268.833333333 779.666666667 306.5 697 c 0
 344.166666667 614.333333333 412.333333333 573 511 573 c 0
 556.333333333 573 603.166666667 585.666666667 651.5 611 c 0
823 1203.5 m 0
 903 1086.5 943 956 943 812 c 0
 943 710.666666667 924 607.666666667 886 503 c 0
 848 398.333333333 792.666666667 305 720 223 c 0
 717.723008516 220.454072514 715.42962301 217.925744495 713.119843479 215.415015942 c 2
 958 120 l 1
 960 -16 l 1
 607.752001994 121.249783007 l 1
 546.015146137 76.0512047848 476.097812139 39.6346104495 398 12 c 0
 325.333333333 -14 233.666666667 -34 123 -48 c 1
 113 -8 l 1
 182.333333333 8 240 25 286 43 c 0
 368.666666667 75.6666666667 435 115.666666667 485 163 c 0
 486.508579137 164.437419743 488.010702108 165.878409366 489.506368913 167.322968869 c 2
 72 330 l 1
 70 466 l 1
 578.779445708 267.759360118 l 1
 607.695588361 305.973651599 632.935773125 346.22053156 654.5 388.5 c 0
 696.833333333 471.5 723.333333333 541 734 597 c 1
 699 571 l 2
 649.666666667 533.666666667 591.666666667 508 525 494 c 0
 490.333333333 486 458.666666667 482 430 482 c 0
 316.666666667 482 226.833333333 522.166666667 160.5 602.5 c 0
 94.1666666667 682.833333333 61 778.666666667 61 890 c 0
 61 1032 100.5 1149 179.5 1241 c 0
 258.5 1333 359.666666667 1379 483 1379 c 0
 629.666666667 1379 743 1320.5 823 1203.5 c 0
EndSplineSet
EndChar

StartChar: uniECC0
Encoding: 60608 60608 51
Width: 1024
Flags: HW
LayerCount: 2
Fore
SplineSet
919 1355 m 1
 919 1322 l 1
 744.068184079 781.484872926 l 1
 956 874 l 1
 958 738 l 1
 692.482778553 622.093101474 l 1
 485 -19 l 1
 353 -19 l 1
 543.807489258 557.191504599 l 1
 312 456 l 1
 310 592 l 1
 596.792923853 717.194434251 l 1
 758 1204 l 1
 322 1204 l 2
 257.333333333 1204 210.833333333 1193.33333333 182.5 1172 c 0
 154.166666667 1150.66666667 118.333333333 1106 75 1038 c 1
 40 1054 l 1
 83.3333333333 1160.66666667 110.166666667 1226.5 120.5 1251.5 c 0
 130.833333333 1276.5 144.333333333 1311 161 1355 c 1
 919 1355 l 1
EndSplineSet
EndChar

StartChar: uniE263
Encoding: 57955 57955 52
Width: 790
Flags: HW
LayerCount: 2
Fore
SplineSet
45.755859375 870 m 1
 246 870 l 1
 246 723.876953125 l 1
 286.590820312 677.874023438 l 1
 500.364257812 677.874023438 l 1
 540.955078125 721.170898438 l 1
 540.955078125 870 l 1
 741.19921875 870 l 1
 741.19921875 675.16796875 l 1
 581.543945312 675.16796875 l 1
 513.89453125 599.400390625 l 1
 513.89453125 496.572265625 l 1
 581.543945312 409.98046875 l 1
 741.19921875 409.98046875 l 1
 741.19921875 220.560546875 l 1
 538.249023438 220.560546875 l 1
 538.249023438 369.389648438 l 1
 500.364257812 409.98046875 l 1
 283.884765625 409.98046875 l 1
 246 369.389648438 l 1
 246 220.560546875 l 1
 45.755859375 220.560546875 l 1
 45.755859375 415.392578125 l 1
 208.1171875 415.392578125 l 1
 278.47265625 496.572265625 l 1
 278.47265625 599.400390625 l 1
 202.705078125 677.874023438 l 1
 45.755859375 677.874023438 l 1
 45.755859375 870 l 1
EndSplineSet
EndChar

StartChar: uniE264
Encoding: 57956 57956 53
Width: 1087
Flags: HW
LayerCount: 2
Fore
SplineSet
762 828 m 1
 682 828 642 803 587 755.5 c 1
 587 270.5 l 1
 664.5 348 722 418 764.5 480.5 c 0
 817 560.5 844.5 628 844.5 690.5 c 0
 847 713 847 730.5 847 740.5 c 0
 847 775.5 839.5 793 819.5 815.5 c 1
 799.5 823 l 1
 762 828 l 1
344.5 905.5 m 0
 439.5 905.5 507 873 537 803 c 1
 537 1735.5 l 1
 587 1735.5 l 1
 587 838 l 1
 667 878 722 905.5 819.5 905.5 c 0
 884.5 905.5 907 898 954.5 873 c 0
 987 855.5 1014.5 823 1022 778 c 2
 1032 715.5 l 1
 1032 645.5 992 573 919.5 493 c 0
 862 430.5 822 383 757 323 c 2
 537 125.5 l 1
 537 623 l 1
 507 553 422 465.5 369.5 405.5 c 0
 347 378 317 350.5 282 323 c 2
 62 125.5 l 1
 62 667.9375 62 1198.71777344 62 1735.5 c 1
 112 1735.5 l 1
 112 838 l 1
 192 878 247 905.5 344.5 905.5 c 0
287 828 m 1
 207 828 167 803 112 755.5 c 1
 112 270.5 l 1
 189.5 348 247 418 289.5 480.5 c 0
 342 560.5 369.5 628 369.5 690.5 c 0
 372 713 372 730.5 372 740.5 c 0
 372 775.5 364.5 793 344.5 815.5 c 1
 324.5 823 l 1
 287 828 l 1
EndSplineSet
EndChar

StartChar: uniE520
Encoding: 58656 58656 54
Width: 1112
Flags: HW
LayerCount: 2
Fore
SplineSet
82.7998046875 446.400390625 m 1
 0 446.400390625 l 1
 79.2001953125 600.000976562 153.6015625 721.19921875 223.200195312 810 c 128
 292.798828125 898.80078125 384.000976562 944.3984375 496.799804688 946.799804688 c 0
 518.400390625 946.799804688 540 931.201171875 561.599609375 900 c 1
 585.6015625 875.999023438 597.599609375 843.598632812 597.599609375 802.799804688 c 1
 684 853.200195312 l 1
 774 900 l 1
 817.200195312 916.80078125 861.598632812 925.200195312 907.200195312 925.200195312 c 0
 993.599609375 925.200195312 1063.19921875 891.6015625 1116 824.400390625 c 128
 1168.80078125 757.19921875 1196.3984375 664.80078125 1198.79980469 547.200195312 c 0
 1198.79980469 496.799804688 1195.20019531 451.19921875 1188 410.400390625 c 128
 1180.79980469 369.6015625 1168.80078125 334.799804688 1152 306 c 128
 1135.19921875 277.200195312 1112.40039062 244.799804688 1083.59960938 208.799804688 c 0
 1033.20019531 144 976.798828125 93.599609375 914.400390625 57.599609375 c 128
 852.000976562 21.599609375 787.201171875 3.599609375 720 3.599609375 c 0
 688.798828125 3.599609375 649.19921875 15.5986328125 601.200195312 39.599609375 c 0
 582.000976562 51.5986328125 564.000976562 63.6015625 547.200195312 75.599609375 c 128
 530.3984375 87.5986328125 514.799804688 104.400390625 500.400390625 126 c 1
 298.799804688 -442.799804688 l 1
 288 -457.200195312 l 1
 297.6015625 -481.201171875 312.000976562 -494.3984375 331.200195312 -496.799804688 c 1
 446.400390625 -496.799804688 l 1
 446.400390625 -601.200195312 l 1
 -176.400390625 -601.200195312 l 1
 -176.400390625 -496.799804688 l 1
 -100.799804688 -496.799804688 l 2
 -86.400390625 -496.799804688 -69.5986328125 -490.798828125 -50.400390625 -478.799804688 c 1
 -36 -464.400390625 -25.2001953125 -447.598632812 -18 -428.400390625 c 2
 410.400390625 763.200195312 l 1
 410.400390625 784.799804688 l 1
 399.599609375 820.799804688 l 1
 378 831.599609375 l 1
 346.798828125 831.599609375 316.799804688 817.200195312 288 788.400390625 c 128
 259.200195312 759.599609375 231.598632812 722.401367188 205.200195312 676.799804688 c 1
 165.599609375 615.599609375 l 1
 129.599609375 543.599609375 l 1
 82.7998046875 446.400390625 l 1
709.200195312 723.599609375 m 0
 666 649.19921875 631.19921875 562.798828125 604.799804688 464.400390625 c 1
 580.798828125 356.400390625 568.799804688 281.999023438 568.799804688 241.200195312 c 0
 568.799804688 154.799804688 595.19921875 111.599609375 648 111.599609375 c 0
 693.6015625 111.599609375 730.799804688 119.999023438 759.599609375 136.799804688 c 128
 788.400390625 153.6015625 813.599609375 177.598632812 835.200195312 208.799804688 c 1
 871.200195312 268.80078125 890.3984375 302.400390625 892.799804688 309.599609375 c 0
 909.6015625 350.3984375 921.599609375 403.200195312 928.799804688 468 c 128
 936 532.799804688 940.798828125 579.599609375 943.200195312 608.400390625 c 0
 943.200195312 634.798828125 940.798828125 656.3984375 936 673.200195312 c 128
 931.201171875 690.000976562 924.000976562 706.802734375 914.400390625 723.599609375 c 0
 895.201171875 757.19921875 861.598632812 774 813.599609375 774 c 0
 763.200195312 774 728.3984375 757.19921875 709.200195312 723.599609375 c 0
EndSplineSet
EndChar

StartChar: uniE521
Encoding: 58657 58657 55
Width: 1459
Flags: HW
LayerCount: 2
Fore
SplineSet
1213.20019531 943.200195312 m 0
 1288.79980469 943.200195312 1368 892.799804688 1368 817.200195312 c 2
 1368 792 l 1
 1141.20019531 133.200195312 l 1
 1141.20019531 86.400390625 1155.59960938 61.2001953125 1184.40039062 57.599609375 c 1
 1213.20019531 57.599609375 1245.59960938 75.599609375 1278 111.599609375 c 128
 1310.40039062 147.599609375 1332 169.200195312 1335.59960938 172.799804688 c 0
 1350 198 1402.67871094 286.787109375 1407.59960938 298.799804688 c 2
 1458 446.400390625 l 1
 1540.79980469 446.400390625 l 1
 1454.40039062 219.599609375 l 2
 1424.50585938 141.130859375 1342.79980469 57.599609375 1296 10.7998046875 c 128
 1249.20019531 -36 1191.59960938 -61.2001953125 1130.40039062 -64.7998046875 c 0
 1065.59960938 -64.7998046875 1008 -46.7998046875 954 -14.400390625 c 1
 896.400390625 39.599609375 l 1
 885.599609375 64.7998046875 878.400390625 82.7998046875 878.400390625 100.799804688 c 1
 950.400390625 327.599609375 1036.79980469 547.200195312 1112.40039062 770.400390625 c 1
 1112.40039062 795.599609375 1094.40039062 813.599609375 1058.40039062 817.200195312 c 1
 1000.79980469 817.200195312 946.799804688 763.200195312 900 655.200195312 c 1
 669.599609375 0 l 1
 414 0 l 1
 691.200195312 770.400390625 l 1
 691.200195312 802.799804688 669.599609375 817.200195312 630 817.200195312 c 0
 597.599609375 817.200195312 568.799804688 802.799804688 550.799804688 777.599609375 c 128
 532.799804688 752.400390625 507.599609375 709.200195312 478.799804688 655.200195312 c 1
 248.400390625 0 l 1
 0 0 l 1
 277.200195312 756 l 1
 277.200195312 770.400390625 l 2
 277.200195312 806.400390625 259.200195312 813.599609375 234 828 c 1
 144 828 46.7998046875 658.799804688 -3.599609375 565.200195312 c 0
 -21.599609375 532.799804688 -46.7998046875 482.400390625 -79.2001953125 414 c 1
 -158.400390625 414 l 1
 -90 554.400390625 -14.400390625 687.599609375 72 799.200195312 c 0
 147.599609375 896.400390625 241.200195312 943.200195312 356.400390625 943.200195312 c 0
 432 943.200195312 468 874.799804688 478.799804688 795.599609375 c 1
 547.200195312 856.799804688 601.200195312 892.799804688 640.799804688 910.799804688 c 1
 680.400390625 932.400390625 727.200195312 943.200195312 781.200195312 943.200195312 c 0
 856.799804688 943.200195312 896.400390625 874.799804688 907.200195312 795.599609375 c 1
 986.400390625 856.799804688 1083.59960938 943.200195312 1213.20019531 943.200195312 c 0
EndSplineSet
EndChar

StartChar: uniE522
Encoding: 58658 58658 56
Width: 840
Flags: HW
LayerCount: 2
Fore
SplineSet
-327.599609375 -644.400390625 m 1
 -334.799804688 -654.000976562 -337.201171875 -662.400390625 -334.799804688 -669.599609375 c 128
 -332.3984375 -676.799804688 -319.201171875 -681.598632812 -295.200195312 -684 c 1
 -227.999023438 -684 -171.6015625 -634.798828125 -126 -536.400390625 c 0
 -101.999023438 -486 -78.0009765625 -428.400390625 -54 -363.599609375 c 128
 -29.9990234375 -298.799804688 -11.9990234375 -236.401367188 0 -176.400390625 c 2
 50.400390625 43.2001953125 l 1
 208.799804688 792 l 1
 0 792 l 1
 0 928.799804688 l 1
 252 928.799804688 l 1
 278.3984375 1003.20117188 299.999023438 1059.59863281 316.799804688 1098 c 0
 343.19921875 1162.79980469 369.6015625 1215.6015625 396 1256.40039062 c 0
 470.397460938 1364.40039062 548.3984375 1447.20019531 630 1504.79980469 c 128
 711.6015625 1562.40039062 801.6015625 1591.20019531 900 1591.20019531 c 0
 933.598632812 1591.20019531 961.200195312 1587.59960938 982.799804688 1580.40039062 c 128
 1004.40039062 1573.20019531 1027.19921875 1554.00097656 1051.20019531 1522.79980469 c 0
 1068.00097656 1498.79882812 1078.80078125 1476 1083.59960938 1454.40039062 c 2
 1098 1396.79980469 l 1
 1098 1343.99902344 1095.59863281 1305.59765625 1090.79980469 1281.59960938 c 128
 1086.00097656 1257.59863281 1072.79980469 1224 1051.20019531 1180.79980469 c 0
 1041.59863281 1159.20019531 1019.99902344 1134 986.400390625 1105.20019531 c 0
 972 1093.20117188 956.401367188 1086.00097656 939.599609375 1083.59960938 c 128
 922.798828125 1081.19921875 902.401367188 1081.19921875 878.400390625 1083.59960938 c 1
 856.799804688 1088.3984375 841.201171875 1101.59960938 831.599609375 1123.20019531 c 128
 821.999023438 1144.79980469 814.798828125 1168.80078125 810 1195.20019531 c 1
 810 1238.40039062 818.3984375 1276.80078125 835.200195312 1310.40039062 c 128
 852.000976562 1343.99902344 878.400390625 1372.79882812 914.400390625 1396.79980469 c 0
 939.599609375 1414.79980469 939.599609375 1414.79980469 964.799804688 1432.79980469 c 1
 964.799804688 1464.00097656 943.200195312 1483.20019531 900 1490.40039062 c 1
 852.000976562 1495.18847656 811.19921875 1485.58691406 777.599609375 1461.59960938 c 128
 744.000976562 1437.59863281 709.200195312 1386 673.200195312 1306.79980469 c 1
 656.3984375 1263.59960938 636.000976562 1199.99902344 612 1116 c 128
 587.999023438 1032.00097656 571.201171875 972 561.599609375 936 c 1
 838.799804688 936 l 1
 838.799804688 792 l 1
 532.799804688 792 l 1
 489.599609375 544.798828125 428.400390625 297.6015625 349.200195312 50.400390625 c 0
 284.400390625 -148.798828125 222.000976562 -306 162 -421.200195312 c 0
 114.000976562 -514.799804688 64.7998046875 -590.400390625 14.400390625 -648 c 0
 -74.4013671875 -751.201171875 -165.599609375 -802.799804688 -259.200195312 -802.799804688 c 0
 -347.998046875 -802.799804688 -415.19921875 -767.999023438 -460.799804688 -698.400390625 c 0
 -496.799804688 -643.201171875 -514.799804688 -578.401367188 -514.799804688 -504 c 0
 -514.799804688 -443.999023438 -500.400390625 -386.3984375 -471.599609375 -331.200195312 c 1
 -454.798828125 -304.80078125 -434.401367188 -284.400390625 -410.400390625 -270 c 128
 -386.3984375 -255.599609375 -362.401367188 -248.400390625 -338.400390625 -248.400390625 c 0
 -307.19921875 -248.400390625 -281.999023438 -262.799804688 -262.799804688 -291.599609375 c 128
 -243.6015625 -320.400390625 -230.400390625 -346.798828125 -223.200195312 -370.799804688 c 128
 -216 -394.80078125 -212.400390625 -415.19921875 -212.400390625 -432 c 0
 -212.400390625 -465.598632812 -220.798828125 -494.3984375 -237.599609375 -518.400390625 c 128
 -254.390625 -542.401367188 -271.188476562 -567.6015625 -288 -594 c 128
 -304.791015625 -620.3984375 -317.98828125 -637.200195312 -327.599609375 -644.400390625 c 1
EndSplineSet
EndChar

StartChar: uniE523
Encoding: 58659 58659 57
Width: 813
Flags: HW
LayerCount: 2
Fore
SplineSet
698.400390625 626.400390625 m 0
 648 626.400390625 615.599609375 669.599609375 615.599609375 730.799804688 c 1
 619.200195312 770.400390625 l 1
 630 813.599609375 l 1
 630 831.599609375 619.200195312 838.799804688 601.200195312 838.799804688 c 0
 554.400390625 838.799804688 507.599609375 802.799804688 464.400390625 727.200195312 c 1
 406.799804688 612 l 1
 331.200195312 417.599609375 280.799804688 205.200195312 216 0 c 1
 0 0 l 1
 205.200195312 698.400390625 l 1
 205.200195312 716.400390625 l 2
 205.200195312 756 194.400390625 774 176.400390625 774 c 0
 122.400390625 774 104.400390625 741.599609375 68.400390625 698.400390625 c 0
 36 658.799804688 7.2001953125 615.599609375 -21.599609375 568.799804688 c 1
 -72 597.599609375 l 1
 -50.400390625 651.599609375 -14.400390625 687.599609375 28.7998046875 734.400390625 c 0
 97.2001953125 802.799804688 208.799804688 907.200195312 327.599609375 907.200195312 c 0
 381.599609375 907.200195312 406.799804688 874.799804688 406.799804688 806.400390625 c 0
 403.200195312 781.200195312 403.200195312 756 399.599609375 730.799804688 c 1
 457.200195312 817.200195312 540 932.400390625 666 932.400390625 c 0
 741.599609375 932.400390625 810 864 810 788.400390625 c 0
 810 680.400390625 774 626.400390625 698.400390625 626.400390625 c 0
EndSplineSet
EndChar

StartChar: uniE524
Encoding: 58660 58660 58
Width: 700
Flags: HW
LayerCount: 2
Fore
SplineSet
291.599609375 118.799804688 m 2
 367.200195312 118.799804688 428.400390625 172.799804688 435.599609375 241.200195312 c 0
 435.599609375 266.400390625 424.799804688 295.200195312 406.799804688 320.400390625 c 0
 396 338.400390625 374.400390625 360 338.400390625 385.200195312 c 0
 259.200195312 432 201.599609375 478.799804688 169.200195312 522 c 128
 136.799804688 565.200195312 118.799804688 615.599609375 115.200195312 676.799804688 c 0
 115.200195312 856.799804688 259.200195312 972 428.400390625 972 c 1
 529.200195312 961.200195312 l 1
 561.599609375 950.400390625 590.400390625 936 615.599609375 914.400390625 c 1
 669.599609375 882 698.400390625 828 698.400390625 759.599609375 c 1
 694.799804688 723.599609375 l 1
 673.200195312 687.599609375 l 2
 662.400390625 669.599609375 644.400390625 655.200195312 612 651.599609375 c 1
 550.799804688 651.599609375 518.400390625 680.400390625 507.599609375 738 c 1
 522 806.400390625 l 1
 522 842.400390625 471.599609375 864 435.599609375 871.200195312 c 0
 367.200195312 882 320.400390625 813.599609375 309.599609375 741.599609375 c 1
 309.599609375 716.400390625 324 687.599609375 349.200195312 662.400390625 c 1
 381.599609375 637.200195312 414 612 442.799804688 586.799804688 c 0
 543.599609375 504 597.599609375 453.599609375 601.200195312 442.799804688 c 1
 630 406.799804688 644.400390625 360 644.400390625 302.400390625 c 2
 644.400390625 266.400390625 l 2
 644.400390625 190.799804688 608.400390625 126 540 72 c 1
 482.400390625 36 403.200195312 7.2001953125 320.400390625 0 c 1
 151.200195312 0 0 93.599609375 0 241.200195312 c 1
 3.599609375 295.200195312 l 1
 21.599609375 342 l 1
 57.599609375 374.400390625 l 1
 104.400390625 388.799804688 l 1
 162 388.799804688 190.799804688 352.799804688 190.799804688 277.200195312 c 0
 190.799804688 230.400390625 172.799804688 219.599609375 162 176.400390625 c 1
 162 147.599609375 201.599609375 118.799804688 244.799804688 118.799804688 c 130
 291.599609375 118.799804688 l 2
EndSplineSet
EndChar

StartChar: uniE525
Encoding: 58661 58661 59
Width: 937
Flags: HW
LayerCount: 2
Fore
SplineSet
622.799804688 414 m 0
 698.400390625 414 745.200195312 331.200195312 745.200195312 241.200195312 c 0
 745.200195312 158.400390625 716.400390625 90 658.799804688 32.400390625 c 1
 604.799804688 -28.7998046875 518.400390625 -57.599609375 396 -57.599609375 c 0
 352.799804688 -57.599609375 320.400390625 -54 298.799804688 -43.2001953125 c 2
 255.599609375 -21.599609375 l 1
 194.400390625 14.400390625 l 1
 140.400390625 39.599609375 108 50.400390625 90 50.400390625 c 0
 57.599609375 50.400390625 21.599609375 32.400390625 -18 0 c 1
 -129.599609375 0 l 1
 -129.599609375 57.599609375 l 1
 622.799804688 694.799804688 l 1
 392.400390625 691.200195312 l 1
 309.599609375 680.400390625 277.200195312 637.200195312 234 583.200195312 c 1
 147.599609375 583.200195312 l 1
 255.599609375 896.400390625 l 1
 936 896.400390625 l 1
 936 781.200195312 l 1
 176.400390625 194.400390625 l 1
 223.200195312 216 270 226.799804688 316.799804688 226.799804688 c 0
 367.200195312 226.799804688 507.599609375 162 543.599609375 154.799804688 c 1
 576 158.400390625 594 183.599609375 594 223.200195312 c 1
 547.200195312 223.200195312 522 252 514.799804688 306 c 1
 514.799804688 367.200195312 561.599609375 414 622.799804688 414 c 0
EndSplineSet
EndChar

StartChar: uniE526
Encoding: 58662 58662 60
Width: 1042
Flags: HW
LayerCount: 2
Fore
SplineSet
-140.400390625 414 m 1
 -131.853515625 422.427734375 -73.146484375 542.930664062 -54 568.799804688 c 1
 93.599609375 820.799804688 l 1
 162 882 144 882 183.599609375 900 c 1
 223.200195312 921.599609375 313.200195312 943.200195312 367.200195312 943.200195312 c 0
 442.799804688 943.200195312 482.400390625 874.799804688 493.200195312 795.599609375 c 1
 572.400390625 856.799804688 669.599609375 943.200195312 799.200195312 943.200195312 c 0
 874.799804688 943.200195312 954 892.799804688 954 817.200195312 c 2
 954 792 l 1
 727.200195312 133.200195312 l 1
 727.200195312 86.400390625 741.599609375 61.2001953125 770.400390625 57.599609375 c 1
 799.200195312 57.599609375 831.599609375 75.599609375 864 111.599609375 c 128
 896.400390625 147.599609375 918 169.200195312 921.599609375 172.799804688 c 0
 936 198 988.678710938 286.787109375 993.599609375 298.799804688 c 2
 1044 446.400390625 l 1
 1126.79980469 446.400390625 l 1
 1040.40039062 219.599609375 l 2
 1010.50585938 141.130859375 928.799804688 57.599609375 882 10.7998046875 c 128
 835.200195312 -36 777.599609375 -61.2001953125 716.400390625 -64.7998046875 c 0
 651.599609375 -64.7998046875 594 -46.7998046875 540 -14.400390625 c 1
 482.400390625 39.599609375 l 1
 471.599609375 64.7998046875 464.400390625 82.7998046875 464.400390625 100.799804688 c 1
 536.400390625 327.599609375 622.799804688 547.200195312 698.400390625 770.400390625 c 1
 698.400390625 795.599609375 680.400390625 813.599609375 644.400390625 817.200195312 c 1
 586.799804688 817.200195312 532.799804688 763.200195312 486 655.200195312 c 1
 255.599609375 0 l 1
 0 0 l 1
 277.200195312 770.400390625 l 1
 277.200195312 802.799804688 255.599609375 817.200195312 216 817.200195312 c 0
 183.599609375 817.200195312 154.799804688 802.799804688 136.799804688 777.599609375 c 128
 118.799804688 752.400390625 -32.400390625 468 -61.2001953125 414 c 1
 -140.400390625 414 l 1
EndSplineSet
EndChar

StartChar: uniE527
Encoding: 58663 58663 61
Width: 6530
Flags: HW
LayerCount: 2
Fore
SplineSet
6343.20019531 608.400390625 m 1
 6343.20019531 702 6307.20019531 774 6213.59960938 774 c 0
 6163.20019531 774 6127.20019531 756 6109.20019531 723.599609375 c 0
 6066 648 6030 561.599609375 6004.79980469 464.400390625 c 0
 5979.59960938 356.400390625 5968.79980469 280.799804688 5968.79980469 241.200195312 c 0
 5968.79980469 154.799804688 5994 111.599609375 6048 111.599609375 c 0
 6145.20019531 111.599609375 6195.59960938 151.200195312 6235.20019531 208.799804688 c 1
 6307.20019531 327.599609375 6314.40039062 324 6328.79980469 468 c 0
 6336 532.799804688 6339.59960938 579.599609375 6343.20019531 608.400390625 c 1
6120 3.599609375 m 0
 6040.79980469 3.599609375 5940 68.400390625 5900.40039062 126 c 1
 5698.79980469 -442.799804688 l 1
 5688 -457.200195312 l 1
 5698.79980469 -482.400390625 5713.20019531 -493.200195312 5731.20019531 -496.799804688 c 1
 5846.40039062 -496.799804688 l 1
 5846.40039062 -601.200195312 l 1
 5223.59960938 -601.200195312 l 1
 5223.59960938 -496.799804688 l 1
 5299.20019531 -496.799804688 l 2
 5313.59960938 -496.799804688 5331.59960938 -489.599609375 5349.59960938 -478.799804688 c 1
 5364 -464.400390625 5374.79980469 -446.400390625 5382 -428.400390625 c 2
 5810.40039062 763.200195312 l 1
 5810.40039062 784.799804688 l 1
 5799.59960938 820.799804688 l 1
 5778 831.599609375 l 1
 5695.20019531 831.599609375 5641.20019531 741.599609375 5605.20019531 676.799804688 c 1
 5565.59960938 615.599609375 l 2
 5549.1484375 584.765625 5533.88378906 552.754882812 5518.44042969 520.243164062 c 1
 5514.37207031 369.672851562 5475.05957031 297.27734375 5403.59960938 208.799804688 c 0
 5320.79980469 104.400390625 5205.59960938 3.599609375 5040 3.599609375 c 0
 4960.79980469 3.599609375 4860 68.400390625 4820.40039062 126 c 1
 4618.79980469 -442.799804688 l 1
 4608 -457.200195312 l 1
 4618.79980469 -482.400390625 4633.20019531 -493.200195312 4651.20019531 -496.799804688 c 1
 4766.40039062 -496.799804688 l 1
 4766.40039062 -601.200195312 l 1
 4143.59960938 -601.200195312 l 1
 4143.59960938 -496.799804688 l 1
 4219.20019531 -496.799804688 l 2
 4233.59960938 -496.799804688 4251.59960938 -489.599609375 4269.59960938 -478.799804688 c 1
 4284 -464.400390625 4294.79980469 -446.400390625 4302 -428.400390625 c 2
 4730.40039062 763.200195312 l 1
 4730.40039062 784.799804688 l 1
 4719.59960938 820.799804688 l 1
 4698 831.599609375 l 1
 4615.20019531 831.599609375 4561.20019531 741.599609375 4525.20019531 676.799804688 c 1
 4485.59960938 615.599609375 l 2
 4469.1484375 584.765625 4453.88378906 552.754882812 4438.44042969 520.243164062 c 1
 4434.37207031 369.672851562 4395.05957031 297.27734375 4323.59960938 208.799804688 c 0
 4240.79980469 104.400390625 4125.59960938 3.599609375 3960 3.599609375 c 0
 3880.79980469 3.599609375 3780 68.400390625 3740.40039062 126 c 1
 3538.79980469 -442.799804688 l 1
 3528 -457.200195312 l 1
 3538.79980469 -482.400390625 3553.20019531 -493.200195312 3571.20019531 -496.799804688 c 1
 3686.40039062 -496.799804688 l 1
 3686.40039062 -601.200195312 l 1
 3063.59960938 -601.200195312 l 1
 3063.59960938 -496.799804688 l 1
 3139.20019531 -496.799804688 l 2
 3153.59960938 -496.799804688 3171.59960938 -489.599609375 3189.59960938 -478.799804688 c 1
 3204 -464.400390625 3214.79980469 -446.400390625 3222 -428.400390625 c 2
 3650.40039062 763.200195312 l 1
 3650.40039062 784.799804688 l 1
 3639.59960938 820.799804688 l 1
 3618 831.599609375 l 1
 3535.20019531 831.599609375 3481.20019531 741.599609375 3445.20019531 676.799804688 c 1
 3405.59960938 615.599609375 l 2
 3389.15527344 584.765625 3373.88378906 552.754882812 3358.44335938 520.243164062 c 1
 3354.35742188 369.672851562 3315.06347656 297.27734375 3243.59960938 208.799804688 c 0
 3160.79980469 104.400390625 3045.59960938 3.599609375 2880 3.599609375 c 0
 2800.79980469 3.599609375 2700 68.400390625 2660.40039062 126 c 1
 2458.79980469 -442.799804688 l 1
 2448 -457.200195312 l 1
 2458.79980469 -482.400390625 2473.20019531 -493.200195312 2491.20019531 -496.799804688 c 1
 2606.40039062 -496.799804688 l 1
 2606.40039062 -601.200195312 l 1
 1983.59960938 -601.200195312 l 1
 1983.59960938 -496.799804688 l 1
 2059.20019531 -496.799804688 l 2
 2073.59960938 -496.799804688 2091.59960938 -489.599609375 2109.59960938 -478.799804688 c 1
 2124 -464.400390625 2134.79980469 -446.400390625 2142 -428.400390625 c 2
 2570.40039062 763.200195312 l 1
 2570.40039062 784.799804688 l 1
 2559.59960938 820.799804688 l 1
 2538 831.599609375 l 1
 2455.20019531 831.599609375 2401.20019531 741.599609375 2365.20019531 676.799804688 c 1
 2325.59960938 615.599609375 l 2
 2309.15527344 584.765625 2293.88378906 552.754882812 2278.44335938 520.243164062 c 1
 2274.35742188 369.672851562 2235.06347656 297.27734375 2163.59960938 208.799804688 c 0
 2080.79980469 104.400390625 1965.59960938 3.599609375 1800 3.599609375 c 0
 1720.79980469 3.599609375 1620 68.400390625 1580.40039062 126 c 1
 1378.79980469 -442.799804688 l 1
 1368 -457.200195312 l 1
 1378.79980469 -482.400390625 1393.20019531 -493.200195312 1411.20019531 -496.799804688 c 1
 1526.40039062 -496.799804688 l 1
 1526.40039062 -601.200195312 l 1
 903.599609375 -601.200195312 l 1
 903.599609375 -496.799804688 l 1
 979.200195312 -496.799804688 l 2
 993.599609375 -496.799804688 1011.59960938 -489.599609375 1029.59960938 -478.799804688 c 1
 1044 -464.400390625 1054.79980469 -446.400390625 1062 -428.400390625 c 2
 1490.40039062 763.200195312 l 1
 1490.40039062 784.799804688 l 1
 1479.59960938 820.799804688 l 1
 1458 831.599609375 l 1
 1375.20019531 831.599609375 1321.20019531 741.599609375 1285.20019531 676.799804688 c 1
 1245.59960938 615.599609375 l 2
 1229.15527344 584.765625 1213.88378906 552.754882812 1198.44335938 520.243164062 c 1
 1194.35742188 369.672851562 1155.06347656 297.27734375 1083.59960938 208.799804688 c 0
 1000.79980469 104.400390625 885.599609375 3.599609375 720 3.599609375 c 0
 640.799804688 3.599609375 540 68.400390625 500.400390625 126 c 1
 298.799804688 -442.799804688 l 1
 288 -457.200195312 l 1
 298.799804688 -482.400390625 313.200195312 -493.200195312 331.200195312 -496.799804688 c 1
 446.400390625 -496.799804688 l 1
 446.400390625 -601.200195312 l 1
 -176.400390625 -601.200195312 l 1
 -176.400390625 -496.799804688 l 1
 -100.799804688 -496.799804688 l 2
 -86.400390625 -496.799804688 -68.400390625 -489.599609375 -50.400390625 -478.799804688 c 1
 -36 -464.400390625 -25.2001953125 -446.400390625 -18 -428.400390625 c 2
 410.400390625 763.200195312 l 1
 410.400390625 784.799804688 l 1
 399.599609375 820.799804688 l 1
 378 831.599609375 l 1
 295.200195312 831.599609375 241.200195312 741.599609375 205.200195312 676.799804688 c 1
 165.599609375 615.599609375 l 1
 136.799804688 561.599609375 111.599609375 504 82.7998046875 446.400390625 c 1
 0 446.400390625 l 1
 79.2001953125 601.200195312 154.799804688 720 223.200195312 810 c 0
 291.599609375 900 385.200195312 943.200195312 496.799804688 946.799804688 c 0
 547.200195312 946.799804688 597.599609375 864 597.599609375 802.799804688 c 1
 684 853.200195312 l 1
 774 900 l 1
 817.200195312 918 860.400390625 925.200195312 907.200195312 925.200195312 c 0
 1070.26171875 925.200195312 1162.40039062 803.624023438 1189.99804688 643.327148438 c 1
 1229.3671875 707.522460938 1267.27929688 762.732421875 1303.20019531 810 c 0
 1371.59960938 900 1465.20019531 943.200195312 1576.79980469 946.799804688 c 0
 1627.20019531 946.799804688 1677.59960938 864 1677.59960938 802.799804688 c 1
 1764 853.200195312 l 1
 1854 900 l 1
 1897.20019531 918 1940.40039062 925.200195312 1987.20019531 925.200195312 c 0
 2150.26171875 925.200195312 2242.40039062 803.624023438 2269.99804688 643.327148438 c 1
 2309.37109375 707.522460938 2347.27929688 762.732421875 2383.20019531 810 c 0
 2451.59960938 900 2545.20019531 943.200195312 2656.79980469 946.799804688 c 0
 2707.20019531 946.799804688 2757.59960938 864 2757.59960938 802.799804688 c 1
 2844 853.200195312 l 1
 2934 900 l 1
 2977.20019531 918 3020.40039062 925.200195312 3067.20019531 925.200195312 c 0
 3230.26171875 925.200195312 3322.40039062 803.624023438 3349.99804688 643.327148438 c 1
 3389.37109375 707.522460938 3427.27929688 762.732421875 3463.20019531 810 c 0
 3531.59960938 900 3625.20019531 943.200195312 3736.79980469 946.799804688 c 0
 3787.20019531 946.799804688 3837.59960938 864 3837.59960938 802.799804688 c 1
 3924 853.200195312 l 1
 4014 900 l 1
 4057.20019531 918 4100.40039062 925.200195312 4147.20019531 925.200195312 c 0
 4310.24414062 925.200195312 4402.40429688 803.624023438 4429.98046875 643.327148438 c 1
 4469.36425781 707.522460938 4507.27246094 762.732421875 4543.20019531 810 c 0
 4611.59960938 900 4705.20019531 943.200195312 4816.79980469 946.799804688 c 0
 4867.20019531 946.799804688 4917.59960938 864 4917.59960938 802.799804688 c 1
 5004 853.200195312 l 1
 5094 900 l 1
 5137.20019531 918 5180.40039062 925.200195312 5227.20019531 925.200195312 c 0
 5390.24414062 925.200195312 5482.40429688 803.624023438 5509.98046875 643.327148438 c 1
 5549.36425781 707.522460938 5587.27246094 762.732421875 5623.20019531 810 c 0
 5691.59960938 900 5785.20019531 943.200195312 5896.79980469 946.799804688 c 0
 5947.20019531 946.799804688 5997.59960938 864 5997.59960938 802.799804688 c 1
 6084 853.200195312 l 1
 6174 900 l 1
 6217.20019531 918 6260.40039062 925.200195312 6307.20019531 925.200195312 c 0
 6501.59960938 925.200195312 6595.20019531 752.400390625 6598.79980469 547.200195312 c 0
 6598.79980469 378 6559.20019531 302.400390625 6483.59960938 208.799804688 c 0
 6400.79980469 104.400390625 6285.59960938 3.599609375 6120 3.599609375 c 0
5263.20019531 608.400390625 m 1
 5263.20019531 702 5227.20019531 774 5133.59960938 774 c 0
 5083.20019531 774 5047.20019531 756 5029.20019531 723.599609375 c 0
 4986 648 4950 561.599609375 4924.79980469 464.400390625 c 0
 4899.59960938 356.400390625 4888.79980469 280.799804688 4888.79980469 241.200195312 c 0
 4888.79980469 154.799804688 4914 111.599609375 4968 111.599609375 c 0
 5065.20019531 111.599609375 5115.59960938 151.200195312 5155.20019531 208.799804688 c 1
 5227.20019531 327.599609375 5234.40039062 324 5248.79980469 468 c 0
 5256 532.799804688 5259.59960938 579.599609375 5263.20019531 608.400390625 c 1
4183.20019531 608.400390625 m 1
 4183.20019531 702 4147.20019531 774 4053.59960938 774 c 0
 4003.20019531 774 3967.20019531 756 3949.20019531 723.599609375 c 0
 3906 648 3870 561.599609375 3844.79980469 464.400390625 c 0
 3819.59960938 356.400390625 3808.79980469 280.799804688 3808.79980469 241.200195312 c 0
 3808.79980469 154.799804688 3834 111.599609375 3888 111.599609375 c 0
 3985.20019531 111.599609375 4035.59960938 151.200195312 4075.20019531 208.799804688 c 1
 4147.20019531 327.599609375 4154.40039062 324 4168.79980469 468 c 0
 4176 532.799804688 4179.59960938 579.599609375 4183.20019531 608.400390625 c 1
3103.20019531 608.400390625 m 1
 3103.20019531 702 3067.20019531 774 2973.59960938 774 c 0
 2923.20019531 774 2887.20019531 756 2869.20019531 723.599609375 c 0
 2826 648 2790 561.599609375 2764.79980469 464.400390625 c 0
 2739.59960938 356.400390625 2728.79980469 280.799804688 2728.79980469 241.200195312 c 0
 2728.79980469 154.799804688 2754 111.599609375 2808 111.599609375 c 0
 2905.20019531 111.599609375 2955.59960938 151.200195312 2995.20019531 208.799804688 c 1
 3067.20019531 327.599609375 3074.40039062 324 3088.79980469 468 c 0
 3096 532.799804688 3099.59960938 579.599609375 3103.20019531 608.400390625 c 1
2023.20019531 608.400390625 m 1
 2023.20019531 702 1987.20019531 774 1893.59960938 774 c 0
 1843.20019531 774 1807.20019531 756 1789.20019531 723.599609375 c 0
 1746 648 1710 561.599609375 1684.79980469 464.400390625 c 0
 1659.59960938 356.400390625 1648.79980469 280.799804688 1648.79980469 241.200195312 c 0
 1648.79980469 154.799804688 1674 111.599609375 1728 111.599609375 c 0
 1825.20019531 111.599609375 1875.59960938 151.200195312 1915.20019531 208.799804688 c 1
 1987.20019531 327.599609375 1994.40039062 324 2008.79980469 468 c 0
 2016 532.799804688 2019.59960938 579.599609375 2023.20019531 608.400390625 c 1
943.200195312 608.400390625 m 1
 943.200195312 702 907.200195312 774 813.599609375 774 c 0
 763.200195312 774 727.200195312 756 709.200195312 723.599609375 c 0
 666 648 630 561.599609375 604.799804688 464.400390625 c 0
 579.599609375 356.400390625 568.799804688 280.799804688 568.799804688 241.200195312 c 0
 568.799804688 154.799804688 594 111.599609375 648 111.599609375 c 0
 745.200195312 111.599609375 795.599609375 151.200195312 835.200195312 208.799804688 c 1
 907.200195312 327.599609375 914.400390625 324 928.799804688 468 c 0
 936 532.799804688 939.599609375 579.599609375 943.200195312 608.400390625 c 1
EndSplineSet
EndChar

StartChar: uniE528
Encoding: 58664 58664 62
Width: 5444
Flags: HW
LayerCount: 2
Fore
SplineSet
5263.20019531 608.400390625 m 1
 5263.20019531 702 5227.20019531 774 5133.59960938 774 c 0
 5083.20019531 774 5047.20019531 756 5029.20019531 723.599609375 c 0
 4986 648 4950 561.599609375 4924.79980469 464.400390625 c 0
 4899.59960938 356.400390625 4888.79980469 280.799804688 4888.79980469 241.200195312 c 0
 4888.79980469 154.799804688 4914 111.599609375 4968 111.599609375 c 0
 5065.20019531 111.599609375 5115.59960938 151.200195312 5155.20019531 208.799804688 c 1
 5227.20019531 327.599609375 5234.40039062 324 5248.79980469 468 c 0
 5256 532.799804688 5259.59960938 579.599609375 5263.20019531 608.400390625 c 1
5040 3.599609375 m 0
 4960.79980469 3.599609375 4860 68.400390625 4820.40039062 126 c 1
 4618.79980469 -442.799804688 l 1
 4608 -457.200195312 l 1
 4618.79980469 -482.400390625 4633.20019531 -493.200195312 4651.20019531 -496.799804688 c 1
 4766.40039062 -496.799804688 l 1
 4766.40039062 -601.200195312 l 1
 4143.59960938 -601.200195312 l 1
 4143.59960938 -496.799804688 l 1
 4219.20019531 -496.799804688 l 2
 4233.59960938 -496.799804688 4251.59960938 -489.599609375 4269.59960938 -478.799804688 c 1
 4284 -464.400390625 4294.79980469 -446.400390625 4302 -428.400390625 c 2
 4730.40039062 763.200195312 l 1
 4730.40039062 784.799804688 l 1
 4719.59960938 820.799804688 l 1
 4698 831.599609375 l 1
 4615.20019531 831.599609375 4561.20019531 741.599609375 4525.20019531 676.799804688 c 1
 4485.59960938 615.599609375 l 2
 4469.1484375 584.765625 4453.88378906 552.754882812 4438.44042969 520.243164062 c 1
 4434.37207031 369.672851562 4395.05957031 297.27734375 4323.59960938 208.799804688 c 0
 4240.79980469 104.400390625 4125.59960938 3.599609375 3960 3.599609375 c 0
 3880.79980469 3.599609375 3780 68.400390625 3740.40039062 126 c 1
 3538.79980469 -442.799804688 l 1
 3528 -457.200195312 l 1
 3538.79980469 -482.400390625 3553.20019531 -493.200195312 3571.20019531 -496.799804688 c 1
 3686.40039062 -496.799804688 l 1
 3686.40039062 -601.200195312 l 1
 3063.59960938 -601.200195312 l 1
 3063.59960938 -496.799804688 l 1
 3139.20019531 -496.799804688 l 2
 3153.59960938 -496.799804688 3171.59960938 -489.599609375 3189.59960938 -478.799804688 c 1
 3204 -464.400390625 3214.79980469 -446.400390625 3222 -428.400390625 c 2
 3650.40039062 763.200195312 l 1
 3650.40039062 784.799804688 l 1
 3639.59960938 820.799804688 l 1
 3618 831.599609375 l 1
 3535.20019531 831.599609375 3481.20019531 741.599609375 3445.20019531 676.799804688 c 1
 3405.59960938 615.599609375 l 2
 3389.15527344 584.765625 3373.88378906 552.754882812 3358.44335938 520.243164062 c 1
 3354.35742188 369.672851562 3315.06347656 297.27734375 3243.59960938 208.799804688 c 0
 3160.79980469 104.400390625 3045.59960938 3.599609375 2880 3.599609375 c 0
 2800.79980469 3.599609375 2700 68.400390625 2660.40039062 126 c 1
 2458.79980469 -442.799804688 l 1
 2448 -457.200195312 l 1
 2458.79980469 -482.400390625 2473.20019531 -493.200195312 2491.20019531 -496.799804688 c 1
 2606.40039062 -496.799804688 l 1
 2606.40039062 -601.200195312 l 1
 1983.59960938 -601.200195312 l 1
 1983.59960938 -496.799804688 l 1
 2059.20019531 -496.799804688 l 2
 2073.59960938 -496.799804688 2091.59960938 -489.599609375 2109.59960938 -478.799804688 c 1
 2124 -464.400390625 2134.79980469 -446.400390625 2142 -428.400390625 c 2
 2570.40039062 763.200195312 l 1
 2570.40039062 784.799804688 l 1
 2559.59960938 820.799804688 l 1
 2538 831.599609375 l 1
 2455.20019531 831.599609375 2401.20019531 741.599609375 2365.20019531 676.799804688 c 1
 2325.59960938 615.599609375 l 2
 2309.15527344 584.765625 2293.88378906 552.754882812 2278.44335938 520.243164062 c 1
 2274.35742188 369.672851562 2235.06347656 297.27734375 2163.59960938 208.799804688 c 0
 2080.79980469 104.400390625 1965.59960938 3.599609375 1800 3.599609375 c 0
 1720.79980469 3.599609375 1620 68.400390625 1580.40039062 126 c 1
 1378.79980469 -442.799804688 l 1
 1368 -457.200195312 l 1
 1378.79980469 -482.400390625 1393.20019531 -493.200195312 1411.20019531 -496.799804688 c 1
 1526.40039062 -496.799804688 l 1
 1526.40039062 -601.200195312 l 1
 903.599609375 -601.200195312 l 1
 903.599609375 -496.799804688 l 1
 979.200195312 -496.799804688 l 2
 993.599609375 -496.799804688 1011.59960938 -489.599609375 1029.59960938 -478.799804688 c 1
 1044 -464.400390625 1054.79980469 -446.400390625 1062 -428.400390625 c 2
 1490.40039062 763.200195312 l 1
 1490.40039062 784.799804688 l 1
 1479.59960938 820.799804688 l 1
 1458 831.599609375 l 1
 1375.20019531 831.599609375 1321.20019531 741.599609375 1285.20019531 676.799804688 c 1
 1245.59960938 615.599609375 l 2
 1229.15527344 584.765625 1213.88378906 552.754882812 1198.44335938 520.243164062 c 1
 1194.35742188 369.672851562 1155.06347656 297.27734375 1083.59960938 208.799804688 c 0
 1000.79980469 104.400390625 885.599609375 3.599609375 720 3.599609375 c 0
 640.799804688 3.599609375 540 68.400390625 500.400390625 126 c 1
 298.799804688 -442.799804688 l 1
 288 -457.200195312 l 1
 298.799804688 -482.400390625 313.200195312 -493.200195312 331.200195312 -496.799804688 c 1
 446.400390625 -496.799804688 l 1
 446.400390625 -601.200195312 l 1
 -176.400390625 -601.200195312 l 1
 -176.400390625 -496.799804688 l 1
 -100.799804688 -496.799804688 l 2
 -86.400390625 -496.799804688 -68.400390625 -489.599609375 -50.400390625 -478.799804688 c 1
 -36 -464.400390625 -25.2001953125 -446.400390625 -18 -428.400390625 c 2
 410.400390625 763.200195312 l 1
 410.400390625 784.799804688 l 1
 399.599609375 820.799804688 l 1
 378 831.599609375 l 1
 295.200195312 831.599609375 241.200195312 741.599609375 205.200195312 676.799804688 c 1
 165.599609375 615.599609375 l 1
 136.799804688 561.599609375 111.599609375 504 82.7998046875 446.400390625 c 1
 0 446.400390625 l 1
 79.2001953125 601.200195312 154.799804688 720 223.200195312 810 c 0
 291.599609375 900 385.200195312 943.200195312 496.799804688 946.799804688 c 0
 547.200195312 946.799804688 597.599609375 864 597.599609375 802.799804688 c 1
 684 853.200195312 l 1
 774 900 l 1
 817.200195312 918 860.400390625 925.200195312 907.200195312 925.200195312 c 0
 1070.26171875 925.200195312 1162.40039062 803.624023438 1189.99804688 643.327148438 c 1
 1229.3671875 707.522460938 1267.27929688 762.732421875 1303.20019531 810 c 0
 1371.59960938 900 1465.20019531 943.200195312 1576.79980469 946.799804688 c 0
 1627.20019531 946.799804688 1677.59960938 864 1677.59960938 802.799804688 c 1
 1764 853.200195312 l 1
 1854 900 l 1
 1897.20019531 918 1940.40039062 925.200195312 1987.20019531 925.200195312 c 0
 2150.26171875 925.200195312 2242.40039062 803.624023438 2269.99804688 643.327148438 c 1
 2309.37109375 707.522460938 2347.27929688 762.732421875 2383.20019531 810 c 0
 2451.59960938 900 2545.20019531 943.200195312 2656.79980469 946.799804688 c 0
 2707.20019531 946.799804688 2757.59960938 864 2757.59960938 802.799804688 c 1
 2844 853.200195312 l 1
 2934 900 l 1
 2977.20019531 918 3020.40039062 925.200195312 3067.20019531 925.200195312 c 0
 3230.26171875 925.200195312 3322.40039062 803.624023438 3349.99804688 643.327148438 c 1
 3389.37109375 707.522460938 3427.27929688 762.732421875 3463.20019531 810 c 0
 3531.59960938 900 3625.20019531 943.200195312 3736.79980469 946.799804688 c 0
 3787.20019531 946.799804688 3837.59960938 864 3837.59960938 802.799804688 c 1
 3924 853.200195312 l 1
 4014 900 l 1
 4057.20019531 918 4100.40039062 925.200195312 4147.20019531 925.200195312 c 0
 4310.24414062 925.200195312 4402.40429688 803.624023438 4429.98046875 643.327148438 c 1
 4469.36425781 707.522460938 4507.27246094 762.732421875 4543.20019531 810 c 0
 4611.59960938 900 4705.20019531 943.200195312 4816.79980469 946.799804688 c 0
 4867.20019531 946.799804688 4917.59960938 864 4917.59960938 802.799804688 c 1
 5004 853.200195312 l 1
 5094 900 l 1
 5137.20019531 918 5180.40039062 925.200195312 5227.20019531 925.200195312 c 0
 5421.59960938 925.200195312 5515.20019531 752.400390625 5518.79980469 547.200195312 c 0
 5518.79980469 378 5479.20019531 302.400390625 5403.59960938 208.799804688 c 0
 5320.79980469 104.400390625 5205.59960938 3.599609375 5040 3.599609375 c 0
4183.20019531 608.400390625 m 1
 4183.20019531 702 4147.20019531 774 4053.59960938 774 c 0
 4003.20019531 774 3967.20019531 756 3949.20019531 723.599609375 c 0
 3906 648 3870 561.599609375 3844.79980469 464.400390625 c 0
 3819.59960938 356.400390625 3808.79980469 280.799804688 3808.79980469 241.200195312 c 0
 3808.79980469 154.799804688 3834 111.599609375 3888 111.599609375 c 0
 3985.20019531 111.599609375 4035.59960938 151.200195312 4075.20019531 208.799804688 c 1
 4147.20019531 327.599609375 4154.40039062 324 4168.79980469 468 c 0
 4176 532.799804688 4179.59960938 579.599609375 4183.20019531 608.400390625 c 1
3103.20019531 608.400390625 m 1
 3103.20019531 702 3067.20019531 774 2973.59960938 774 c 0
 2923.20019531 774 2887.20019531 756 2869.20019531 723.599609375 c 0
 2826 648 2790 561.599609375 2764.79980469 464.400390625 c 0
 2739.59960938 356.400390625 2728.79980469 280.799804688 2728.79980469 241.200195312 c 0
 2728.79980469 154.799804688 2754 111.599609375 2808 111.599609375 c 0
 2905.20019531 111.599609375 2955.59960938 151.200195312 2995.20019531 208.799804688 c 1
 3067.20019531 327.599609375 3074.40039062 324 3088.79980469 468 c 0
 3096 532.799804688 3099.59960938 579.599609375 3103.20019531 608.400390625 c 1
2023.20019531 608.400390625 m 1
 2023.20019531 702 1987.20019531 774 1893.59960938 774 c 0
 1843.20019531 774 1807.20019531 756 1789.20019531 723.599609375 c 0
 1746 648 1710 561.599609375 1684.79980469 464.400390625 c 0
 1659.59960938 356.400390625 1648.79980469 280.799804688 1648.79980469 241.200195312 c 0
 1648.79980469 154.799804688 1674 111.599609375 1728 111.599609375 c 0
 1825.20019531 111.599609375 1875.59960938 151.200195312 1915.20019531 208.799804688 c 1
 1987.20019531 327.599609375 1994.40039062 324 2008.79980469 468 c 0
 2016 532.799804688 2019.59960938 579.599609375 2023.20019531 608.400390625 c 1
943.200195312 608.400390625 m 1
 943.200195312 702 907.200195312 774 813.599609375 774 c 0
 763.200195312 774 727.200195312 756 709.200195312 723.599609375 c 0
 666 648 630 561.599609375 604.799804688 464.400390625 c 0
 579.599609375 356.400390625 568.799804688 280.799804688 568.799804688 241.200195312 c 0
 568.799804688 154.799804688 594 111.599609375 648 111.599609375 c 0
 745.200195312 111.599609375 795.599609375 151.200195312 835.200195312 208.799804688 c 1
 907.200195312 327.599609375 914.400390625 324 928.799804688 468 c 0
 936 532.799804688 939.599609375 579.599609375 943.200195312 608.400390625 c 1
EndSplineSet
EndChar

StartChar: uniE529
Encoding: 58665 58665 63
Width: 4369
Flags: HW
LayerCount: 2
Fore
SplineSet
4183.20019531 608.400390625 m 1
 4183.20019531 702 4147.20019531 774 4053.59960938 774 c 0
 4003.20019531 774 3967.20019531 756 3949.20019531 723.599609375 c 0
 3906 648 3870 561.599609375 3844.79980469 464.400390625 c 0
 3819.59960938 356.400390625 3808.79980469 280.799804688 3808.79980469 241.200195312 c 0
 3808.79980469 154.799804688 3834 111.599609375 3888 111.599609375 c 0
 3985.20019531 111.599609375 4035.59960938 151.200195312 4075.20019531 208.799804688 c 1
 4147.20019531 327.599609375 4154.40039062 324 4168.79980469 468 c 0
 4176 532.799804688 4179.59960938 579.599609375 4183.20019531 608.400390625 c 1
3960 3.599609375 m 0
 3880.79980469 3.599609375 3780 68.400390625 3740.40039062 126 c 1
 3538.79980469 -442.799804688 l 1
 3528 -457.200195312 l 1
 3538.79980469 -482.400390625 3553.20019531 -493.200195312 3571.20019531 -496.799804688 c 1
 3686.40039062 -496.799804688 l 1
 3686.40039062 -601.200195312 l 1
 3063.59960938 -601.200195312 l 1
 3063.59960938 -496.799804688 l 1
 3139.20019531 -496.799804688 l 2
 3153.59960938 -496.799804688 3171.59960938 -489.599609375 3189.59960938 -478.799804688 c 1
 3204 -464.400390625 3214.79980469 -446.400390625 3222 -428.400390625 c 2
 3650.40039062 763.200195312 l 1
 3650.40039062 784.799804688 l 1
 3639.59960938 820.799804688 l 1
 3618 831.599609375 l 1
 3535.20019531 831.599609375 3481.20019531 741.599609375 3445.20019531 676.799804688 c 1
 3405.59960938 615.599609375 l 2
 3389.15527344 584.765625 3373.88378906 552.754882812 3358.44335938 520.243164062 c 1
 3354.35742188 369.672851562 3315.06347656 297.27734375 3243.59960938 208.799804688 c 0
 3160.79980469 104.400390625 3045.59960938 3.599609375 2880 3.599609375 c 0
 2800.79980469 3.599609375 2700 68.400390625 2660.40039062 126 c 1
 2458.79980469 -442.799804688 l 1
 2448 -457.200195312 l 1
 2458.79980469 -482.400390625 2473.20019531 -493.200195312 2491.20019531 -496.799804688 c 1
 2606.40039062 -496.799804688 l 1
 2606.40039062 -601.200195312 l 1
 1983.59960938 -601.200195312 l 1
 1983.59960938 -496.799804688 l 1
 2059.20019531 -496.799804688 l 2
 2073.59960938 -496.799804688 2091.59960938 -489.599609375 2109.59960938 -478.799804688 c 1
 2124 -464.400390625 2134.79980469 -446.400390625 2142 -428.400390625 c 2
 2570.40039062 763.200195312 l 1
 2570.40039062 784.799804688 l 1
 2559.59960938 820.799804688 l 1
 2538 831.599609375 l 1
 2455.20019531 831.599609375 2401.20019531 741.599609375 2365.20019531 676.799804688 c 1
 2325.59960938 615.599609375 l 2
 2309.15527344 584.765625 2293.88378906 552.754882812 2278.44335938 520.243164062 c 1
 2274.35742188 369.672851562 2235.06347656 297.27734375 2163.59960938 208.799804688 c 0
 2080.79980469 104.400390625 1965.59960938 3.599609375 1800 3.599609375 c 0
 1720.79980469 3.599609375 1620 68.400390625 1580.40039062 126 c 1
 1378.79980469 -442.799804688 l 1
 1368 -457.200195312 l 1
 1378.79980469 -482.400390625 1393.20019531 -493.200195312 1411.20019531 -496.799804688 c 1
 1526.40039062 -496.799804688 l 1
 1526.40039062 -601.200195312 l 1
 903.599609375 -601.200195312 l 1
 903.599609375 -496.799804688 l 1
 979.200195312 -496.799804688 l 2
 993.599609375 -496.799804688 1011.59960938 -489.599609375 1029.59960938 -478.799804688 c 1
 1044 -464.400390625 1054.79980469 -446.400390625 1062 -428.400390625 c 2
 1490.40039062 763.200195312 l 1
 1490.40039062 784.799804688 l 1
 1479.59960938 820.799804688 l 1
 1458 831.599609375 l 1
 1375.20019531 831.599609375 1321.20019531 741.599609375 1285.20019531 676.799804688 c 1
 1245.59960938 615.599609375 l 2
 1229.15527344 584.765625 1213.88378906 552.754882812 1198.44335938 520.243164062 c 1
 1194.35742188 369.672851562 1155.06347656 297.27734375 1083.59960938 208.799804688 c 0
 1000.79980469 104.400390625 885.599609375 3.599609375 720 3.599609375 c 0
 640.799804688 3.599609375 540 68.400390625 500.400390625 126 c 1
 298.799804688 -442.799804688 l 1
 288 -457.200195312 l 1
 298.799804688 -482.400390625 313.200195312 -493.200195312 331.200195312 -496.799804688 c 1
 446.400390625 -496.799804688 l 1
 446.400390625 -601.200195312 l 1
 -176.400390625 -601.200195312 l 1
 -176.400390625 -496.799804688 l 1
 -100.799804688 -496.799804688 l 2
 -86.400390625 -496.799804688 -68.400390625 -489.599609375 -50.400390625 -478.799804688 c 1
 -36 -464.400390625 -25.2001953125 -446.400390625 -18 -428.400390625 c 2
 410.400390625 763.200195312 l 1
 410.400390625 784.799804688 l 1
 399.599609375 820.799804688 l 1
 378 831.599609375 l 1
 295.200195312 831.599609375 241.200195312 741.599609375 205.200195312 676.799804688 c 1
 165.599609375 615.599609375 l 1
 136.799804688 561.599609375 111.599609375 504 82.7998046875 446.400390625 c 1
 0 446.400390625 l 1
 79.2001953125 601.200195312 154.799804688 720 223.200195312 810 c 0
 291.599609375 900 385.200195312 943.200195312 496.799804688 946.799804688 c 0
 547.200195312 946.799804688 597.599609375 864 597.599609375 802.799804688 c 1
 684 853.200195312 l 1
 774 900 l 1
 817.200195312 918 860.400390625 925.200195312 907.200195312 925.200195312 c 0
 1070.26171875 925.200195312 1162.40039062 803.624023438 1189.99804688 643.327148438 c 1
 1229.3671875 707.522460938 1267.27929688 762.732421875 1303.20019531 810 c 0
 1371.59960938 900 1465.20019531 943.200195312 1576.79980469 946.799804688 c 0
 1627.20019531 946.799804688 1677.59960938 864 1677.59960938 802.799804688 c 1
 1764 853.200195312 l 1
 1854 900 l 1
 1897.20019531 918 1940.40039062 925.200195312 1987.20019531 925.200195312 c 0
 2150.26171875 925.200195312 2242.40039062 803.624023438 2269.99804688 643.327148438 c 1
 2309.37109375 707.522460938 2347.27929688 762.732421875 2383.20019531 810 c 0
 2451.59960938 900 2545.20019531 943.200195312 2656.79980469 946.799804688 c 0
 2707.20019531 946.799804688 2757.59960938 864 2757.59960938 802.799804688 c 1
 2844 853.200195312 l 1
 2934 900 l 1
 2977.20019531 918 3020.40039062 925.200195312 3067.20019531 925.200195312 c 0
 3230.26171875 925.200195312 3322.40039062 803.624023438 3349.99804688 643.327148438 c 1
 3389.37109375 707.522460938 3427.27929688 762.732421875 3463.20019531 810 c 0
 3531.59960938 900 3625.20019531 943.200195312 3736.79980469 946.799804688 c 0
 3787.20019531 946.799804688 3837.59960938 864 3837.59960938 802.799804688 c 1
 3924 853.200195312 l 1
 4014 900 l 1
 4057.20019531 918 4100.40039062 925.200195312 4147.20019531 925.200195312 c 0
 4341.59960938 925.200195312 4435.20019531 752.400390625 4438.79980469 547.200195312 c 0
 4438.79980469 378 4399.20019531 302.400390625 4323.59960938 208.799804688 c 0
 4240.79980469 104.400390625 4125.59960938 3.599609375 3960 3.599609375 c 0
3103.20019531 608.400390625 m 1
 3103.20019531 702 3067.20019531 774 2973.59960938 774 c 0
 2923.20019531 774 2887.20019531 756 2869.20019531 723.599609375 c 0
 2826 648 2790 561.599609375 2764.79980469 464.400390625 c 0
 2739.59960938 356.400390625 2728.79980469 280.799804688 2728.79980469 241.200195312 c 0
 2728.79980469 154.799804688 2754 111.599609375 2808 111.599609375 c 0
 2905.20019531 111.599609375 2955.59960938 151.200195312 2995.20019531 208.799804688 c 1
 3067.20019531 327.599609375 3074.40039062 324 3088.79980469 468 c 0
 3096 532.799804688 3099.59960938 579.599609375 3103.20019531 608.400390625 c 1
2023.20019531 608.400390625 m 1
 2023.20019531 702 1987.20019531 774 1893.59960938 774 c 0
 1843.20019531 774 1807.20019531 756 1789.20019531 723.599609375 c 0
 1746 648 1710 561.599609375 1684.79980469 464.400390625 c 0
 1659.59960938 356.400390625 1648.79980469 280.799804688 1648.79980469 241.200195312 c 0
 1648.79980469 154.799804688 1674 111.599609375 1728 111.599609375 c 0
 1825.20019531 111.599609375 1875.59960938 151.200195312 1915.20019531 208.799804688 c 1
 1987.20019531 327.599609375 1994.40039062 324 2008.79980469 468 c 0
 2016 532.799804688 2019.59960938 579.599609375 2023.20019531 608.400390625 c 1
943.200195312 608.400390625 m 1
 943.200195312 702 907.200195312 774 813.599609375 774 c 0
 763.200195312 774 727.200195312 756 709.200195312 723.599609375 c 0
 666 648 630 561.599609375 604.799804688 464.400390625 c 0
 579.599609375 356.400390625 568.799804688 280.799804688 568.799804688 241.200195312 c 0
 568.799804688 154.799804688 594 111.599609375 648 111.599609375 c 0
 745.200195312 111.599609375 795.599609375 151.200195312 835.200195312 208.799804688 c 1
 907.200195312 327.599609375 914.400390625 324 928.799804688 468 c 0
 936 532.799804688 939.599609375 579.599609375 943.200195312 608.400390625 c 1
EndSplineSet
EndChar

StartChar: uniE52A
Encoding: 58666 58666 64
Width: 3287
Flags: HW
LayerCount: 2
Fore
SplineSet
943.200195312 608.400390625 m 1
 943.200195312 702 907.200195312 774 813.599609375 774 c 0
 763.200195312 774 727.200195312 756 709.200195312 723.599609375 c 0
 666 648 630 561.599609375 604.799804688 464.400390625 c 0
 579.599609375 356.400390625 568.799804688 280.799804688 568.799804688 241.200195312 c 0
 568.799804688 154.799804688 594 111.599609375 648 111.599609375 c 0
 745.200195312 111.599609375 795.599609375 151.200195312 835.200195312 208.799804688 c 1
 907.200195312 327.599609375 914.400390625 324 928.799804688 468 c 0
 936 532.799804688 939.599609375 579.599609375 943.200195312 608.400390625 c 1
720 3.599609375 m 0
 640.799804688 3.599609375 540 68.400390625 500.400390625 126 c 1
 298.799804688 -442.799804688 l 1
 288 -457.200195312 l 1
 298.799804688 -482.400390625 313.200195312 -493.200195312 331.200195312 -496.799804688 c 1
 446.400390625 -496.799804688 l 1
 446.400390625 -601.200195312 l 1
 -176.400390625 -601.200195312 l 1
 -176.400390625 -496.799804688 l 1
 -100.799804688 -496.799804688 l 2
 -86.400390625 -496.799804688 -68.400390625 -489.599609375 -50.400390625 -478.799804688 c 1
 -36 -464.400390625 -25.2001953125 -446.400390625 -18 -428.400390625 c 2
 410.400390625 763.200195312 l 1
 410.400390625 784.799804688 l 1
 399.599609375 820.799804688 l 1
 378 831.599609375 l 1
 295.200195312 831.599609375 241.200195312 741.599609375 205.200195312 676.799804688 c 1
 165.599609375 615.599609375 l 1
 136.799804688 561.599609375 111.599609375 504 82.7998046875 446.400390625 c 1
 0 446.400390625 l 1
 79.2001953125 601.200195312 154.799804688 720 223.200195312 810 c 0
 291.599609375 900 385.200195312 943.200195312 496.799804688 946.799804688 c 0
 547.200195312 946.799804688 597.599609375 864 597.599609375 802.799804688 c 1
 684 853.200195312 l 1
 774 900 l 1
 817.200195312 918 860.400390625 925.200195312 907.200195312 925.200195312 c 0
 1070.26171875 925.200195312 1162.40039062 803.624023438 1189.99804688 643.327148438 c 1
 1229.3671875 707.522460938 1267.27929688 762.732421875 1303.20019531 810 c 0
 1371.59960938 900 1465.20019531 943.200195312 1576.79980469 946.799804688 c 0
 1627.20019531 946.799804688 1677.59960938 864 1677.59960938 802.799804688 c 1
 1764 853.200195312 l 1
 1854 900 l 1
 1897.20019531 918 1940.40039062 925.200195312 1987.20019531 925.200195312 c 0
 2150.26171875 925.200195312 2242.40039062 803.624023438 2269.99804688 643.327148438 c 1
 2309.37109375 707.522460938 2347.27929688 762.732421875 2383.20019531 810 c 0
 2451.59960938 900 2545.20019531 943.200195312 2656.79980469 946.799804688 c 0
 2707.20019531 946.799804688 2757.59960938 864 2757.59960938 802.799804688 c 1
 2844 853.200195312 l 1
 2934 900 l 1
 2977.20019531 918 3020.40039062 925.200195312 3067.20019531 925.200195312 c 0
 3261.59960938 925.200195312 3355.20019531 752.400390625 3358.79980469 547.200195312 c 0
 3358.79980469 378 3319.20019531 302.400390625 3243.59960938 208.799804688 c 0
 3160.79980469 104.400390625 3045.59960938 3.599609375 2880 3.599609375 c 0
 2800.79980469 3.599609375 2700 68.400390625 2660.40039062 126 c 1
 2458.79980469 -442.799804688 l 1
 2448 -457.200195312 l 1
 2458.79980469 -482.400390625 2473.20019531 -493.200195312 2491.20019531 -496.799804688 c 1
 2606.40039062 -496.799804688 l 1
 2606.40039062 -601.200195312 l 1
 1983.59960938 -601.200195312 l 1
 1983.59960938 -496.799804688 l 1
 2059.20019531 -496.799804688 l 2
 2073.59960938 -496.799804688 2091.59960938 -489.599609375 2109.59960938 -478.799804688 c 1
 2124 -464.400390625 2134.79980469 -446.400390625 2142 -428.400390625 c 2
 2570.40039062 763.200195312 l 1
 2570.40039062 784.799804688 l 1
 2559.59960938 820.799804688 l 1
 2538 831.599609375 l 1
 2455.20019531 831.599609375 2401.20019531 741.599609375 2365.20019531 676.799804688 c 1
 2325.59960938 615.599609375 l 2
 2309.15527344 584.765625 2293.88378906 552.754882812 2278.44335938 520.243164062 c 1
 2274.35742188 369.672851562 2235.06347656 297.27734375 2163.59960938 208.799804688 c 0
 2080.79980469 104.400390625 1965.59960938 3.599609375 1800 3.599609375 c 0
 1720.79980469 3.599609375 1620 68.400390625 1580.40039062 126 c 1
 1378.79980469 -442.799804688 l 1
 1368 -457.200195312 l 1
 1378.79980469 -482.400390625 1393.20019531 -493.200195312 1411.20019531 -496.799804688 c 1
 1526.40039062 -496.799804688 l 1
 1526.40039062 -601.200195312 l 1
 903.599609375 -601.200195312 l 1
 903.599609375 -496.799804688 l 1
 979.200195312 -496.799804688 l 2
 993.599609375 -496.799804688 1011.59960938 -489.599609375 1029.59960938 -478.799804688 c 1
 1044 -464.400390625 1054.79980469 -446.400390625 1062 -428.400390625 c 2
 1490.40039062 763.200195312 l 1
 1490.40039062 784.799804688 l 1
 1479.59960938 820.799804688 l 1
 1458 831.599609375 l 1
 1375.20019531 831.599609375 1321.20019531 741.599609375 1285.20019531 676.799804688 c 1
 1245.59960938 615.599609375 l 2
 1229.15527344 584.765625 1213.88378906 552.754882812 1198.44335938 520.243164062 c 1
 1194.35742188 369.672851562 1155.06347656 297.27734375 1083.59960938 208.799804688 c 0
 1000.79980469 104.400390625 885.599609375 3.599609375 720 3.599609375 c 0
3088.79980469 468 m 0
 3096 532.799804688 3099.59960938 579.599609375 3103.20019531 608.400390625 c 1
 3103.20019531 702 3067.20019531 774 2973.59960938 774 c 0
 2923.20019531 774 2887.20019531 756 2869.20019531 723.599609375 c 0
 2826 648 2790 561.599609375 2764.79980469 464.400390625 c 0
 2739.59960938 356.400390625 2728.79980469 280.799804688 2728.79980469 241.200195312 c 0
 2728.79980469 154.799804688 2754 111.599609375 2808 111.599609375 c 0
 2905.20019531 111.599609375 2955.59960938 151.200195312 2995.20019531 208.799804688 c 1
 3067.20019531 327.599609375 3074.40039062 324 3088.79980469 468 c 0
2008.79980469 468 m 0
 2016 532.799804688 2019.59960938 579.599609375 2023.20019531 608.400390625 c 1
 2023.20019531 702 1987.20019531 774 1893.59960938 774 c 0
 1843.20019531 774 1807.20019531 756 1789.20019531 723.599609375 c 0
 1746 648 1710 561.599609375 1684.79980469 464.400390625 c 0
 1659.59960938 356.400390625 1648.79980469 280.799804688 1648.79980469 241.200195312 c 0
 1648.79980469 154.799804688 1674 111.599609375 1728 111.599609375 c 0
 1825.20019531 111.599609375 1875.59960938 151.200195312 1915.20019531 208.799804688 c 1
 1987.20019531 327.599609375 1994.40039062 324 2008.79980469 468 c 0
EndSplineSet
EndChar

StartChar: uniE52B
Encoding: 58667 58667 65
Width: 2233
Flags: HW
LayerCount: 2
Fore
SplineSet
1789.20019531 723.599609375 m 0
 1746 649.19921875 1711.19921875 562.798828125 1684.79980469 464.400390625 c 1
 1660.79882812 356.400390625 1648.79980469 281.999023438 1648.79980469 241.200195312 c 0
 1648.79980469 154.799804688 1675.19921875 111.599609375 1728 111.599609375 c 0
 1773.6015625 111.599609375 1810.79980469 119.999023438 1839.59960938 136.799804688 c 0
 1868.40039062 153.6015625 1893.59960938 177.598632812 1915.20019531 208.799804688 c 0
 1951.20019531 268.80078125 1970.3984375 302.400390625 1972.79980469 309.599609375 c 0
 1989.6015625 350.3984375 2001.59960938 403.200195312 2008.79980469 468 c 0
 2016 532.799804688 2020.79882812 579.599609375 2023.20019531 608.400390625 c 0
 2023.20019531 634.798828125 2020.79882812 656.3984375 2016 673.200195312 c 0
 2011.20117188 690.000976562 2004.00097656 706.802734375 1994.40039062 723.599609375 c 0
 1975.20117188 757.19921875 1941.59863281 774 1893.59960938 774 c 0
 1843.20019531 774 1808.3984375 757.19921875 1789.20019531 723.599609375 c 0
709.200195312 723.599609375 m 0
 666 649.19921875 631.19921875 562.798828125 604.799804688 464.400390625 c 1
 580.798828125 356.400390625 568.799804688 281.999023438 568.799804688 241.200195312 c 0
 568.799804688 154.799804688 595.19921875 111.599609375 648 111.599609375 c 0
 693.6015625 111.599609375 730.799804688 119.999023438 759.599609375 136.799804688 c 0
 788.400390625 153.6015625 813.599609375 177.598632812 835.200195312 208.799804688 c 0
 871.200195312 268.80078125 890.3984375 302.400390625 892.799804688 309.599609375 c 0
 909.6015625 350.3984375 921.599609375 403.200195312 928.799804688 468 c 0
 936 532.799804688 940.798828125 579.599609375 943.200195312 608.400390625 c 0
 943.200195312 634.798828125 940.798828125 656.3984375 936 673.200195312 c 0
 931.201171875 690.000976562 924.000976562 706.802734375 914.400390625 723.599609375 c 0
 895.201171875 757.19921875 861.598632812 774 813.599609375 774 c 0
 763.200195312 774 728.3984375 757.19921875 709.200195312 723.599609375 c 0
82.7998046875 446.400390625 m 1
 0 446.400390625 l 1
 79.2001953125 600.000976562 153.6015625 721.19921875 223.200195312 810 c 0
 292.798828125 898.80078125 384.000976562 944.3984375 496.799804688 946.799804688 c 0
 518.400390625 946.799804688 540 931.201171875 561.599609375 900 c 1
 585.6015625 875.999023438 597.599609375 843.598632812 597.599609375 802.799804688 c 1
 684 853.200195312 l 1
 774 900 l 1
 817.200195312 916.80078125 861.598632812 925.200195312 907.200195312 925.200195312 c 0
 993.599609375 925.200195312 1063.19921875 891.6015625 1116 824.400390625 c 0
 1153.29980469 776.930664062 1178.02050781 716.885742188 1190.17089844 644.266601562 c 1
 1229.15917969 708.357421875 1266.8359375 763.599609375 1303.20019531 810 c 0
 1372.79882812 898.80078125 1464.00097656 944.3984375 1576.79980469 946.799804688 c 0
 1598.40039062 946.799804688 1620 931.201171875 1641.59960938 900 c 1
 1665.6015625 875.999023438 1677.59960938 843.598632812 1677.59960938 802.799804688 c 1
 1764 853.200195312 l 1
 1854 900 l 1
 1897.20019531 916.80078125 1941.59863281 925.200195312 1987.20019531 925.200195312 c 0
 2073.59960938 925.200195312 2143.19921875 891.6015625 2196 824.400390625 c 0
 2248.80078125 757.19921875 2276.3984375 664.80078125 2278.79980469 547.200195312 c 0
 2278.79980469 496.799804688 2275.20019531 451.19921875 2268 410.400390625 c 0
 2260.79980469 369.6015625 2248.80078125 334.799804688 2232 306 c 0
 2215.19921875 277.200195312 2192.40039062 244.799804688 2163.59960938 208.799804688 c 0
 2113.20019531 144 2056.79882812 93.599609375 1994.40039062 57.599609375 c 0
 1932.00097656 21.599609375 1867.20117188 3.599609375 1800 3.599609375 c 0
 1768.79882812 3.599609375 1729.19921875 15.5986328125 1681.20019531 39.599609375 c 0
 1662.00097656 51.5986328125 1644.00097656 63.6015625 1627.20019531 75.599609375 c 0
 1610.3984375 87.5986328125 1594.79980469 104.400390625 1580.40039062 126 c 1
 1378.79980469 -442.799804688 l 1
 1368 -457.200195312 l 1
 1377.6015625 -481.201171875 1392.00097656 -494.3984375 1411.20019531 -496.799804688 c 2
 1526.40039062 -496.799804688 l 1
 1526.40039062 -601.200195312 l 1
 903.599609375 -601.200195312 l 1
 903.599609375 -496.799804688 l 1
 979.200195312 -496.799804688 l 2
 993.599609375 -496.799804688 1010.40136719 -490.798828125 1029.59960938 -478.799804688 c 1
 1044 -464.400390625 1054.79980469 -447.598632812 1062 -428.400390625 c 2
 1490.40039062 763.200195312 l 1
 1490.40039062 784.799804688 l 1
 1479.59960938 820.799804688 l 1
 1458 831.599609375 l 1
 1426.79882812 831.599609375 1396.79980469 817.200195312 1368 788.400390625 c 0
 1339.20019531 759.599609375 1311.59863281 722.401367188 1285.20019531 676.799804688 c 2
 1245.59960938 615.599609375 l 1
 1209.59960938 543.599609375 l 1
 1198.45117188 520.44140625 l 1
 1197.38476562 480.53515625 1193.90429688 443.8515625 1188 410.400390625 c 0
 1180.79980469 369.6015625 1168.80078125 334.799804688 1152 306 c 0
 1135.19921875 277.200195312 1112.40039062 244.799804688 1083.59960938 208.799804688 c 0
 1033.20019531 144 976.798828125 93.599609375 914.400390625 57.599609375 c 0
 852.000976562 21.599609375 787.201171875 3.599609375 720 3.599609375 c 0
 688.798828125 3.599609375 649.19921875 15.5986328125 601.200195312 39.599609375 c 0
 582.000976562 51.5986328125 564.000976562 63.6015625 547.200195312 75.599609375 c 0
 530.3984375 87.5986328125 514.799804688 104.400390625 500.400390625 126 c 1
 298.799804688 -442.799804688 l 1
 288 -457.200195312 l 1
 297.6015625 -481.201171875 312.000976562 -494.3984375 331.200195312 -496.799804688 c 2
 446.400390625 -496.799804688 l 1
 446.400390625 -601.200195312 l 1
 -176.400390625 -601.200195312 l 1
 -176.400390625 -496.799804688 l 1
 -100.799804688 -496.799804688 l 2
 -86.400390625 -496.799804688 -69.5986328125 -490.798828125 -50.400390625 -478.799804688 c 1
 -36 -464.400390625 -25.2001953125 -447.598632812 -18 -428.400390625 c 2
 410.400390625 763.200195312 l 1
 410.400390625 784.799804688 l 1
 399.599609375 820.799804688 l 1
 378 831.599609375 l 1
 346.798828125 831.599609375 316.799804688 817.200195312 288 788.400390625 c 0
 259.200195312 759.599609375 231.598632812 722.401367188 205.200195312 676.799804688 c 2
 165.599609375 615.599609375 l 1
 129.599609375 543.599609375 l 1
 82.7998046875 446.400390625 l 1
EndSplineSet
EndChar

StartChar: uniE52C
Encoding: 58668 58668 66
Width: 2661
Flags: HW
LayerCount: 2
Fore
SplineSet
2178 3.599609375 m 0
 2099.08398438 3.599609375 1996.74707031 68.478515625 1958.40039062 126 c 1
 1756.79980469 -442.799804688 l 1
 1746 -457.200195312 l 1
 1755.6015625 -481.201171875 1770.00097656 -494.3984375 1789.20019531 -496.799804688 c 2
 1904.40039062 -496.799804688 l 1
 1904.40039062 -601.200195312 l 1
 1281.59960938 -601.200195312 l 1
 1281.59960938 -496.799804688 l 1
 1357.20019531 -496.799804688 l 2
 1371.59960938 -496.799804688 1388.40136719 -490.798828125 1407.59960938 -478.799804688 c 1
 1422 -464.400390625 1432.79980469 -447.598632812 1440 -428.400390625 c 2
 1868.40039062 763.200195312 l 1
 1868.40039062 784.799804688 l 1
 1857.59960938 820.799804688 l 1
 1836 831.599609375 l 1
 1754.75488281 831.599609375 1699.74316406 739.922851562 1663.20019531 676.799804688 c 1
 1623.59960938 615.599609375 l 1
 1587.59960938 543.599609375 l 1
 1542.13574219 436.662109375 1498.52832031 327.872070312 1454.40039062 219.599609375 c 0
 1422.75976562 141.817382812 1342.79980469 57.599609375 1296 10.7998046875 c 0
 1249.20019531 -36 1191.59960938 -61.2001953125 1130.40039062 -64.7998046875 c 1
 1065.59960938 -64.7998046875 1008 -46.7998046875 954 -14.400390625 c 1
 896.400390625 39.599609375 l 1
 885.599609375 64.7998046875 878.400390625 82.7998046875 878.400390625 100.799804688 c 1
 950.400390625 327.599609375 1036.79980469 547.200195312 1112.40039062 770.400390625 c 1
 1112.40039062 795.599609375 1094.40039062 813.599609375 1058.40039062 817.200195312 c 1
 1000.79980469 817.200195312 946.799804688 763.200195312 900 655.200195312 c 1
 669.599609375 0 l 1
 414 0 l 1
 691.200195312 770.400390625 l 1
 691.200195312 802.799804688 669.599609375 817.200195312 630 817.200195312 c 0
 597.599609375 817.200195312 568.799804688 802.799804688 550.799804688 777.599609375 c 0
 532.799804688 752.400390625 507.599609375 709.200195312 478.799804688 655.200195312 c 1
 248.400390625 0 l 1
 0 0 l 1
 277.200195312 756 l 1
 277.200195312 770.400390625 l 2
 277.200195312 806.400390625 259.200195312 813.599609375 234 828 c 1
 144 828 46.7998046875 658.799804688 -3.599609375 565.200195312 c 0
 -21.599609375 532.799804688 -46.7998046875 482.400390625 -79.2001953125 414 c 1
 -158.400390625 414 l 1
 -90 554.400390625 -14.400390625 687.599609375 72 799.200195312 c 0
 147.599609375 896.400390625 241.200195312 943.200195312 356.400390625 943.200195312 c 0
 432 943.200195312 468 874.799804688 478.799804688 795.599609375 c 1
 547.200195312 856.799804688 601.200195312 892.799804688 640.799804688 910.799804688 c 0
 680.400390625 932.400390625 727.200195312 943.200195312 781.200195312 943.200195312 c 0
 856.799804688 943.200195312 896.400390625 874.799804688 907.200195312 795.599609375 c 1
 986.400390625 856.799804688 1083.59960938 943.200195312 1213.20019531 943.200195312 c 0
 1288.79980469 943.200195312 1368 892.799804688 1368 817.200195312 c 2
 1368 792 l 1
 1141.20019531 133.200195312 l 1
 1141.20019531 86.400390625 1155.59960938 61.2001953125 1184.40039062 57.599609375 c 0
 1213.20019531 57.599609375 1245.59960938 75.599609375 1278 111.599609375 c 0
 1310.40039062 147.599609375 1332 169.200195312 1335.59960938 172.799804688 c 0
 1350 198 1402.62109375 286.811523438 1407.59960938 298.799804688 c 2
 1504.79980469 532.799804688 l 1
 1584 686.401367188 1611.6015625 721.19921875 1681.20019531 810 c 0
 1750.79882812 898.80078125 1842.00097656 944.3984375 1954.79980469 946.799804688 c 0
 2004.86132812 946.799804688 2055.59960938 863.622070312 2055.59960938 802.799804688 c 1
 2142 853.200195312 l 1
 2232 900 l 1
 2275.20019531 916.80078125 2319.59863281 925.200195312 2365.20019531 925.200195312 c 0
 2560.15429688 925.200195312 2652.609375 752.432617188 2656.79980469 547.200195312 c 0
 2656.79980469 379.51171875 2616.57714844 302.51953125 2541.59960938 208.799804688 c 0
 2460.58203125 104.631835938 2341.95800781 3.599609375 2178 3.599609375 c 0
2401.20019531 608.400390625 m 0
 2401.20019531 702.802734375 2364.86523438 774 2271.59960938 774 c 0
 2221.20019531 774 2186.3984375 757.19921875 2167.20019531 723.599609375 c 0
 2124 649.19921875 2089.19921875 562.798828125 2062.79980469 464.400390625 c 1
 2038.79882812 356.400390625 2026.79980469 281.999023438 2026.79980469 241.200195312 c 0
 2026.79980469 154.799804688 2053.19921875 111.599609375 2106 111.599609375 c 0
 2202.47265625 111.599609375 2252.34765625 149.787109375 2293.20019531 208.799804688 c 1
 2363.48632812 325.947265625 2370.8125 324.114257812 2386.79980469 468 c 0
 2394 532.799804688 2398.79882812 579.599609375 2401.20019531 608.400390625 c 0
EndSplineSet
EndChar

StartChar: uniE52D
Encoding: 58669 58669 67
Width: 2301
Flags: HW
LayerCount: 2
Fore
SplineSet
1119.59960938 -248.400390625 m 0
 1196.58984375 -248.400390625 1245.59960938 -359.717773438 1245.59960938 -432 c 0
 1245.59960938 -504.407226562 1200.22949219 -546.530273438 1170 -594 c 128
 1153.20996094 -620.3984375 1140.01171875 -637.200195312 1130.40039062 -644.400390625 c 0
 1110.52441406 -670.907226562 1125.58300781 -680.27734375 1162.79980469 -684 c 1
 1289.07324219 -684 1357.99902344 -487.799804688 1404 -363.599609375 c 128
 1428.00097656 -298.799804688 1446.00097656 -236.401367188 1458 -176.400390625 c 0
 1532.54199219 141.458007812 1597.19042969 469.209960938 1666.79980469 792 c 1
 1458 792 l 1
 1458 928.799804688 l 1
 1710 928.799804688 l 1
 1758.34472656 1065.04882812 1792.64550781 1161.58007812 1854 1256.40039062 c 0
 1928.39746094 1364.40039062 2006.3984375 1447.20019531 2088 1504.79980469 c 128
 2169.6015625 1562.40039062 2259.6015625 1591.20019531 2358 1591.20019531 c 0
 2459.94433594 1591.20019531 2522.14160156 1541.97363281 2541.59960938 1454.40039062 c 2
 2556 1396.79980469 l 1
 2556 1277.5 2552.38964844 1267.17480469 2509.20019531 1180.79980469 c 0
 2497.90332031 1155.38378906 2446.62109375 1090.60546875 2397.59960938 1083.59960938 c 128
 2380.79882812 1081.19921875 2360.40136719 1081.19921875 2336.40039062 1083.59960938 c 0
 2291.01855469 1093.68359375 2276.76269531 1147.00292969 2268 1195.20019531 c 1
 2268 1293.40820312 2308.76953125 1354.37792969 2372.40039062 1396.79980469 c 2
 2422.79980469 1432.79980469 l 1
 2422.79980469 1464.00097656 2401.20019531 1483.20019531 2358 1490.40039062 c 0
 2310.00097656 1495.18847656 2269.19921875 1485.58691406 2235.59960938 1461.59960938 c 128
 2202.00097656 1437.59863281 2167.20019531 1386 2131.20019531 1306.79980469 c 1
 2106.30957031 1242.79882812 2037.95996094 1004.8359375 2019.59960938 936 c 1
 2296.79980469 936 l 1
 2296.79980469 792 l 1
 1990.79980469 792 l 1
 1922.34960938 400.301757812 1774.58007812 -124.41015625 1620 -421.200195312 c 0
 1534.83496094 -587.275390625 1388.51269531 -802.799804688 1198.79980469 -802.799804688 c 0
 1038.17871094 -802.799804688 943.200195312 -670.741210938 943.200195312 -504 c 0
 943.200195312 -389.440429688 998.319335938 -248.400390625 1119.59960938 -248.400390625 c 0
1213.20019531 943.200195312 m 0
 1288.79980469 943.200195312 1368 892.799804688 1368 817.200195312 c 2
 1368 792 l 1
 1141.20019531 133.200195312 l 1
 1141.20019531 86.400390625 1155.59960938 61.2001953125 1184.40039062 57.599609375 c 0
 1213.20019531 57.599609375 1245.59960938 75.599609375 1278 111.599609375 c 128
 1310.40039062 147.599609375 1332 169.200195312 1335.59960938 172.799804688 c 0
 1350 198 1402.67871094 286.787109375 1407.59960938 298.799804688 c 2
 1458 446.400390625 l 1
 1540.79980469 446.400390625 l 1
 1454.40039062 219.599609375 l 2
 1424.50585938 141.130859375 1342.79980469 57.599609375 1296 10.7998046875 c 128
 1249.20019531 -36 1191.59960938 -61.2001953125 1130.40039062 -64.7998046875 c 1
 1065.59960938 -64.7998046875 1008 -46.7998046875 954 -14.400390625 c 1
 896.400390625 39.599609375 l 1
 885.599609375 64.7998046875 878.400390625 82.7998046875 878.400390625 100.799804688 c 1
 950.400390625 327.599609375 1036.79980469 547.200195312 1112.40039062 770.400390625 c 1
 1112.40039062 795.599609375 1094.40039062 813.599609375 1058.40039062 817.200195312 c 1
 1000.79980469 817.200195312 946.799804688 763.200195312 900 655.200195312 c 1
 669.599609375 0 l 1
 414 0 l 1
 691.200195312 770.400390625 l 1
 691.200195312 802.799804688 669.599609375 817.200195312 630 817.200195312 c 0
 597.599609375 817.200195312 568.799804688 802.799804688 550.799804688 777.599609375 c 128
 532.799804688 752.400390625 507.599609375 709.200195312 478.799804688 655.200195312 c 1
 248.400390625 0 l 1
 0 0 l 1
 277.200195312 756 l 1
 277.200195312 770.400390625 l 2
 277.200195312 806.400390625 259.200195312 813.599609375 234 828 c 1
 144 828 46.7998046875 658.799804688 -3.599609375 565.200195312 c 0
 -21.599609375 532.799804688 -46.7998046875 482.400390625 -79.2001953125 414 c 1
 -158.400390625 414 l 1
 -90 554.400390625 -14.400390625 687.599609375 72 799.200195312 c 0
 147.599609375 896.400390625 241.200195312 943.200195312 356.400390625 943.200195312 c 0
 432 943.200195312 468 874.799804688 478.799804688 795.599609375 c 1
 547.200195312 856.799804688 601.200195312 892.799804688 640.799804688 910.799804688 c 0
 680.400390625 932.400390625 727.200195312 943.200195312 781.200195312 943.200195312 c 0
 856.799804688 943.200195312 896.400390625 874.799804688 907.200195312 795.599609375 c 1
 986.400390625 856.799804688 1083.59960938 943.200195312 1213.20019531 943.200195312 c 0
EndSplineSet
EndChar

StartChar: uniE52E
Encoding: 58670 58670 68
Width: 2039
Flags: HW
LayerCount: 2
Fore
SplineSet
860.400390625 -248.400390625 m 0
 937.389648438 -248.400390625 986.400390625 -359.717773438 986.400390625 -432 c 0
 986.400390625 -504.407226562 941.029296875 -546.530273438 910.799804688 -594 c 128
 894.009765625 -620.3984375 880.811523438 -637.200195312 871.200195312 -644.400390625 c 0
 851.32421875 -670.903320312 866.3828125 -680.27734375 903.599609375 -684 c 1
 1029.87402344 -684 1098.79882812 -487.799804688 1144.79980469 -363.599609375 c 128
 1168.80078125 -298.799804688 1186.80078125 -236.401367188 1198.79980469 -176.400390625 c 0
 1273.34179688 141.458007812 1337.99023438 469.209960938 1407.59960938 792 c 1
 1198.79980469 792 l 1
 1198.79980469 928.799804688 l 1
 1450.79980469 928.799804688 l 1
 1499.14453125 1065.04882812 1533.4453125 1161.57617188 1594.79980469 1256.40039062 c 0
 1669.19726562 1364.40039062 1747.19921875 1447.20019531 1828.79980469 1504.79980469 c 128
 1910.40136719 1562.40039062 2000.40136719 1591.20019531 2098.79980469 1591.20019531 c 0
 2200.74511719 1591.20019531 2262.94238281 1541.97363281 2282.40039062 1454.40039062 c 2
 2296.79980469 1396.79980469 l 1
 2296.79980469 1277.5 2293.18945312 1267.17480469 2250 1180.79980469 c 0
 2238.703125 1155.38378906 2187.42089844 1090.60546875 2138.40039062 1083.59960938 c 128
 2121.59863281 1081.19921875 2101.20117188 1081.19921875 2077.20019531 1083.59960938 c 0
 2031.81835938 1093.68359375 2017.5625 1147.00292969 2008.79980469 1195.20019531 c 1
 2008.79980469 1293.40820312 2049.5703125 1354.37792969 2113.20019531 1396.79980469 c 2
 2163.59960938 1432.79980469 l 1
 2163.59960938 1464.00097656 2142 1483.20019531 2098.79980469 1490.40039062 c 0
 2050.80078125 1495.18847656 2009.99902344 1485.58691406 1976.40039062 1461.59960938 c 128
 1942.80078125 1437.59863281 1908 1386 1872 1306.79980469 c 1
 1847.109375 1242.79882812 1778.75976562 1004.8359375 1760.40039062 936 c 1
 2037.59960938 936 l 1
 2037.59960938 792 l 1
 1731.59960938 792 l 1
 1663.14941406 400.301757812 1515.38085938 -124.41015625 1360.79980469 -421.200195312 c 0
 1275.63476562 -587.275390625 1129.3125 -802.799804688 939.599609375 -802.799804688 c 0
 778.978515625 -802.799804688 684 -670.741210938 684 -504 c 0
 684 -389.440429688 739.119140625 -248.400390625 860.400390625 -248.400390625 c 0
720 3.599609375 m 0
 641.083984375 3.599609375 538.747070312 68.478515625 500.400390625 126 c 1
 298.799804688 -442.799804688 l 1
 288 -457.200195312 l 1
 297.6015625 -481.201171875 312.000976562 -494.3984375 331.200195312 -496.799804688 c 2
 446.400390625 -496.799804688 l 1
 446.400390625 -601.200195312 l 1
 -176.400390625 -601.200195312 l 1
 -176.400390625 -496.799804688 l 1
 -100.799804688 -496.799804688 l 2
 -86.400390625 -496.799804688 -69.5986328125 -490.798828125 -50.400390625 -478.799804688 c 1
 -36 -464.400390625 -25.2001953125 -447.598632812 -18 -428.400390625 c 2
 410.400390625 763.200195312 l 1
 410.400390625 784.799804688 l 1
 399.599609375 820.799804688 l 1
 378 831.599609375 l 1
 296.752929688 831.599609375 241.7421875 739.922851562 205.200195312 676.799804688 c 1
 165.599609375 615.599609375 l 1
 137.322265625 559.875976562 110.0078125 503.193359375 82.7998046875 446.400390625 c 1
 0 446.400390625 l 1
 79.2001953125 600.000976562 153.6015625 721.19921875 223.200195312 810 c 128
 292.798828125 898.80078125 384.000976562 944.3984375 496.799804688 946.799804688 c 0
 546.861328125 946.799804688 597.599609375 863.622070312 597.599609375 802.799804688 c 1
 684 853.200195312 l 1
 774 900 l 1
 817.200195312 916.80078125 861.598632812 925.200195312 907.200195312 925.200195312 c 0
 1102.15429688 925.200195312 1194.609375 752.428710938 1198.79980469 547.200195312 c 0
 1198.79980469 379.51171875 1158.57714844 302.51953125 1083.59960938 208.799804688 c 0
 1002.58203125 104.631835938 883.958007812 3.599609375 720 3.599609375 c 0
943.200195312 608.400390625 m 0
 943.200195312 702.802734375 906.869140625 774 813.599609375 774 c 0
 763.200195312 774 728.3984375 757.19921875 709.200195312 723.599609375 c 0
 666 649.19921875 631.19921875 562.798828125 604.799804688 464.400390625 c 1
 580.798828125 356.400390625 568.799804688 281.999023438 568.799804688 241.200195312 c 0
 568.799804688 154.799804688 595.19921875 111.599609375 648 111.599609375 c 0
 744.4765625 111.599609375 794.34765625 149.787109375 835.200195312 208.799804688 c 1
 905.486328125 325.948242188 912.8125 324.11328125 928.799804688 468 c 128
 936 532.799804688 940.798828125 579.599609375 943.200195312 608.400390625 c 0
EndSplineSet
EndChar

StartChar: uniE52F
Encoding: 58671 58671 69
Width: 1733
Flags: HW
LayerCount: 2
Fore
SplineSet
1998 1353.59960938 m 1
 1998 1216.19921875 1929.69042969 1107.921875 1818 1080 c 1
 1753.20019531 1080 1717.20019531 1118.40136719 1710 1195.20019531 c 1
 1710 1299.56738281 1774.29199219 1380.12109375 1843.20019531 1418.40039062 c 0
 1855.19921875 1428.00097656 1861.20019531 1435.20117188 1861.20019531 1440 c 2
 1839.59960938 1472.40039062 l 1
 1822.79882812 1484.3984375 1802.40136719 1490.40039062 1778.40039062 1490.40039062 c 0
 1644.00097656 1490.40039062 1538.3984375 1303.20019531 1461.59960938 928.799804688 c 1
 1731.59960938 928.799804688 l 1
 1731.59960938 792 l 1
 1432.79980469 792 l 1
 1380.3046875 456.84765625 1221.87207031 -107.02734375 1101.59960938 -352.799804688 c 128
 1046.40136719 -465.598632812 986.400390625 -561.599609375 921.599609375 -640.799804688 c 1
 864 -717.598632812 788.400390625 -769.197265625 694.799804688 -795.599609375 c 1
 626.400390625 -802.799804688 l 1
 470.606445312 -802.799804688 388.799804688 -657.384765625 388.799804688 -489.599609375 c 0
 388.799804688 -349.723632812 454.935546875 -299.143554688 547.200195312 -248.400390625 c 1
 633.434570312 -248.400390625 684 -338.85546875 684 -424.799804688 c 0
 684 -477.6015625 645.598632812 -555.598632812 568.799804688 -658.799804688 c 1
 568.799804688 -675.6015625 579.599609375 -684 601.200195312 -684 c 0
 723.599609375 -684 821.999023438 -517.201171875 896.400390625 -183.599609375 c 0
 922.784179688 -79.1845703125 944.91015625 29.4912109375 968.400390625 136.799804688 c 0
 1015.53515625 354.866210938 1062.546875 573.051757812 1108.79980469 792 c 1
 529.200195312 792 l 1
 478.1953125 451.97265625 328.638671875 -77.138671875 190.799804688 -352.799804688 c 1
 73.19921875 -612 -58.798828125 -759.599609375 -205.200195312 -795.599609375 c 1
 -270 -802.799804688 l 1
 -346.791992188 -802.799804688 -405.590820312 -771.598632812 -446.400390625 -709.200195312 c 1
 -465.598632812 -687.599609375 -483.598632812 -654.000976562 -500.400390625 -608.400390625 c 1
 -506.01953125 -563.46875 -510.256835938 -539.54296875 -514.799804688 -489.599609375 c 1
 -505.626953125 -411.620117188 -504.759765625 -371.260742188 -468 -324 c 0
 -443.999023438 -292.798828125 -404.3984375 -267.598632812 -349.200195312 -248.400390625 c 1
 -266.638671875 -248.400390625 -220.336914062 -343.504882812 -216 -424.799804688 c 0
 -216 -465.80078125 -223.333984375 -486.266601562 -234 -507.599609375 c 2
 -284.400390625 -590.400390625 l 1
 -338.400390625 -658.799804688 l 1
 -338.400390625 -675.6015625 -326.401367188 -684 -302.400390625 -684 c 0
 -204.99609375 -684 -145.509765625 -579.020507812 -108 -504 c 1
 -57.599609375 -374.400390625 l 1
 -3.599609375 -183.599609375 l 1
 47.5712890625 43.62890625 96.162109375 273.438476562 144 504 c 2
 205.200195312 792 l 1
 0 792 l 1
 0 928.799804688 l 1
 252 928.799804688 l 1
 323.625 1169.26953125 436.291015625 1364.72753906 622.799804688 1501.20019531 c 1
 711.6015625 1561.20117188 811.19921875 1591.20019531 921.599609375 1591.20019531 c 0
 1039.71582031 1591.20019531 1098 1476.11914062 1098 1353.59960938 c 128
 1098 1218.32324219 1032.48339844 1098.88183594 914.400390625 1080 c 1
 854.3984375 1080 820.799804688 1118.40136719 813.599609375 1195.20019531 c 1
 813.599609375 1236.00585938 825.598632812 1280.40527344 849.599609375 1328.40039062 c 0
 873.6015625 1369.20605469 906.000976562 1399.20507812 946.799804688 1418.40039062 c 0
 958.798828125 1428.00097656 964.799804688 1435.20117188 964.799804688 1440 c 0
 940 1474.72558594 926.513671875 1490.40039062 874.799804688 1490.40039062 c 0
 795.599609375 1490.40039062 730.799804688 1433.99902344 680.400390625 1321.20019531 c 128
 630 1208.40136719 590.400390625 1080 561.599609375 936 c 1
 1152 936 l 1
 1232.8125 1235.01953125 1465.59277344 1591.20019531 1821.59960938 1591.20019531 c 0
 1950.21386719 1591.20019531 1990.52246094 1480.65820312 1998 1353.59960938 c 1
EndSplineSet
EndChar

StartChar: uniE530
Encoding: 58672 58672 70
Width: 2487
Flags: HW
LayerCount: 2
Fore
SplineSet
1306.79980469 -248.400390625 m 1
 1389.59960938 -248.400390625 1432.79980469 -331.200195312 1436.40039062 -417.599609375 c 0
 1436.40039062 -446.400390625 1422 -500.400390625 1404 -529.200195312 c 2
 1368 -583.200195312 l 2
 1342.79980469 -619.200195312 1339.20019531 -626.400390625 1321.20019531 -658.799804688 c 1
 1321.20019531 -676.799804688 1332 -684 1357.20019531 -684 c 0
 1425.59960938 -684 1483.20019531 -633.599609375 1530 -532.799804688 c 1
 1576.79980469 -417.599609375 1612.79980469 -316.799804688 1648.79980469 -183.599609375 c 1
 1699.20019531 39.599609375 1746 259.200195312 1796.40039062 482.400390625 c 1
 1861.20019531 792 l 1
 1357.20019531 792 l 1
 1306.79980469 471.599609375 1141.20019531 -129.599609375 1022.40039062 -352.799804688 c 1
 968.400390625 -464.400390625 914.400390625 -558 853.200195312 -637.200195312 c 128
 792 -716.400390625 716.400390625 -770.400390625 619.200195312 -795.599609375 c 1
 554.400390625 -802.799804688 l 1
 396 -802.799804688 313.200195312 -658.799804688 313.200195312 -489.599609375 c 0
 313.200195312 -349.200195312 378 -298.799804688 475.200195312 -248.400390625 c 1
 496.799804688 -248.400390625 514.799804688 -252 525.599609375 -262.799804688 c 1
 579.045898438 -284.178710938 608.400390625 -352.984375 608.400390625 -424.799804688 c 0
 608.400390625 -478.799804688 568.799804688 -554.400390625 493.200195312 -658.799804688 c 1
 493.200195312 -676.799804688 504 -684 525.599609375 -684 c 0
 648 -684 745.200195312 -518.400390625 820.799804688 -183.599609375 c 1
 897.926757812 135.920898438 963.979492188 467.186523438 1033.20019531 792 c 1
 525.599609375 792 l 1
 478.799804688 486 302.400390625 -126 190.799804688 -352.799804688 c 1
 72 -612 -61.2001953125 -759.599609375 -205.200195312 -795.599609375 c 1
 -273.599609375 -802.799804688 l 1
 -399.599609375 -802.799804688 -457.200195312 -716.400390625 -500.400390625 -608.400390625 c 1
 -518.400390625 -489.599609375 l 1
 -500.400390625 -349.200195312 -471.599609375 -291.599609375 -352.799804688 -248.400390625 c 1
 -270 -248.400390625 -216 -342 -216 -424.799804688 c 0
 -216 -453.599609375 -223.200195312 -482.400390625 -237.599609375 -507.599609375 c 2
 -288 -590.400390625 l 1
 -338.400390625 -658.799804688 l 1
 -338.400390625 -676.799804688 -327.599609375 -684 -302.400390625 -684 c 0
 -262.799804688 -684 -226.799804688 -666 -194.400390625 -630 c 1
 -129.599609375 -576 -100.799804688 -464.400390625 -61.2001953125 -374.400390625 c 1
 -7.2001953125 -183.599609375 l 1
 54 93.599609375 115.200195312 374.400390625 172.799804688 655.200195312 c 128
 183.599609375 702 194.400390625 748.799804688 205.200195312 792 c 1
 0 792 l 1
 0 928.799804688 l 1
 248.400390625 928.799804688 l 1
 280.799804688 1047.59960938 331.200195312 1152 392.400390625 1249.20019531 c 0
 453.599609375 1350 529.200195312 1432.79980469 619.200195312 1501.20019531 c 1
 709.200195312 1562.40039062 810 1591.20019531 918 1591.20019531 c 0
 1036.79980469 1591.20019531 1094.40039062 1483.20019531 1094.40039062 1353.59960938 c 128
 1094.40039062 1216.79980469 1026 1101.59960938 914.400390625 1080 c 1
 853.200195312 1080 817.200195312 1119.59960938 810 1195.20019531 c 1
 810 1292.40039062 871.200195312 1386 943.200195312 1418.40039062 c 1
 954 1418.40039062 961.200195312 1425.59960938 961.200195312 1440 c 1
 939.599609375 1472.40039062 l 1
 921.599609375 1483.20019531 900 1490.40039062 874.799804688 1490.40039062 c 0
 792 1490.40039062 727.200195312 1432.79980469 676.799804688 1317.59960938 c 128
 626.400390625 1202.40039062 586.799804688 1076.40039062 561.599609375 936 c 1
 1080 936 l 1
 1162.79980469 1238.40039062 1386 1591.20019531 1746 1591.20019531 c 0
 1875.59960938 1591.20019531 1915.20019531 1479.59960938 1922.40039062 1353.59960938 c 1
 1922.40039062 1288.79980469 1908 1227.59960938 1875.59960938 1170 c 1
 1846.79980469 1126.79980469 1803.59960938 1098 1742.40039062 1080 c 1
 1677.59960938 1080 1641.59960938 1119.59960938 1634.40039062 1195.20019531 c 1
 1634.40039062 1299.59960938 1699.20019531 1378.79980469 1767.59960938 1418.40039062 c 1
 1778.40039062 1418.40039062 1785.59960938 1425.59960938 1785.59960938 1440 c 1
 1771.20019531 1476 1746 1490.40039062 1702.79980469 1490.40039062 c 0
 1569.59960938 1490.40039062 1461.59960938 1303.20019531 1386 928.799804688 c 1
 1904.40039062 928.799804688 l 1
 1958.40039062 1105.20019531 2044.79980469 1263.59960938 2163.59960938 1404 c 0
 2275.20019531 1533.59960938 2412 1598.40039062 2574 1598.40039062 c 0
 2696.40039062 1598.40039062 2750.40039062 1468.79980469 2750.40039062 1346.40039062 c 0
 2750.40039062 1213.20019531 2682 1101.59960938 2566.79980469 1080 c 1
 2509.20019531 1080 2476.79980469 1119.59960938 2469.59960938 1195.20019531 c 1
 2469.59960938 1288.79980469 2534.40039062 1382.40039062 2595.59960938 1418.40039062 c 1
 2610 1418.40039062 2617.20019531 1425.59960938 2617.20019531 1440 c 1
 2599.20019531 1472.40039062 2577.59960938 1490.40039062 2530.79980469 1490.40039062 c 0
 2397.59960938 1490.40039062 2289.59960938 1303.20019531 2214 928.799804688 c 1
 2487.59960938 928.799804688 l 1
 2487.59960938 792 l 1
 2181.59960938 792 l 1
 2156.40039062 633.599609375 2127.59960938 489.599609375 2088 356.400390625 c 1
 2023.20019531 86.400390625 1947.59960938 -151.200195312 1850.40039062 -352.799804688 c 1
 1796.40039062 -453.599609375 1738.79980469 -550.799804688 1670.40039062 -637.200195312 c 0
 1612.79980469 -712.799804688 1540.79980469 -766.799804688 1450.79980469 -795.599609375 c 1
 1386 -802.799804688 l 1
 1260 -802.799804688 1195.20019531 -720 1162.79980469 -608.400390625 c 1
 1148.40039062 -572.400390625 1141.20019531 -532.799804688 1141.20019531 -489.599609375 c 1
 1155.59960938 -356.400390625 1195.20019531 -284.400390625 1306.79980469 -248.400390625 c 1
EndSplineSet
EndChar

StartChar: uniE531
Encoding: 58673 58673 71
Width: 3326
Flags: HW
LayerCount: 2
Fore
SplineSet
475.200195312 -248.400390625 m 1
 564.346679688 -248.400390625 608.400390625 -336.146484375 608.400390625 -424.799804688 c 0
 608.400390625 -478.799804688 568.799804688 -554.400390625 493.200195312 -658.799804688 c 1
 493.200195312 -676.799804688 504 -684 525.599609375 -684 c 0
 648 -684 745.200195312 -518.400390625 820.799804688 -183.599609375 c 1
 897.926757812 135.920898438 963.979492188 467.186523438 1033.20019531 792 c 1
 525.599609375 792 l 1
 478.799804688 486 302.400390625 -126 190.799804688 -352.799804688 c 1
 72 -612 -61.2001953125 -759.599609375 -205.200195312 -795.599609375 c 1
 -273.599609375 -802.799804688 l 1
 -399.599609375 -802.799804688 -457.200195312 -716.400390625 -500.400390625 -608.400390625 c 1
 -518.400390625 -489.599609375 l 1
 -500.400390625 -349.200195312 -471.599609375 -291.599609375 -352.799804688 -248.400390625 c 1
 -270 -248.400390625 -216 -342 -216 -424.799804688 c 0
 -216 -453.599609375 -223.200195312 -482.400390625 -237.599609375 -507.599609375 c 2
 -288 -590.400390625 l 1
 -338.400390625 -658.799804688 l 1
 -338.400390625 -676.799804688 -327.599609375 -684 -302.400390625 -684 c 0
 -262.799804688 -684 -226.799804688 -666 -194.400390625 -630 c 1
 -129.599609375 -576 -100.799804688 -464.400390625 -61.2001953125 -374.400390625 c 1
 -7.2001953125 -183.599609375 l 1
 54 93.599609375 115.200195312 374.400390625 172.799804688 655.200195312 c 128
 183.599609375 702 194.400390625 748.799804688 205.200195312 792 c 1
 0 792 l 1
 0 928.799804688 l 1
 248.400390625 928.799804688 l 1
 312.831054688 1165.046875 446.998046875 1370.32519531 619.200195312 1501.20019531 c 1
 709.200195312 1562.40039062 810 1591.20019531 918 1591.20019531 c 0
 1036.79980469 1591.20019531 1094.40039062 1483.20019531 1094.40039062 1353.59960938 c 128
 1094.40039062 1216.79980469 1026 1101.59960938 914.400390625 1080 c 1
 853.200195312 1080 817.200195312 1119.59960938 810 1195.20019531 c 1
 810 1292.40039062 871.200195312 1386 943.200195312 1418.40039062 c 1
 954 1418.40039062 961.200195312 1425.59960938 961.200195312 1440 c 1
 939.599609375 1472.40039062 l 1
 921.599609375 1483.20019531 900 1490.40039062 874.799804688 1490.40039062 c 0
 792 1490.40039062 727.200195312 1432.79980469 676.799804688 1317.59960938 c 128
 626.400390625 1202.40039062 586.799804688 1076.40039062 561.599609375 936 c 1
 1080 936 l 1
 1162.79980469 1238.40039062 1386 1591.20019531 1746 1591.20019531 c 0
 1875.59960938 1591.20019531 1915.20019531 1479.59960938 1922.40039062 1353.59960938 c 1
 1922.40039062 1288.79980469 1908 1227.59960938 1875.59960938 1170 c 1
 1846.79980469 1126.79980469 1803.59960938 1098 1742.40039062 1080 c 1
 1677.59960938 1080 1641.59960938 1119.59960938 1634.40039062 1195.20019531 c 1
 1634.40039062 1299.59960938 1699.20019531 1378.79980469 1767.59960938 1418.40039062 c 1
 1778.40039062 1418.40039062 1785.59960938 1425.59960938 1785.59960938 1440 c 1
 1771.20019531 1476 1746 1490.40039062 1702.79980469 1490.40039062 c 0
 1569.59960938 1490.40039062 1461.59960938 1303.20019531 1386 928.799804688 c 1
 1904.40039062 928.799804688 l 1
 1958.40039062 1105.20019531 2044.79980469 1263.59960938 2163.59960938 1404 c 0
 2275.20019531 1533.59960938 2412 1598.40039062 2574 1598.40039062 c 0
 2696.40039062 1598.40039062 2750.40039062 1468.79980469 2750.40039062 1346.40039062 c 0
 2750.40039062 1213.20019531 2682 1101.59960938 2566.79980469 1080 c 1
 2509.20019531 1080 2476.79980469 1119.59960938 2469.59960938 1195.20019531 c 1
 2469.59960938 1288.79980469 2534.40039062 1382.40039062 2595.59960938 1418.40039062 c 1
 2610 1418.40039062 2617.20019531 1425.59960938 2617.20019531 1440 c 1
 2599.20019531 1472.40039062 2577.59960938 1490.40039062 2530.79980469 1490.40039062 c 0
 2397.59960938 1490.40039062 2289.59960938 1303.20019531 2214 928.799804688 c 1
 2739.59960938 928.799804688 l 1
 2787.94433594 1065.04882812 2822.24511719 1161.58007812 2883.59960938 1256.40039062 c 0
 2957.99804688 1364.40039062 3035.99902344 1447.20019531 3117.59960938 1504.79980469 c 128
 3199.20117188 1562.40039062 3289.20117188 1591.20019531 3387.59960938 1591.20019531 c 0
 3489.54492188 1591.20019531 3551.75976562 1541.97363281 3571.20019531 1454.40039062 c 2
 3585.59960938 1396.79980469 l 1
 3585.59960938 1277.5 3582 1267.17480469 3538.79980469 1180.79980469 c 0
 3527.50292969 1155.38378906 3476.22167969 1090.60546875 3427.20019531 1083.59960938 c 128
 3332.84765625 1070.11425781 3310.95605469 1121.734375 3297.59960938 1195.20019531 c 1
 3297.59960938 1293.40820312 3338.37011719 1354.37792969 3402 1396.79980469 c 2
 3452.40039062 1432.79980469 l 1
 3452.40039062 1513.99414062 3311.98535156 1495.00097656 3265.20019531 1461.59960938 c 128
 3231.6015625 1437.59863281 3196.79980469 1386 3160.79980469 1306.79980469 c 1
 3135.90917969 1242.79882812 3067.55957031 1004.8359375 3049.20019531 936 c 1
 3326.40039062 936 l 1
 3326.40039062 792 l 1
 3020.40039062 792 l 1
 2951.94921875 400.301757812 2804.18066406 -124.411132812 2649.59960938 -421.200195312 c 0
 2564.43457031 -587.275390625 2418.11328125 -802.799804688 2228.40039062 -802.799804688 c 0
 2067.77832031 -802.799804688 1972.79980469 -670.741210938 1972.79980469 -504 c 0
 1972.79980469 -389.440429688 2027.91601562 -248.400390625 2149.20019531 -248.400390625 c 0
 2226.18945312 -248.400390625 2275.20019531 -359.71875 2275.20019531 -432 c 0
 2275.20019531 -504.407226562 2229.83300781 -546.526367188 2199.59960938 -594 c 128
 2174.75976562 -633.056640625 2112.69921875 -676.029296875 2192.40039062 -684 c 1
 2318.66992188 -684 2387.59570312 -487.799804688 2433.59960938 -363.599609375 c 128
 2457.6015625 -298.799804688 2475.6015625 -236.401367188 2487.59960938 -176.400390625 c 0
 2562.14160156 141.458007812 2626.79003906 469.209960938 2696.40039062 792 c 1
 2181.59960938 792 l 1
 2156.40039062 633.599609375 2127.59960938 489.599609375 2088 356.400390625 c 1
 2023.20019531 86.400390625 1947.59960938 -151.200195312 1850.40039062 -352.799804688 c 1
 1796.40039062 -453.599609375 1738.79980469 -550.799804688 1670.40039062 -637.200195312 c 0
 1612.79980469 -712.799804688 1540.79980469 -766.799804688 1450.79980469 -795.599609375 c 1
 1386 -802.799804688 l 1
 1260 -802.799804688 1195.20019531 -720 1162.79980469 -608.400390625 c 1
 1148.40039062 -572.400390625 1141.20019531 -532.799804688 1141.20019531 -489.599609375 c 1
 1155.59960938 -356.400390625 1195.20019531 -284.400390625 1306.79980469 -248.400390625 c 1
 1389.59960938 -248.400390625 1432.79980469 -331.200195312 1436.40039062 -417.599609375 c 0
 1436.40039062 -446.400390625 1422 -500.400390625 1404 -529.200195312 c 2
 1368 -583.200195312 l 2
 1342.79980469 -619.200195312 1339.20019531 -626.400390625 1321.20019531 -658.799804688 c 1
 1321.20019531 -676.799804688 1332 -684 1357.20019531 -684 c 0
 1425.59960938 -684 1483.20019531 -633.599609375 1530 -532.799804688 c 1
 1576.79980469 -417.599609375 1612.79980469 -316.799804688 1648.79980469 -183.599609375 c 1
 1699.20019531 39.599609375 1746 259.200195312 1796.40039062 482.400390625 c 1
 1861.20019531 792 l 1
 1357.20019531 792 l 1
 1306.79980469 471.599609375 1141.20019531 -129.599609375 1022.40039062 -352.799804688 c 1
 968.400390625 -464.400390625 914.400390625 -558 853.200195312 -637.200195312 c 128
 792 -716.400390625 716.400390625 -770.400390625 619.200195312 -795.599609375 c 1
 554.400390625 -802.799804688 l 1
 396 -802.799804688 313.200195312 -658.799804688 313.200195312 -489.599609375 c 0
 313.200195312 -349.200195312 378 -298.799804688 475.200195312 -248.400390625 c 1
EndSplineSet
EndChar

StartChar: uniE532
Encoding: 58674 58674 72
Width: 4169
Flags: HW
LayerCount: 2
Fore
SplineSet
2815.20019531 -504 m 0
 2815.20019531 -670.7265625 2910.18261719 -802.799804688 3070.79980469 -802.799804688 c 0
 3260.20703125 -802.799804688 3407.06835938 -586.818359375 3492 -421.200195312 c 0
 3646.15234375 -125.26171875 3794.5078125 401.23828125 3862.79980469 792 c 1
 4168.79980469 792 l 1
 4168.79980469 936 l 1
 3891.59960938 936 l 1
 3909.92382812 1004.62304688 3978.43164062 1243.1484375 4003.20019531 1306.79980469 c 1
 4039.20019531 1386 4074.01171875 1437.59863281 4107.59960938 1461.59960938 c 128
 4141.18847656 1485.58691406 4182.01171875 1495.18847656 4230 1490.40039062 c 0
 4273.20019531 1483.20019531 4294.79980469 1464.00097656 4294.79980469 1432.79980469 c 1
 4269.59960938 1414.79980469 4269.59960938 1414.79980469 4244.40039062 1396.79980469 c 0
 4180.71582031 1354.34863281 4140 1293.46875 4140 1195.20019531 c 1
 4153.3203125 1121.77050781 4174.95605469 1070.08203125 4269.59960938 1083.59960938 c 128
 4318.59570312 1090.59863281 4369.93164062 1155.45605469 4381.20019531 1180.79980469 c 0
 4424.36425781 1267.15332031 4428 1277.46386719 4428 1396.79980469 c 1
 4413.59960938 1454.40039062 l 2
 4402.87207031 1502.85644531 4350.88769531 1567.703125 4312.79980469 1580.40039062 c 128
 4291.20019531 1587.59960938 4263.58789062 1591.20019531 4230 1591.20019531 c 0
 4131.61230469 1591.20019531 4041.61230469 1562.40039062 3960 1504.79980469 c 128
 3836.37597656 1417.56152344 3717.90039062 1272.56054688 3646.79980469 1098 c 0
 3629.98828125 1059.59863281 3608.38769531 1003.20117188 3582 928.799804688 c 1
 3049.20019531 928.799804688 l 1
 3067.55957031 997.635742188 3135.90917969 1242.79882812 3160.79980469 1306.79980469 c 1
 3196.79980469 1386 3231.6015625 1437.59863281 3265.20019531 1461.59960938 c 128
 3312.10449219 1495.08691406 3452.40039062 1514.03417969 3452.40039062 1432.79980469 c 1
 3402 1396.79980469 l 2
 3338.37011719 1354.37792969 3297.59960938 1293.40820312 3297.59960938 1195.20019531 c 1
 3310.9453125 1121.80664062 3332.54199219 1070.07128906 3427.20019531 1083.59960938 c 128
 3476.22167969 1090.60546875 3527.50292969 1155.38378906 3538.79980469 1180.79980469 c 0
 3582 1267.17480469 3585.59960938 1277.5 3585.59960938 1396.79980469 c 1
 3571.20019531 1454.40039062 l 2
 3551.75976562 1541.97363281 3489.54492188 1591.20019531 3387.59960938 1591.20019531 c 0
 3289.20117188 1591.20019531 3199.20117188 1562.40039062 3117.59960938 1504.79980469 c 128
 3035.99902344 1447.20019531 2957.99804688 1364.40039062 2883.59960938 1256.40039062 c 0
 2822.24511719 1161.58007812 2787.94433594 1065.04882812 2739.59960938 928.799804688 c 1
 2214 928.799804688 l 1
 2289.59960938 1303.20019531 2397.59960938 1490.40039062 2530.79980469 1490.40039062 c 0
 2577.59960938 1490.40039062 2599.20019531 1472.40039062 2617.20019531 1440 c 1
 2617.20019531 1425.59960938 2610 1418.40039062 2595.59960938 1418.40039062 c 1
 2534.40039062 1382.40039062 2469.59960938 1288.79980469 2469.59960938 1195.20019531 c 1
 2476.79980469 1119.59960938 2509.20019531 1080 2566.79980469 1080 c 1
 2682 1101.59960938 2750.40039062 1213.20019531 2750.40039062 1346.40039062 c 0
 2750.40039062 1468.79980469 2696.40039062 1598.40039062 2574 1598.40039062 c 0
 2412 1598.40039062 2275.20019531 1533.59960938 2163.59960938 1404 c 0
 2044.79980469 1263.59960938 1958.40039062 1105.20019531 1904.40039062 928.799804688 c 1
 1386 928.799804688 l 1
 1461.59960938 1303.20019531 1569.59960938 1490.40039062 1702.79980469 1490.40039062 c 0
 1746 1490.40039062 1771.20019531 1476 1785.59960938 1440 c 1
 1785.59960938 1425.59960938 1778.40039062 1418.40039062 1767.59960938 1418.40039062 c 1
 1699.20019531 1378.79980469 1634.40039062 1299.59960938 1634.40039062 1195.20019531 c 1
 1641.59960938 1119.59960938 1677.59960938 1080 1742.40039062 1080 c 1
 1803.59960938 1098 1846.79980469 1126.79980469 1875.59960938 1170 c 1
 1908 1227.59960938 1922.40039062 1288.79980469 1922.40039062 1353.59960938 c 1
 1915.20019531 1479.59960938 1875.59960938 1591.20019531 1746 1591.20019531 c 0
 1386 1591.20019531 1162.79980469 1238.40039062 1080 936 c 1
 561.599609375 936 l 1
 586.799804688 1076.40039062 626.400390625 1202.40039062 676.799804688 1317.59960938 c 128
 727.200195312 1432.79980469 792 1490.40039062 874.799804688 1490.40039062 c 0
 900 1490.40039062 921.599609375 1483.20019531 939.599609375 1472.40039062 c 1
 961.200195312 1440 l 1
 961.200195312 1425.59960938 954 1418.40039062 943.200195312 1418.40039062 c 1
 871.200195312 1386 810 1292.40039062 810 1195.20019531 c 1
 817.200195312 1119.59960938 853.200195312 1080 914.400390625 1080 c 1
 1026 1101.59960938 1094.40039062 1216.79980469 1094.40039062 1353.59960938 c 128
 1094.40039062 1483.20019531 1036.79980469 1591.20019531 918 1591.20019531 c 0
 810 1591.20019531 709.200195312 1562.40039062 619.200195312 1501.20019531 c 1
 446.951171875 1370.29003906 312.827148438 1165.03222656 248.400390625 928.799804688 c 1
 0 928.799804688 l 1
 0 792 l 1
 205.200195312 792 l 1
 194.400390625 748.799804688 183.599609375 702 172.799804688 655.200195312 c 128
 115.200195312 374.400390625 54 93.599609375 -7.2001953125 -183.599609375 c 1
 -61.2001953125 -374.400390625 l 1
 -100.799804688 -464.400390625 -129.599609375 -576 -194.400390625 -630 c 1
 -226.799804688 -666 -262.799804688 -684 -302.400390625 -684 c 0
 -327.599609375 -684 -338.400390625 -676.799804688 -338.400390625 -658.799804688 c 1
 -288 -590.400390625 l 1
 -237.599609375 -507.599609375 l 2
 -223.200195312 -482.400390625 -216 -453.599609375 -216 -424.799804688 c 0
 -216 -342 -270 -248.400390625 -352.799804688 -248.400390625 c 1
 -471.599609375 -291.599609375 -500.400390625 -349.200195312 -518.400390625 -489.599609375 c 1
 -500.400390625 -608.400390625 l 1
 -457.200195312 -716.400390625 -399.599609375 -802.799804688 -273.599609375 -802.799804688 c 1
 -205.200195312 -795.599609375 l 1
 -61.2001953125 -759.599609375 72 -612 190.799804688 -352.799804688 c 1
 302.400390625 -126 478.799804688 486 525.599609375 792 c 1
 1033.20019531 792 l 1
 963.979492188 467.186523438 897.926757812 135.920898438 820.799804688 -183.599609375 c 1
 745.200195312 -518.400390625 648 -684 525.599609375 -684 c 0
 504 -684 493.200195312 -676.799804688 493.200195312 -658.799804688 c 1
 568.799804688 -554.400390625 608.400390625 -478.799804688 608.400390625 -424.799804688 c 0
 608.400390625 -352.982421875 579.045898438 -284.178710938 525.599609375 -262.799804688 c 1
 514.799804688 -252 496.799804688 -248.400390625 475.200195312 -248.400390625 c 1
 378 -298.799804688 313.200195312 -349.200195312 313.200195312 -489.599609375 c 0
 313.200195312 -658.799804688 396 -802.799804688 554.400390625 -802.799804688 c 1
 619.200195312 -795.599609375 l 1
 716.400390625 -770.400390625 792 -716.400390625 853.200195312 -637.200195312 c 128
 914.400390625 -558 968.400390625 -464.400390625 1022.40039062 -352.799804688 c 1
 1141.20019531 -129.599609375 1306.79980469 471.599609375 1357.20019531 792 c 1
 1861.20019531 792 l 1
 1796.40039062 482.400390625 l 1
 1746 259.200195312 1699.20019531 39.599609375 1648.79980469 -183.599609375 c 1
 1612.79980469 -316.799804688 1576.79980469 -417.599609375 1530 -532.799804688 c 1
 1483.20019531 -633.599609375 1425.59960938 -684 1357.20019531 -684 c 0
 1332 -684 1321.20019531 -676.799804688 1321.20019531 -658.799804688 c 1
 1339.20019531 -626.400390625 1342.79980469 -619.200195312 1368 -583.200195312 c 2
 1404 -529.200195312 l 2
 1422 -500.400390625 1436.40039062 -446.400390625 1436.40039062 -417.599609375 c 0
 1432.79980469 -331.200195312 1389.59960938 -248.400390625 1306.79980469 -248.400390625 c 1
 1195.20019531 -284.400390625 1155.59960938 -356.400390625 1141.20019531 -489.599609375 c 1
 1141.20019531 -532.799804688 1148.40039062 -572.400390625 1162.79980469 -608.400390625 c 1
 1195.20019531 -720 1260 -802.799804688 1386 -802.799804688 c 1
 1450.79980469 -795.599609375 l 1
 1649.86523438 -731.8984375 1756.98730469 -527.169921875 1850.40039062 -352.799804688 c 1
 1947.59960938 -151.200195312 2023.20019531 86.400390625 2088 356.400390625 c 1
 2127.59960938 489.599609375 2156.40039062 633.599609375 2181.59960938 792 c 1
 2696.40039062 792 l 1
 2626.79003906 469.209960938 2562.14160156 141.458007812 2487.59960938 -176.400390625 c 0
 2475.6015625 -236.401367188 2457.6015625 -298.799804688 2433.59960938 -363.599609375 c 128
 2387.59570312 -487.799804688 2318.66992188 -684 2192.40039062 -684 c 1
 2112.68847656 -676.026367188 2174.84667969 -632.919921875 2199.59960938 -594 c 128
 2229.83300781 -546.526367188 2275.20019531 -504.407226562 2275.20019531 -432 c 0
 2275.20019531 -359.71875 2226.18945312 -248.400390625 2149.20019531 -248.400390625 c 0
 2027.91601562 -248.400390625 1972.79980469 -389.440429688 1972.79980469 -504 c 0
 1972.79980469 -670.741210938 2067.77832031 -802.799804688 2228.40039062 -802.799804688 c 0
 2418.11328125 -802.799804688 2564.43457031 -587.275390625 2649.59960938 -421.200195312 c 0
 2804.18066406 -124.411132812 2951.94921875 400.301757812 3020.40039062 792 c 1
 3538.79980469 792 l 1
 3380.40039062 43.2001953125 l 1
 3330 -176.400390625 l 2
 3306.31152344 -294.845703125 3249.97558594 -439.85546875 3204 -536.400390625 c 0
 3158.3984375 -634.798828125 3102.00097656 -684 3034.79980469 -684 c 1
 2955.08203125 -676.026367188 3017.24316406 -632.926757812 3042 -594 c 128
 3072.25488281 -546.494140625 3117.59960938 -504.439453125 3117.59960938 -432 c 0
 3117.59960938 -359.71484375 3068.57519531 -248.400390625 2991.59960938 -248.400390625 c 0
 2870.35546875 -248.400390625 2815.20019531 -389.458984375 2815.20019531 -504 c 0
EndSplineSet
EndChar

StartChar: uniE533
Encoding: 58675 58675 73
Width: 5009
Flags: HW
LayerCount: 2
Fore
SplineSet
-338.400390625 -248.400390625 m 0
 -261.411132812 -248.400390625 -212.400390625 -359.717773438 -212.400390625 -432 c 0
 -212.400390625 -504.407226562 -257.76953125 -546.530273438 -288 -594 c 0
 -304.791015625 -620.3984375 -317.98828125 -637.200195312 -327.599609375 -644.400390625 c 0
 -347.475585938 -670.903320312 -332.415039062 -680.27734375 -295.200195312 -684 c 1
 -168.927734375 -684 -100.002929688 -487.799804688 -54 -363.599609375 c 0
 -29.9990234375 -298.799804688 -11.9990234375 -236.401367188 0 -176.400390625 c 0
 74.5419921875 141.458007812 139.189453125 469.209960938 208.799804688 792 c 1
 0 792 l 1
 0 928.799804688 l 1
 252 928.799804688 l 1
 300.34375 1065.04882812 334.64453125 1161.57617188 396 1256.40039062 c 0
 470.397460938 1364.40039062 548.3984375 1447.20019531 630 1504.79980469 c 0
 711.6015625 1562.40039062 801.6015625 1591.20019531 900 1591.20019531 c 0
 1001.94433594 1591.20019531 1064.14160156 1541.97363281 1083.59960938 1454.40039062 c 2
 1098 1396.79980469 l 1
 1098 1277.5 1094.38964844 1267.17480469 1051.20019531 1180.79980469 c 0
 1039.90332031 1155.38378906 988.62109375 1090.60546875 939.599609375 1083.59960938 c 0
 847.65625 1070.45996094 823.711914062 1119.77246094 810 1195.20019531 c 1
 810 1293.40429688 850.7734375 1354.38085938 914.400390625 1396.79980469 c 2
 964.799804688 1432.79980469 l 1
 964.799804688 1513.99121094 824.385742188 1495.00097656 777.599609375 1461.59960938 c 0
 669.484375 1384.36914062 604.498046875 1089.6484375 561.599609375 928.799804688 c 1
 840.599609375 927 l 1
 824.400390625 792 l 1
 532.799804688 792 l 1
 464.349609375 400.301757812 316.581054688 -124.41015625 162 -421.200195312 c 0
 76.8349609375 -587.275390625 -69.48828125 -802.799804688 -259.200195312 -802.799804688 c 0
 -419.821289062 -802.799804688 -514.799804688 -670.741210938 -514.799804688 -504 c 0
 -514.799804688 -389.440429688 -459.680664062 -248.400390625 -338.400390625 -248.400390625 c 0
3650.40039062 -504 m 0
 3650.40039062 -670.7265625 3745.36816406 -802.799804688 3906 -802.799804688 c 0
 4095.39648438 -802.799804688 4242.27636719 -586.818359375 4327.20019531 -421.200195312 c 0
 4481.3515625 -125.26171875 4629.70800781 401.23828125 4698 792 c 1
 5004 792 l 1
 5004 936 l 1
 4726.79980469 936 l 1
 4745.12402344 1004.62304688 4813.63183594 1243.1484375 4838.40039062 1306.79980469 c 1
 4874.40039062 1386 4909.21191406 1437.59863281 4942.79980469 1461.59960938 c 0
 4989.70800781 1495.09472656 5130 1514.02636719 5130 1432.79980469 c 1
 5079.59960938 1396.79980469 l 2
 5015.91601562 1354.34863281 4975.20019531 1293.46875 4975.20019531 1195.20019531 c 1
 4988.51953125 1121.77050781 5010.15625 1070.08203125 5104.79980469 1083.59960938 c 0
 5153.79589844 1090.6015625 5205.13183594 1155.45605469 5216.40039062 1180.79980469 c 0
 5259.56445312 1267.15332031 5263.20019531 1277.46386719 5263.20019531 1396.79980469 c 1
 5248.79980469 1454.40039062 l 2
 5238.07226562 1502.85644531 5186.08789062 1567.703125 5148 1580.40039062 c 0
 5126.40039062 1587.59960938 5098.78808594 1591.20019531 5065.20019531 1591.20019531 c 0
 4966.81152344 1591.20019531 4876.81152344 1562.40039062 4795.20019531 1504.79980469 c 0
 4671.57617188 1417.56152344 4553.09960938 1272.56054688 4482 1098 c 0
 4465.18847656 1059.59863281 4443.58789062 1003.20117188 4417.20019531 928.799804688 c 1
 3884.40039062 928.799804688 l 1
 3902.75976562 997.635742188 3971.12402344 1242.79882812 3996 1306.79980469 c 1
 4032 1386 4066.81152344 1437.59863281 4100.40039062 1461.59960938 c 0
 4147.30761719 1495.08691406 4287.59960938 1514.03417969 4287.59960938 1432.79980469 c 1
 4237.20019531 1396.79980469 l 2
 4173.58789062 1354.37792969 4132.79980469 1293.40820312 4132.79980469 1195.20019531 c 1
 4146.15625 1121.80664062 4167.75585938 1070.07128906 4262.40039062 1083.59960938 c 0
 4311.43164062 1090.60546875 4362.69628906 1155.38378906 4374 1180.79980469 c 0
 4417.20019531 1267.17480469 4420.79980469 1277.5 4420.79980469 1396.79980469 c 1
 4406.40039062 1454.40039062 l 2
 4386.95996094 1541.97363281 4324.75195312 1591.20019531 4222.79980469 1591.20019531 c 0
 4124.41210938 1591.20019531 4034.41210938 1562.40039062 3952.79980469 1504.79980469 c 0
 3871.18847656 1447.20019531 3793.21191406 1364.40039062 3718.79980469 1256.40039062 c 0
 3657.45605469 1161.58007812 3623.1484375 1065.04882812 3574.79980469 928.799804688 c 1
 3049.20019531 928.799804688 l 1
 3124.79980469 1303.20019531 3232.79980469 1490.40039062 3366 1490.40039062 c 0
 3412.79980469 1490.40039062 3434.40039062 1472.40039062 3452.40039062 1440 c 1
 3452.40039062 1425.59960938 3445.20019531 1418.40039062 3430.79980469 1418.40039062 c 1
 3369.59960938 1382.40039062 3304.79980469 1288.79980469 3304.79980469 1195.20019531 c 1
 3312 1119.59960938 3344.40039062 1080 3402 1080 c 1
 3517.20019531 1101.59960938 3585.59960938 1213.20019531 3585.59960938 1346.40039062 c 0
 3585.59960938 1468.79980469 3531.59960938 1598.40039062 3409.20019531 1598.40039062 c 0
 3247.20019531 1598.40039062 3110.40039062 1533.59960938 2998.79980469 1404 c 0
 2880 1263.59960938 2793.59960938 1105.20019531 2739.59960938 928.799804688 c 1
 2221.20019531 928.799804688 l 1
 2296.79980469 1303.20019531 2404.79980469 1490.40039062 2538 1490.40039062 c 0
 2581.20019531 1490.40039062 2606.40039062 1476 2620.79980469 1440 c 1
 2620.79980469 1425.59960938 2613.59960938 1418.40039062 2602.79980469 1418.40039062 c 1
 2534.40039062 1378.79980469 2469.59960938 1299.59960938 2469.59960938 1195.20019531 c 1
 2476.79980469 1119.59960938 2512.79980469 1080 2577.59960938 1080 c 1
 2638.79980469 1098 2682 1126.79980469 2710.79980469 1170 c 1
 2743.20019531 1227.59960938 2757.59960938 1288.79980469 2757.59960938 1353.59960938 c 1
 2750.40039062 1479.59960938 2710.79980469 1591.20019531 2581.20019531 1591.20019531 c 0
 2221.20019531 1591.20019531 1998 1238.40039062 1915.20019531 936 c 1
 1396.79980469 936 l 1
 1422 1076.40039062 1461.59960938 1202.40039062 1512 1317.59960938 c 0
 1562.40039062 1432.79980469 1627.20019531 1490.40039062 1710 1490.40039062 c 0
 1735.20019531 1490.40039062 1756.79980469 1483.20019531 1774.79980469 1472.40039062 c 1
 1796.40039062 1440 l 1
 1796.40039062 1425.59960938 1789.20019531 1418.40039062 1778.40039062 1418.40039062 c 1
 1706.40039062 1386 1645.20019531 1292.40039062 1645.20019531 1195.20019531 c 1
 1652.40039062 1119.59960938 1688.40039062 1080 1749.59960938 1080 c 1
 1861.20019531 1101.59960938 1929.59960938 1216.79980469 1929.59960938 1353.59960938 c 0
 1929.59960938 1483.20019531 1872 1591.20019531 1753.20019531 1591.20019531 c 0
 1645.20019531 1591.20019531 1544.40039062 1562.40039062 1454.40039062 1501.20019531 c 1
 1364.40039062 1432.79980469 1288.79980469 1350 1227.59960938 1249.20019531 c 0
 1166.40039062 1152 1134 1047.59960938 1101.59960938 928.799804688 c 1
 813.599609375 928.799804688 l 1
 822.599609375 793.799804688 l 1
 1040.40039062 792 l 1
 1029.59960938 748.799804688 1018.79980469 702 1008 655.200195312 c 0
 950.400390625 374.400390625 889.200195312 93.599609375 828 -183.599609375 c 1
 774 -374.400390625 l 1
 734.400390625 -464.400390625 705.599609375 -576 640.799804688 -630 c 1
 608.400390625 -666 572.400390625 -684 532.799804688 -684 c 0
 507.599609375 -684 496.799804688 -676.799804688 496.799804688 -658.799804688 c 1
 547.200195312 -590.400390625 l 1
 597.599609375 -507.599609375 l 2
 612 -482.400390625 619.200195312 -453.599609375 619.200195312 -424.799804688 c 0
 619.200195312 -342 565.200195312 -248.400390625 482.400390625 -248.400390625 c 1
 363.599609375 -291.599609375 334.799804688 -349.200195312 316.799804688 -489.599609375 c 1
 334.799804688 -608.400390625 l 1
 378 -716.400390625 435.599609375 -802.799804688 561.599609375 -802.799804688 c 1
 630 -795.599609375 l 1
 774 -759.599609375 907.200195312 -612 1026 -352.799804688 c 1
 1137.59960938 -126 1314 486 1360.79980469 792 c 1
 1868.40039062 792 l 1
 1799.1796875 467.186523438 1733.12597656 135.920898438 1656 -183.599609375 c 1
 1580.40039062 -518.400390625 1483.20019531 -684 1360.79980469 -684 c 0
 1339.20019531 -684 1328.40039062 -676.799804688 1328.40039062 -658.799804688 c 1
 1404 -554.400390625 1443.59960938 -478.799804688 1443.59960938 -424.799804688 c 0
 1443.59960938 -352.982421875 1414.24511719 -284.178710938 1360.79980469 -262.799804688 c 1
 1350 -252 1332 -248.400390625 1310.40039062 -248.400390625 c 1
 1213.20019531 -298.799804688 1148.40039062 -349.200195312 1148.40039062 -489.599609375 c 0
 1148.40039062 -658.799804688 1231.20019531 -802.799804688 1389.59960938 -802.799804688 c 1
 1454.40039062 -795.599609375 l 1
 1551.59960938 -770.400390625 1627.20019531 -716.400390625 1688.40039062 -637.200195312 c 0
 1749.59960938 -558 1803.59960938 -464.400390625 1857.59960938 -352.799804688 c 1
 1976.40039062 -129.599609375 2142 471.599609375 2192.40039062 792 c 1
 2696.40039062 792 l 1
 2631.59960938 482.400390625 l 1
 2581.20019531 259.200195312 2534.40039062 39.599609375 2484 -183.599609375 c 1
 2448 -316.799804688 2412 -417.599609375 2365.20019531 -532.799804688 c 1
 2318.40039062 -633.599609375 2260.79980469 -684 2192.40039062 -684 c 0
 2167.20019531 -684 2156.40039062 -676.799804688 2156.40039062 -658.799804688 c 1
 2174.40039062 -626.400390625 2178 -619.200195312 2203.20019531 -583.200195312 c 2
 2239.20019531 -529.200195312 l 2
 2257.20019531 -500.400390625 2271.59960938 -446.400390625 2271.59960938 -417.599609375 c 0
 2268 -331.200195312 2224.79980469 -248.400390625 2142 -248.400390625 c 1
 2030.40039062 -284.400390625 1990.79980469 -356.400390625 1976.40039062 -489.599609375 c 1
 1976.40039062 -532.799804688 1983.59960938 -572.400390625 1998 -608.400390625 c 1
 2030.40039062 -720 2095.20019531 -802.799804688 2221.20019531 -802.799804688 c 1
 2286 -795.599609375 l 1
 2485.06542969 -731.8984375 2592.1875 -527.169921875 2685.59960938 -352.799804688 c 1
 2782.79980469 -151.200195312 2858.40039062 86.400390625 2923.20019531 356.400390625 c 1
 2962.79980469 489.599609375 2991.59960938 633.599609375 3016.79980469 792 c 1
 3531.59960938 792 l 1
 3461.99023438 469.209960938 3397.34179688 141.458007812 3322.79980469 -176.400390625 c 0
 3310.80078125 -236.401367188 3292.80078125 -298.799804688 3268.79980469 -363.599609375 c 0
 3222.79589844 -487.799804688 3153.87011719 -684 3027.59960938 -684 c 1
 2947.88867188 -676.026367188 3010.046875 -632.919921875 3034.79980469 -594 c 0
 3065.03320312 -546.526367188 3110.40039062 -504.407226562 3110.40039062 -432 c 0
 3110.40039062 -359.71875 3061.38964844 -248.400390625 2984.40039062 -248.400390625 c 0
 2863.11621094 -248.400390625 2808 -389.440429688 2808 -504 c 0
 2808 -670.741210938 2902.97851562 -802.799804688 3063.59960938 -802.799804688 c 0
 3253.3125 -802.799804688 3399.63476562 -587.275390625 3484.79980469 -421.200195312 c 0
 3639.38378906 -124.411132812 3787.1640625 400.301757812 3855.59960938 792 c 1
 4374 792 l 1
 4215.59960938 43.2001953125 l 1
 4165.20019531 -176.400390625 l 2
 4141.51171875 -294.845703125 4085.171875 -439.85546875 4039.20019531 -536.400390625 c 0
 3993.58789062 -634.798828125 3937.21191406 -684 3870 -684 c 1
 3790.29589844 -676.026367188 3852.43164062 -632.926757812 3877.20019531 -594 c 0
 3907.44042969 -546.494140625 3952.79980469 -504.439453125 3952.79980469 -432 c 0
 3952.79980469 -359.71484375 3903.76757812 -248.400390625 3826.79980469 -248.400390625 c 0
 3705.55175781 -248.400390625 3650.40039062 -389.458984375 3650.40039062 -504 c 0
EndSplineSet
EndChar

StartChar: uniE534
Encoding: 58676 58676 74
Width: 2032
Flags: HW
LayerCount: 2
Fore
SplineSet
1555.20019531 3.599609375 m 0
 1476.28417969 3.599609375 1373.94726562 68.478515625 1335.59960938 126 c 1
 1134 -442.799804688 l 1
 1123.20019531 -457.200195312 l 1
 1132.80078125 -481.201171875 1147.20117188 -494.3984375 1166.40039062 -496.799804688 c 2
 1281.59960938 -496.799804688 l 1
 1281.59960938 -601.200195312 l 1
 658.799804688 -601.200195312 l 1
 658.799804688 -496.799804688 l 1
 734.400390625 -496.799804688 l 2
 748.799804688 -496.799804688 765.6015625 -490.798828125 784.799804688 -478.799804688 c 1
 799.200195312 -464.400390625 810 -447.598632812 817.200195312 -428.400390625 c 2
 1245.59960938 763.200195312 l 1
 1245.59960938 784.799804688 l 1
 1234.79980469 820.799804688 l 1
 1213.20019531 831.599609375 l 1
 1131.95507812 831.599609375 1076.94335938 739.922851562 1040.40039062 676.799804688 c 1
 1000.79980469 615.599609375 l 1
 972.522460938 559.875976562 945.208984375 503.193359375 918 446.400390625 c 1
 835.200195312 446.400390625 l 1
 914.400390625 600.000976562 988.80078125 721.19921875 1058.40039062 810 c 128
 1127.99902344 898.80078125 1219.20117188 944.3984375 1332 946.799804688 c 0
 1382.06152344 946.799804688 1432.79980469 863.622070312 1432.79980469 802.799804688 c 1
 1519.20019531 853.200195312 l 1
 1609.20019531 900 l 1
 1652.40039062 916.80078125 1696.79882812 925.200195312 1742.40039062 925.200195312 c 0
 1937.35449219 925.200195312 2029.80957031 752.432617188 2034 547.200195312 c 0
 2034 379.51171875 1993.77734375 302.51953125 1918.79980469 208.799804688 c 0
 1837.78222656 104.631835938 1719.15820312 3.599609375 1555.20019531 3.599609375 c 0
1778.40039062 608.400390625 m 0
 1778.40039062 702.802734375 1742.06835938 774 1648.79980469 774 c 0
 1598.40039062 774 1563.59863281 757.19921875 1544.40039062 723.599609375 c 0
 1501.20019531 649.19921875 1466.3984375 562.798828125 1440 464.400390625 c 1
 1415.99902344 356.400390625 1404 281.999023438 1404 241.200195312 c 0
 1404 154.799804688 1430.3984375 111.599609375 1483.20019531 111.599609375 c 0
 1579.67285156 111.599609375 1629.546875 149.787109375 1670.40039062 208.799804688 c 1
 1740.68652344 325.947265625 1748.01269531 324.114257812 1764 468 c 128
 1771.20019531 532.799804688 1775.99902344 579.599609375 1778.40039062 608.400390625 c 0
-338.400390625 -248.400390625 m 0
 -261.411132812 -248.400390625 -212.400390625 -359.717773438 -212.400390625 -432 c 0
 -212.400390625 -504.407226562 -257.76953125 -546.530273438 -288 -594 c 128
 -304.791015625 -620.3984375 -317.98828125 -637.200195312 -327.599609375 -644.400390625 c 0
 -347.475585938 -670.903320312 -332.415039062 -680.27734375 -295.200195312 -684 c 1
 -168.927734375 -684 -100.002929688 -487.799804688 -54 -363.599609375 c 128
 -29.9990234375 -298.799804688 -11.9990234375 -236.401367188 0 -176.400390625 c 0
 74.5419921875 141.458007812 139.189453125 469.209960938 208.799804688 792 c 1
 0 792 l 1
 0 928.799804688 l 1
 252 928.799804688 l 1
 300.34375 1065.04882812 334.64453125 1161.57617188 396 1256.40039062 c 0
 470.397460938 1364.40039062 548.3984375 1447.20019531 630 1504.79980469 c 128
 711.6015625 1562.40039062 801.6015625 1591.20019531 900 1591.20019531 c 0
 1001.94433594 1591.20019531 1064.14160156 1541.97363281 1083.59960938 1454.40039062 c 2
 1098 1396.79980469 l 1
 1098 1277.5 1094.38964844 1267.17480469 1051.20019531 1180.79980469 c 0
 1039.90332031 1155.38378906 988.62109375 1090.60546875 939.599609375 1083.59960938 c 128
 922.798828125 1081.19921875 902.401367188 1081.19921875 878.400390625 1083.59960938 c 0
 833.014648438 1093.68359375 818.762695312 1147.00292969 810 1195.20019531 c 1
 810 1293.40429688 850.7734375 1354.38085938 914.400390625 1396.79980469 c 0
 939.599609375 1414.79980469 939.599609375 1414.79980469 964.799804688 1432.79980469 c 1
 964.799804688 1464.00097656 943.200195312 1483.20019531 900 1490.40039062 c 0
 852.000976562 1495.18847656 811.19921875 1485.58691406 777.599609375 1461.59960938 c 128
 744.000976562 1437.59863281 709.200195312 1386 673.200195312 1306.79980469 c 1
 648.309570312 1242.79589844 579.959960938 1004.83886719 561.599609375 936 c 1
 838.799804688 936 l 1
 838.799804688 792 l 1
 532.799804688 792 l 1
 464.349609375 400.301757812 316.581054688 -124.41015625 162 -421.200195312 c 0
 76.8349609375 -587.275390625 -69.48828125 -802.799804688 -259.200195312 -802.799804688 c 0
 -419.821289062 -802.799804688 -514.799804688 -670.741210938 -514.799804688 -504 c 0
 -514.799804688 -389.440429688 -459.680664062 -248.400390625 -338.400390625 -248.400390625 c 0
EndSplineSet
EndChar

StartChar: uniE535
Encoding: 58677 58677 75
Width: 1774
Flags: HW
LayerCount: 2
Fore
SplineSet
1458 414 m 0
 1533.59960938 414 1580.40039062 331.200195312 1580.40039062 241.200195312 c 0
 1580.40039062 158.400390625 1551.59960938 90 1494 32.400390625 c 1
 1440 -28.7998046875 1353.59960938 -57.599609375 1231.20019531 -57.599609375 c 0
 1188 -57.599609375 1155.59960938 -54 1134 -43.2001953125 c 2
 1090.79980469 -21.599609375 l 1
 1029.59960938 14.400390625 l 1
 975.599609375 39.599609375 943.200195312 50.400390625 925.200195312 50.400390625 c 0
 892.799804688 50.400390625 856.799804688 32.400390625 817.200195312 0 c 1
 705.599609375 0 l 1
 705.599609375 57.599609375 l 1
 1458 694.799804688 l 1
 1227.59960938 691.200195312 l 1
 1144.79980469 680.400390625 1112.40039062 637.200195312 1069.20019531 583.200195312 c 1
 982.799804688 583.200195312 l 1
 1090.79980469 896.400390625 l 1
 1771.20019531 896.400390625 l 1
 1771.20019531 781.200195312 l 1
 1011.59960938 194.400390625 l 1
 1058.40039062 216 1105.20019531 226.799804688 1152 226.799804688 c 0
 1202.40039062 226.799804688 1342.79980469 162 1378.79980469 154.799804688 c 1
 1411.20019531 158.400390625 1429.20019531 183.599609375 1429.20019531 223.200195312 c 1
 1382.40039062 223.200195312 1357.20019531 252 1350 306 c 1
 1350 367.200195312 1396.79980469 414 1458 414 c 0
-338.400390625 -248.400390625 m 0
 -261.411132812 -248.400390625 -212.400390625 -359.717773438 -212.400390625 -432 c 0
 -212.400390625 -504.407226562 -257.76953125 -546.530273438 -288 -594 c 128
 -304.791015625 -620.3984375 -317.98828125 -637.200195312 -327.599609375 -644.400390625 c 0
 -347.475585938 -670.903320312 -332.415039062 -680.27734375 -295.200195312 -684 c 1
 -168.927734375 -684 -100.002929688 -487.799804688 -54 -363.599609375 c 128
 -29.9990234375 -298.799804688 -11.9990234375 -236.401367188 0 -176.400390625 c 0
 74.5419921875 141.458007812 139.189453125 469.209960938 208.799804688 792 c 1
 0 792 l 1
 0 928.799804688 l 1
 252 928.799804688 l 1
 300.34375 1065.04882812 334.64453125 1161.57617188 396 1256.40039062 c 0
 470.397460938 1364.40039062 548.3984375 1447.20019531 630 1504.79980469 c 128
 711.6015625 1562.40039062 801.6015625 1591.20019531 900 1591.20019531 c 0
 1001.94433594 1591.20019531 1064.14160156 1541.97363281 1083.59960938 1454.40039062 c 2
 1098 1396.79980469 l 1
 1098 1277.5 1094.38964844 1267.17480469 1051.20019531 1180.79980469 c 0
 1039.90332031 1155.38378906 988.62109375 1090.60546875 939.599609375 1083.59960938 c 128
 922.798828125 1081.19921875 902.401367188 1081.19921875 878.400390625 1083.59960938 c 0
 833.014648438 1093.68359375 818.762695312 1147.00292969 810 1195.20019531 c 1
 810 1293.40429688 850.7734375 1354.38085938 914.400390625 1396.79980469 c 0
 939.599609375 1414.79980469 939.599609375 1414.79980469 964.799804688 1432.79980469 c 1
 964.799804688 1464.00097656 943.200195312 1483.20019531 900 1490.40039062 c 0
 852.000976562 1495.18847656 811.19921875 1485.58691406 777.599609375 1461.59960938 c 128
 744.000976562 1437.59863281 709.200195312 1386 673.200195312 1306.79980469 c 1
 648.309570312 1242.79589844 579.959960938 1004.83886719 561.599609375 936 c 1
 838.799804688 936 l 1
 838.799804688 792 l 1
 532.799804688 792 l 1
 464.349609375 400.301757812 316.581054688 -124.41015625 162 -421.200195312 c 0
 76.8349609375 -587.275390625 -69.48828125 -802.799804688 -259.200195312 -802.799804688 c 0
 -419.821289062 -802.799804688 -514.799804688 -670.741210938 -514.799804688 -504 c 0
 -514.799804688 -389.440429688 -459.680664062 -248.400390625 -338.400390625 -248.400390625 c 0
EndSplineSet
EndChar

StartChar: uniE536
Encoding: 58678 58678 76
Width: 1540
Flags: HW
LayerCount: 2
Fore
SplineSet
360 -248.400390625 m 0
 436.989257812 -248.400390625 486 -359.717773438 486 -432 c 0
 486 -504.407226562 440.62890625 -546.530273438 410.400390625 -594 c 0
 393.609375 -620.3984375 380.412109375 -637.200195312 370.799804688 -644.400390625 c 0
 350.923828125 -670.903320312 365.983398438 -680.27734375 403.200195312 -684 c 1
 529.473632812 -684 598.399414062 -487.799804688 644.400390625 -363.599609375 c 0
 668.401367188 -298.799804688 686.401367188 -236.401367188 698.400390625 -176.400390625 c 0
 772.94140625 141.458007812 837.590820312 469.209960938 907.200195312 792 c 1
 698.400390625 792 l 1
 698.400390625 928.799804688 l 1
 950.400390625 928.799804688 l 1
 998.744140625 1065.04882812 1033.04492188 1161.57617188 1094.40039062 1256.40039062 c 0
 1168.79785156 1364.40039062 1246.79882812 1447.20019531 1328.40039062 1504.79980469 c 0
 1410.00097656 1562.40039062 1500.00097656 1591.20019531 1598.40039062 1591.20019531 c 0
 1700.34472656 1591.20019531 1762.54199219 1541.97363281 1782 1454.40039062 c 2
 1796.40039062 1396.79980469 l 1
 1796.40039062 1277.5 1792.7890625 1267.17480469 1749.59960938 1180.79980469 c 0
 1738.30273438 1155.38378906 1687.02148438 1090.60546875 1638 1083.59960938 c 0
 1546.05566406 1070.45996094 1522.11230469 1119.77246094 1508.40039062 1195.20019531 c 1
 1508.40039062 1293.40820312 1549.16992188 1354.37792969 1612.79980469 1396.79980469 c 0
 1638 1414.79980469 1638 1414.79980469 1663.20019531 1432.79980469 c 1
 1663.20019531 1513.99121094 1522.78515625 1495.00097656 1476 1461.59960938 c 0
 1370.50195312 1386.23730469 1301.95117188 1093.30175781 1260 936 c 1
 1537.20019531 936 l 1
 1537.20019531 792 l 1
 1231.20019531 792 l 1
 1162.75 400.301757812 1014.98046875 -124.41015625 860.400390625 -421.200195312 c 0
 775.234375 -587.275390625 628.913085938 -802.799804688 439.200195312 -802.799804688 c 0
 278.580078125 -802.799804688 183.599609375 -670.741210938 183.599609375 -504 c 0
 183.599609375 -389.440429688 238.717773438 -248.400390625 360 -248.400390625 c 0
291.599609375 118.799804688 m 2
 367.200195312 118.799804688 428.400390625 172.799804688 435.599609375 241.200195312 c 1
 435.599609375 307.10546875 392.040039062 347.65234375 338.400390625 385.200195312 c 1
 259.200195312 432 201.599609375 478.799804688 169.200195312 522 c 0
 136.799804688 565.200195312 118.799804688 615.599609375 115.200195312 676.799804688 c 1
 115.200195312 856.799804688 259.200195312 972 428.400390625 972 c 1
 529.200195312 961.200195312 l 1
 561.599609375 950.400390625 590.400390625 936 615.599609375 914.400390625 c 1
 669.599609375 882 698.400390625 828 698.400390625 759.599609375 c 1
 694.799804688 723.599609375 l 1
 673.200195312 687.599609375 l 2
 662.400390625 669.599609375 644.400390625 655.200195312 612 651.599609375 c 1
 550.799804688 651.599609375 518.400390625 680.400390625 507.599609375 738 c 1
 522 806.400390625 l 1
 522 842.400390625 471.599609375 864 435.599609375 871.200195312 c 0
 367.200195312 882 320.400390625 813.599609375 309.599609375 741.599609375 c 1
 309.599609375 716.400390625 324 687.599609375 349.200195312 662.400390625 c 1
 381.599609375 637.200195312 414 612 442.799804688 586.799804688 c 0
 543.599609375 504 597.599609375 453.599609375 601.200195312 442.799804688 c 1
 630 406.799804688 644.400390625 360 644.400390625 302.400390625 c 2
 644.400390625 266.400390625 l 2
 644.400390625 190.799804688 608.400390625 126 540 72 c 1
 482.400390625 36 403.200195312 7.2001953125 320.400390625 0 c 1
 151.200195312 0 0 93.599609375 0 241.200195312 c 1
 3.599609375 295.200195312 l 1
 21.599609375 342 l 1
 57.599609375 374.400390625 l 1
 104.400390625 388.799804688 l 1
 162 388.799804688 190.799804688 352.799804688 190.799804688 277.200195312 c 0
 190.799804688 230.400390625 172.799804688 219.599609375 162 176.400390625 c 1
 162 147.599609375 201.599609375 118.799804688 244.799804688 118.799804688 c 2
 291.599609375 118.799804688 l 2
EndSplineSet
EndChar

StartChar: uniE537
Encoding: 58679 58679 77
Width: 2740
Flags: HW
LayerCount: 2
Fore
SplineSet
2260.79980469 3.599609375 m 0
 2181.88476562 3.599609375 2079.546875 68.478515625 2041.20019531 126 c 1
 1839.59960938 -442.799804688 l 1
 1828.79980469 -457.200195312 l 1
 1838.40136719 -481.201171875 1852.80078125 -494.3984375 1872 -496.799804688 c 2
 1987.20019531 -496.799804688 l 1
 1987.20019531 -601.200195312 l 1
 1364.40039062 -601.200195312 l 1
 1364.40039062 -496.799804688 l 1
 1440 -496.799804688 l 2
 1454.40039062 -496.799804688 1471.20117188 -490.798828125 1490.40039062 -478.799804688 c 1
 1504.79980469 -464.400390625 1515.59960938 -447.598632812 1522.79980469 -428.400390625 c 2
 1951.20019531 763.200195312 l 1
 1951.20019531 784.799804688 l 1
 1940.40039062 820.799804688 l 1
 1918.79980469 831.599609375 l 1
 1837.55566406 831.599609375 1782.54394531 739.922851562 1746 676.799804688 c 1
 1706.40039062 615.599609375 l 1
 1678.12207031 559.875976562 1650.80859375 503.193359375 1623.59960938 446.400390625 c 1
 1540.79980469 446.400390625 l 1
 1620 600.000976562 1694.40136719 721.19921875 1764 810 c 128
 1833.59863281 898.80078125 1924.80078125 944.3984375 2037.59960938 946.799804688 c 0
 2087.66113281 946.799804688 2138.40039062 863.622070312 2138.40039062 802.799804688 c 1
 2224.79980469 853.200195312 l 1
 2314.79980469 900 l 1
 2358 916.80078125 2402.3984375 925.200195312 2448 925.200195312 c 0
 2642.95410156 925.200195312 2735.40917969 752.432617188 2739.59960938 547.200195312 c 0
 2739.59960938 379.51171875 2699.37695312 302.51953125 2624.40039062 208.799804688 c 0
 2543.38183594 104.631835938 2424.75878906 3.599609375 2260.79980469 3.599609375 c 0
2484 608.400390625 m 0
 2484 702.802734375 2447.66503906 774 2354.40039062 774 c 0
 2304 774 2269.19921875 757.19921875 2250 723.599609375 c 0
 2206.79980469 649.19921875 2171.99902344 562.798828125 2145.59960938 464.400390625 c 1
 2121.59863281 356.400390625 2109.59960938 281.999023438 2109.59960938 241.200195312 c 0
 2109.59960938 154.799804688 2135.99902344 111.599609375 2188.79980469 111.599609375 c 0
 2285.27246094 111.599609375 2335.14746094 149.787109375 2376 208.799804688 c 1
 2446.28613281 325.947265625 2453.61230469 324.114257812 2469.59960938 468 c 128
 2476.79980469 532.799804688 2481.59863281 579.599609375 2484 608.400390625 c 0
360 -248.400390625 m 0
 436.989257812 -248.400390625 486 -359.717773438 486 -432 c 0
 486 -504.407226562 440.62890625 -546.530273438 410.400390625 -594 c 0
 393.609375 -620.3984375 380.412109375 -637.200195312 370.799804688 -644.400390625 c 0
 350.923828125 -670.903320312 365.983398438 -680.27734375 403.200195312 -684 c 1
 529.473632812 -684 598.399414062 -487.799804688 644.400390625 -363.599609375 c 0
 668.401367188 -298.799804688 686.401367188 -236.401367188 698.400390625 -176.400390625 c 0
 772.94140625 141.458007812 837.590820312 469.209960938 907.200195312 792 c 1
 698.400390625 792 l 1
 698.400390625 928.799804688 l 1
 950.400390625 928.799804688 l 1
 998.744140625 1065.04882812 1033.04492188 1161.57617188 1094.40039062 1256.40039062 c 0
 1168.79785156 1364.40039062 1246.79882812 1447.20019531 1328.40039062 1504.79980469 c 0
 1410.00097656 1562.40039062 1500.00097656 1591.20019531 1598.40039062 1591.20019531 c 0
 1700.34472656 1591.20019531 1762.54199219 1541.97363281 1782 1454.40039062 c 2
 1796.40039062 1396.79980469 l 1
 1796.40039062 1277.5 1792.7890625 1267.17480469 1749.59960938 1180.79980469 c 0
 1738.30273438 1155.38378906 1687.02148438 1090.60546875 1638 1083.59960938 c 0
 1546.05566406 1070.45996094 1522.11230469 1119.77246094 1508.40039062 1195.20019531 c 1
 1508.40039062 1293.40820312 1549.16992188 1354.37792969 1612.79980469 1396.79980469 c 0
 1638 1414.79980469 1638 1414.79980469 1663.20019531 1432.79980469 c 1
 1663.20019531 1513.99121094 1522.78515625 1495.00097656 1476 1461.59960938 c 0
 1370.50195312 1386.23730469 1301.95117188 1093.30175781 1260 936 c 1
 1537.20019531 936 l 1
 1537.20019531 792 l 1
 1231.20019531 792 l 1
 1162.75 400.301757812 1014.98046875 -124.41015625 860.400390625 -421.200195312 c 0
 775.234375 -587.275390625 628.913085938 -802.799804688 439.200195312 -802.799804688 c 0
 278.580078125 -802.799804688 183.599609375 -670.741210938 183.599609375 -504 c 0
 183.599609375 -389.440429688 238.717773438 -248.400390625 360 -248.400390625 c 0
291.599609375 118.799804688 m 2
 367.200195312 118.799804688 428.400390625 172.799804688 435.599609375 241.200195312 c 1
 435.599609375 307.10546875 392.040039062 347.65234375 338.400390625 385.200195312 c 1
 259.200195312 432 201.599609375 478.799804688 169.200195312 522 c 0
 136.799804688 565.200195312 118.799804688 615.599609375 115.200195312 676.799804688 c 1
 115.200195312 856.799804688 259.200195312 972 428.400390625 972 c 1
 529.200195312 961.200195312 l 1
 561.599609375 950.400390625 590.400390625 936 615.599609375 914.400390625 c 1
 669.599609375 882 698.400390625 828 698.400390625 759.599609375 c 1
 694.799804688 723.599609375 l 1
 673.200195312 687.599609375 l 2
 662.400390625 669.599609375 644.400390625 655.200195312 612 651.599609375 c 1
 550.799804688 651.599609375 518.400390625 680.400390625 507.599609375 738 c 1
 522 806.400390625 l 1
 522 842.400390625 471.599609375 864 435.599609375 871.200195312 c 0
 367.200195312 882 320.400390625 813.599609375 309.599609375 741.599609375 c 1
 309.599609375 716.400390625 324 687.599609375 349.200195312 662.400390625 c 1
 381.599609375 637.200195312 414 612 442.799804688 586.799804688 c 0
 543.599609375 504 597.599609375 453.599609375 601.200195312 442.799804688 c 1
 630 406.799804688 644.400390625 360 644.400390625 302.400390625 c 2
 644.400390625 266.400390625 l 2
 644.400390625 190.799804688 608.400390625 126 540 72 c 1
 482.400390625 36 403.200195312 7.2001953125 320.400390625 0 c 1
 151.200195312 0 0 93.599609375 0 241.200195312 c 1
 3.599609375 295.200195312 l 1
 21.599609375 342 l 1
 57.599609375 374.400390625 l 1
 104.400390625 388.799804688 l 1
 162 388.799804688 190.799804688 352.799804688 190.799804688 277.200195312 c 0
 190.799804688 230.400390625 172.799804688 219.599609375 162 176.400390625 c 1
 162 147.599609375 201.599609375 118.799804688 244.799804688 118.799804688 c 2
 291.599609375 118.799804688 l 2
EndSplineSet
EndChar

StartChar: uniE538
Encoding: 58680 58680 78
Width: 3822
Flags: HW
LayerCount: 2
Fore
SplineSet
3564 608.400390625 m 1
 3564 702 3528 774 3434.40039062 774 c 0
 3384 774 3348 756 3330 723.599609375 c 0
 3286.79980469 648 3250.79980469 561.599609375 3225.59960938 464.400390625 c 0
 3200.40039062 356.400390625 3189.59960938 280.799804688 3189.59960938 241.200195312 c 0
 3189.59960938 154.799804688 3214.79980469 111.599609375 3268.79980469 111.599609375 c 0
 3366 111.599609375 3416.40039062 151.200195312 3456 208.799804688 c 1
 3528 327.599609375 3535.20019531 324 3549.59960938 468 c 0
 3556.79980469 532.799804688 3560.40039062 579.599609375 3564 608.400390625 c 1
2484 608.400390625 m 1
 2484 702 2448 774 2354.40039062 774 c 0
 2304 774 2268 756 2250 723.599609375 c 0
 2206.79980469 648 2170.79980469 561.599609375 2145.59960938 464.400390625 c 0
 2120.40039062 356.400390625 2109.59960938 280.799804688 2109.59960938 241.200195312 c 0
 2109.59960938 154.799804688 2134.79980469 111.599609375 2188.79980469 111.599609375 c 0
 2286 111.599609375 2336.40039062 151.200195312 2376 208.799804688 c 1
 2448 327.599609375 2455.20019531 324 2469.59960938 468 c 0
 2476.79980469 532.799804688 2480.40039062 579.599609375 2484 608.400390625 c 1
2260.79980469 3.599609375 m 0
 2181.59960938 3.599609375 2080.79980469 68.400390625 2041.20019531 126 c 1
 1839.59960938 -442.799804688 l 1
 1828.79980469 -457.200195312 l 1
 1839.59960938 -482.400390625 1854 -493.200195312 1872 -496.799804688 c 1
 1987.20019531 -496.799804688 l 1
 1987.20019531 -601.200195312 l 1
 1364.40039062 -601.200195312 l 1
 1364.40039062 -496.799804688 l 1
 1440 -496.799804688 l 2
 1454.40039062 -496.799804688 1472.40039062 -489.599609375 1490.40039062 -478.799804688 c 1
 1504.79980469 -464.400390625 1515.59960938 -446.400390625 1522.79980469 -428.400390625 c 2
 1951.20019531 763.200195312 l 1
 1951.20019531 784.799804688 l 1
 1940.40039062 820.799804688 l 1
 1918.79980469 831.599609375 l 1
 1836 831.599609375 1782 741.599609375 1746 676.799804688 c 1
 1706.40039062 615.599609375 l 1
 1677.59960938 561.599609375 1652.40039062 504 1623.59960938 446.400390625 c 1
 1540.79980469 446.400390625 l 1
 1620 601.200195312 1695.59960938 720 1764 810 c 0
 1832.40039062 900 1926 943.200195312 2037.59960938 946.799804688 c 0
 2088 946.799804688 2138.40039062 864 2138.40039062 802.799804688 c 1
 2224.79980469 853.200195312 l 1
 2314.79980469 900 l 1
 2358 918 2401.20019531 925.200195312 2448 925.200195312 c 0
 2610 925.200195312 2707.20019531 799.200195312 2732.40039062 644.400390625 c 1
 2822.40039062 792 2916 943.200195312 3117.59960938 946.799804688 c 0
 3168 946.799804688 3218.40039062 864 3218.40039062 802.799804688 c 1
 3304.79980469 853.200195312 l 1
 3394.79980469 900 l 1
 3438 918 3481.20019531 925.200195312 3528 925.200195312 c 0
 3722.40039062 925.200195312 3816 752.400390625 3819.59960938 547.200195312 c 0
 3819.59960938 378 3780 302.400390625 3704.40039062 208.799804688 c 0
 3621.59960938 104.400390625 3506.40039062 3.599609375 3340.79980469 3.599609375 c 0
 3261.59960938 3.599609375 3160.79980469 68.400390625 3121.20019531 126 c 1
 2919.59960938 -442.799804688 l 1
 2908.79980469 -457.200195312 l 1
 2919.59960938 -482.400390625 2934 -493.200195312 2952 -496.799804688 c 1
 3067.20019531 -496.799804688 l 1
 3067.20019531 -601.200195312 l 1
 2444.40039062 -601.200195312 l 1
 2444.40039062 -496.799804688 l 1
 2520 -496.799804688 l 2
 2534.40039062 -496.799804688 2552.40039062 -489.599609375 2570.40039062 -478.799804688 c 1
 2584.79980469 -464.400390625 2595.59960938 -446.400390625 2602.79980469 -428.400390625 c 2
 3031.20019531 763.200195312 l 1
 3031.20019531 784.799804688 l 1
 3020.40039062 820.799804688 l 1
 2998.79980469 831.599609375 l 1
 2916 831.599609375 2862 741.599609375 2826 676.799804688 c 1
 2786.40039062 615.599609375 l 1
 2772 583.200195312 2754 554.400390625 2739.59960938 522 c 1
 2736 367.200195312 2696.40039062 298.799804688 2624.40039062 208.799804688 c 0
 2541.59960938 104.400390625 2426.40039062 3.599609375 2260.79980469 3.599609375 c 0
360 -248.400390625 m 0
 435.599609375 -248.400390625 486 -360 486 -432 c 0
 486 -504 439.200195312 -547.200195312 410.400390625 -594 c 0
 392.400390625 -619.200195312 381.599609375 -637.200195312 370.799804688 -644.400390625 c 0
 349.200195312 -669.599609375 367.200195312 -680.400390625 403.200195312 -684 c 1
 529.200195312 -684 597.599609375 -489.599609375 644.400390625 -363.599609375 c 0
 669.599609375 -298.799804688 687.599609375 -237.599609375 698.400390625 -176.400390625 c 1
 774 140.400390625 838.799804688 468 907.200195312 792 c 1
 698.400390625 792 l 1
 698.400390625 928.799804688 l 1
 950.400390625 928.799804688 l 1
 997.200195312 1065.59960938 1033.20019531 1162.79980469 1094.40039062 1256.40039062 c 0
 1170 1364.40039062 1245.59960938 1447.20019531 1328.40039062 1504.79980469 c 0
 1411.20019531 1562.40039062 1501.20019531 1591.20019531 1598.40039062 1591.20019531 c 0
 1699.20019531 1591.20019531 1764 1540.79980469 1782 1454.40039062 c 2
 1796.40039062 1396.79980469 l 1
 1796.40039062 1278 1792.79980469 1267.20019531 1749.59960938 1180.79980469 c 0
 1738.79980469 1155.59960938 1688.40039062 1090.79980469 1638 1083.59960938 c 0
 1544.40039062 1069.20019531 1522.79980469 1119.59960938 1508.40039062 1195.20019531 c 1
 1508.40039062 1292.40039062 1548 1353.59960938 1612.79980469 1396.79980469 c 2
 1663.20019531 1432.79980469 l 1
 1663.20019531 1515.59960938 1522.79980469 1494 1476 1461.59960938 c 0
 1371.59960938 1386 1303.20019531 1094.40039062 1260 936 c 1
 1537.20019531 936 l 1
 1537.20019531 792 l 1
 1231.20019531 792 l 1
 1162.79980469 399.599609375 1015.20019531 -126 860.400390625 -421.200195312 c 0
 774 -586.799804688 630 -802.799804688 439.200195312 -802.799804688 c 0
 277.200195312 -802.799804688 183.599609375 -669.599609375 183.599609375 -504 c 0
 183.599609375 -388.799804688 237.599609375 -248.400390625 360 -248.400390625 c 0
291.599609375 118.799804688 m 2
 367.200195312 118.799804688 428.400390625 172.799804688 435.599609375 241.200195312 c 1
 435.599609375 306 392.400390625 349.200195312 338.400390625 385.200195312 c 0
 259.200195312 432 201.599609375 478.799804688 169.200195312 522 c 0
 136.799804688 565.200195312 118.799804688 615.599609375 115.200195312 676.799804688 c 1
 115.200195312 856.799804688 259.200195312 972 428.400390625 972 c 1
 529.200195312 961.200195312 l 1
 561.599609375 950.400390625 590.400390625 936 615.599609375 914.400390625 c 1
 669.599609375 882 698.400390625 828 698.400390625 759.599609375 c 1
 694.799804688 723.599609375 l 1
 673.200195312 687.599609375 l 2
 662.400390625 669.599609375 644.400390625 655.200195312 612 651.599609375 c 1
 550.799804688 651.599609375 518.400390625 680.400390625 507.599609375 738 c 1
 522 806.400390625 l 1
 522 842.400390625 471.599609375 864 435.599609375 871.200195312 c 0
 367.200195312 882 320.400390625 813.599609375 309.599609375 741.599609375 c 1
 309.599609375 716.400390625 324 687.599609375 349.200195312 662.400390625 c 1
 381.599609375 637.200195312 414 612 442.799804688 586.799804688 c 0
 543.599609375 504 597.599609375 453.599609375 601.200195312 442.799804688 c 1
 630 406.799804688 644.400390625 360 644.400390625 302.400390625 c 2
 644.400390625 266.400390625 l 2
 644.400390625 190.799804688 608.400390625 126 540 72 c 1
 482.400390625 36 403.200195312 7.2001953125 320.400390625 0 c 1
 151.200195312 0 0 93.599609375 0 241.200195312 c 1
 3.599609375 295.200195312 l 1
 21.599609375 342 l 1
 57.599609375 374.400390625 l 1
 104.400390625 388.799804688 l 1
 162 388.799804688 190.799804688 352.799804688 190.799804688 277.200195312 c 0
 190.799804688 230.400390625 172.799804688 219.599609375 162 176.400390625 c 1
 162 147.599609375 201.599609375 118.799804688 244.799804688 118.799804688 c 2
 291.599609375 118.799804688 l 2
EndSplineSet
EndChar

